<?xml version="1.0" encoding="utf-8"?>
<!-- Generator: Adobe Illustrator 24.1.3, SVG Export Plug-In . SVG Version: 6.00 Build 0)  -->
<svg version="1.1" id="Layer_1" xmlns="http://www.w3.org/2000/svg" xmlns:xlink="http://www.w3.org/1999/xlink" x="0px" y="0px"
	 viewBox="0 0 692 274.9" style="enable-background:new 0 0 692 274.9;" xml:space="preserve">
<style type="text/css">
	.st0{fill:#30BCED;}
	.st1{fill:#187FB9;}
	.st2{fill:#FFFFFF;}
	.st3{fill:#0C619F;}
	.st4{fill:#004C8D;}
	.st5{fill:#004385;}
	.st6{fill:#7FA1C2;}
	.st7{fill:none;}
</style>
<g id="Layer_3">
	<path class="st0" d="M108.8,78.3c0.1,2.3,0.1,4.6,0.1,6.8C109,82.9,108.9,80.6,108.8,78.3z"/>
	<path class="st0" d="M109,85.2c0,1.6,0,3.3,0,4.9C108.9,88.5,109,86.8,109,85.2z"/>
	<path class="st0" d="M108.7,96.8c0,1.1-0.1,2.3-0.2,3.4C108.6,99.1,108.6,98,108.7,96.8z"/>
	<path class="st0" d="M106.3,47.5c0.3,2.1,0.5,4.1,0.8,6.2C106.9,51.6,106.6,49.6,106.3,47.5z"/>
	<path class="st0" d="M107.3,55.1c0.3,2.2,0.5,4.4,0.7,6.7C107.7,59.5,107.5,57.3,107.3,55.1z"/>
	<path class="st0" d="M108.5,70.1c0.1,2.2,0.2,4.5,0.3,6.7C108.7,74.6,108.6,72.4,108.5,70.1z"/>
	<path class="st0" d="M108,63c0.2,2,0.3,4.1,0.4,6.1C108.3,67.1,108.2,65.1,108,63z"/>
	<path class="st0" d="M108.8,91.7c0,1.2-0.1,2.3-0.1,3.4C108.8,94,108.8,92.8,108.8,91.7z"/>
	<path class="st0" d="M106.9,118.4c-0.1,1.1-0.3,2.3-0.4,3.4C106.6,120.7,106.8,119.5,106.9,118.4z"/>
	<path class="st0" d="M106.2,123.4c-0.2,1.5-0.4,2.9-0.7,4.4C105.8,126.3,106,124.8,106.2,123.4z"/>
	<path class="st0" d="M105.5,128.3c-0.3,1.6-0.5,3.3-0.8,4.9C105,131.6,105.2,129.9,105.5,128.3z"/>
	<path class="st0" d="M108.1,106.8c-0.1,1.6-0.3,3.3-0.4,4.9C107.8,110.1,108,108.4,108.1,106.8z"/>
	<path class="st0" d="M108.4,101.8c-0.1,1.5-0.2,3.1-0.3,4.6C108.2,104.9,108.3,103.4,108.4,101.8z"/>
	<path class="st0" d="M98.4,8.3c1.3-0.4,2.6-0.8,3.8-1.1C101,7.5,99.7,7.9,98.4,8.3z"/>
	<path class="st0" d="M104.4,134.6c-0.2,1.2-0.4,2.3-0.7,3.5C104,137,104.2,135.8,104.4,134.6z"/>
	<path class="st0" d="M128,2.8c1.5-0.1,3-0.2,4.4-0.2C131,2.7,129.5,2.7,128,2.8z"/>
	<path class="st0" d="M112.7,4.8c1.4-0.3,2.9-0.5,4.4-0.7C115.6,4.3,114.2,4.5,112.7,4.8z"/>
	<path class="st0" d="M122.5,3.3c1.5-0.2,3-0.3,4.4-0.4C125.5,3,124,3.2,122.5,3.3z"/>
	<path class="st0" d="M118.1,3.9c1.4-0.2,2.9-0.4,4.3-0.6C121,3.5,119.5,3.7,118.1,3.9z"/>
	<path class="st0" d="M103,7c1.4-0.4,2.8-0.7,4.3-1C105.9,6.2,104.5,6.6,103,7z"/>
	<path class="st0" d="M108.2,5.7c1.3-0.3,2.6-0.6,3.9-0.8C110.8,5.2,109.5,5.4,108.2,5.7z"/>
	<path class="st0" d="M100.3,17.2c0.6,2.2,1.1,4.3,1.6,6.5C101.4,21.5,100.9,19.4,100.3,17.2z"/>
	<path class="st0" d="M105.2,40.1c0.4,2.2,0.7,4.5,1,6.7C105.9,44.5,105.6,42.3,105.2,40.1z"/>
	<path class="st0" d="M102.2,25.1c0.5,2.1,0.9,4.3,1.4,6.4C103.2,29.4,102.7,27.3,102.2,25.1z"/>
	<path class="st0" d="M103.7,31.9c0.4,2.2,0.9,4.5,1.2,6.7C104.5,36.4,104.1,34.1,103.7,31.9z"/>
	<path class="st0" d="M98,8.4L98,8.4c0.1,0.2,0.1,0.4,0.2,0.6L98,8.4z"/>
	<path class="st0" d="M98.4,10.2c0.6,1.9,1.1,3.9,1.6,5.9C99.5,14.1,99,12.2,98.4,10.2z"/>
	<path class="st0" d="M132.8,2.6c1.4,0,2.8-0.1,4.1-0.1C135.6,2.5,134.2,2.5,132.8,2.6z"/>
	<path class="st0" d="M107.5,113.2c-0.1,1.2-0.2,2.3-0.4,3.5C107.2,115.5,107.4,114.4,107.5,113.2z"/>
	<path class="st0" d="M91.9,191.8c0.5-0.9,1-1.7,1.6-2.6C93,190.1,92.4,190.9,91.9,191.8z"/>
	<path class="st0" d="M96.8,183.7c0.4-0.6,0.8-1.3,1.1-1.9C97.5,182.4,97.1,183.1,96.8,183.7z"/>
	<path class="st0" d="M102,174.5c0.4-0.7,0.8-1.4,1.2-2.1C102.8,173.1,102.4,173.8,102,174.5z"/>
	<path class="st0" d="M87.2,199.3l1.6-2.5L87.2,199.3z"/>
	<path class="st0" d="M77.7,211.6c-0.8,1.5-1.6,3-2.4,4.5C76.1,214.6,76.9,213.1,77.7,211.6z"/>
	<path class="st0" d="M106.1,167c0.5-0.9,1-1.8,1.4-2.8C107.1,165.1,106.6,166,106.1,167z"/>
	<path class="st0" d="M82.5,206.5l1-1.5L82.5,206.5z"/>
	<path class="st0" d="M76.2,215.6l1.4-2L76.2,215.6z"/>
	<path class="st0" d="M125.4,125.6c0.4-0.9,0.7-1.8,1.1-2.7C126.2,123.8,125.8,124.7,125.4,125.6z"/>
	<path class="st0" d="M129.3,115.8c0.1-0.4,0.3-0.8,0.5-1.2C129.6,115,129.4,115.4,129.3,115.8z"/>
	<path class="st0" d="M122.1,133.6l1.2-2.9L122.1,133.6z"/>
	<path class="st0" d="M110.1,159.2c0.5-0.9,0.9-1.8,1.4-2.7C111,157.4,110.6,158.3,110.1,159.2z"/>
	<path class="st0" d="M118.7,141.4l1.1-2.5L118.7,141.4z"/>
	<path class="st0" d="M114.4,150.5c0.2-0.5,0.5-1.1,0.8-1.6C115,149.4,114.7,150,114.4,150.5z"/>
	<path class="st0" d="M101.2,149.6c-0.4,1.6-0.8,3.2-1.2,4.9C100.4,152.9,100.8,151.3,101.2,149.6z"/>
	<path class="st0" d="M98.1,161c-0.3,1.1-0.7,2.2-1,3.3C97.5,163.2,97.8,162.1,98.1,161z"/>
	<path class="st0" d="M99.6,155.9c-0.3,1.2-0.6,2.4-1,3.5C99,158.2,99.3,157,99.6,155.9z"/>
	<path class="st0" d="M96.7,165.9c-0.4,1.3-0.8,2.6-1.3,4C95.8,168.6,96.3,167.2,96.7,165.9z"/>
	<path class="st0" d="M95.1,170.7c-0.5,1.6-1.1,3.2-1.6,4.8C94,173.9,94.6,172.3,95.1,170.7z"/>
	<path class="st0" d="M102.3,144.8c-0.3,1.4-0.6,2.8-1,4.2C101.7,147.6,102,146.2,102.3,144.8z"/>
	<path class="st0" d="M103.4,139.8c-0.2,1.1-0.5,2.2-0.7,3.4C102.9,142.1,103.2,141,103.4,139.8z"/>
	<path class="st0" d="M82.4,202.3c-0.5,1.1-1,2.1-1.5,3.1C81.3,204.4,81.9,203.4,82.4,202.3z"/>
	<path class="st0" d="M87.3,191.4c-0.7,1.6-1.3,3.1-2,4.7C86,194.5,86.6,193,87.3,191.4z"/>
	<path class="st0" d="M84.7,197.3c-0.5,1.2-1.1,2.3-1.6,3.5C83.7,199.6,84.2,198.4,84.7,197.3z"/>
	<path class="st0" d="M80,207c-0.6,1.2-1.2,2.3-1.8,3.5C78.9,209.4,79.5,208.2,80,207z"/>
	<path class="st0" d="M93,176.8c-0.4,1.2-0.8,2.4-1.3,3.5C92.2,179.1,92.6,177.9,93,176.8z"/>
	<path class="st0" d="M89.2,186.7c-0.5,1.2-1,2.5-1.6,3.7C88.2,189.2,88.7,188,89.2,186.7z"/>
	<path class="st0" d="M91.1,181.9c-0.4,1.1-0.8,2.2-1.3,3.2C90.3,184.1,90.7,183,91.1,181.9z"/>
	<path class="st0" d="M249.4,212.8c-0.5,0.8-1,1.5-1.6,2.3C248.4,214.3,249,213.6,249.4,212.8z"/>
	<path class="st0" d="M272.4,140.3c0,0.6,0,1.3,0,1.9C272.4,141.6,272.4,141,272.4,140.3z"/>
	<path class="st0" d="M272.4,136.8c0,0.7,0,1.4,0,2.1C272.4,138.2,272.4,137.6,272.4,136.8z"/>
	<path class="st0" d="M90.7,10.9c1.5-0.5,3-1,4.4-1.5C93.7,9.8,92.2,10.3,90.7,10.9z"/>
	<path class="st0" d="M272.3,133c0,0.9,0.1,1.8,0.1,2.7C272.4,134.8,272.4,133.9,272.3,133z"/>
	<path class="st0" d="M271.9,125.7c0.1,0.8,0.1,1.5,0.2,2.3C272,127.2,272,126.5,271.9,125.7z"/>
	<path class="st0" d="M272.2,129c0.1,1.1,0.1,2.2,0.2,3.3C272.3,131.2,272.2,130.1,272.2,129z"/>
	<path class="st0" d="M272,148.2c0,0.4-0.1,0.8-0.1,1.1C272,149,272,148.6,272,148.2z"/>
	<path class="st0" d="M271.6,122.4c0.1,0.7,0.1,1.3,0.2,2C271.7,123.7,271.6,123.1,271.6,122.4z"/>
	<path class="st0" d="M269.8,163.9c0,0.3-0.1,0.6-0.2,0.9C269.7,164.5,269.8,164.2,269.8,163.9z"/>
	<path class="st0" d="M269,167.8l-0.1,0.3L269,167.8z"/>
	<path class="st0" d="M270.4,160.6c-0.1,0.4-0.1,0.8-0.2,1.1C270.3,161.4,270.4,161,270.4,160.6z"/>
	<path class="st0" d="M271.4,154.4c0,0.4-0.1,0.8-0.2,1.2C271.3,155.2,271.3,154.8,271.4,154.4z"/>
	<path class="st0" d="M271.7,151.3c0,0.4-0.1,0.8-0.1,1.2C271.6,152.1,271.7,151.7,271.7,151.3z"/>
	<path class="st0" d="M271,157.5c-0.1,0.4-0.1,0.8-0.2,1.2C270.8,158.3,270.9,157.9,271,157.5z"/>
	<path class="st0" d="M267,99.7l0.5,1.7L267,99.7z"/>
	<path class="st0" d="M266.1,96.5c0.2,0.6,0.4,1.1,0.5,1.7C266.4,97.6,266.2,97.1,266.1,96.5z"/>
	<path class="st0" d="M263.9,90.2l0.6,1.7L263.9,90.2z"/>
	<path class="st0" d="M265,93.4c0.2,0.6,0.4,1.1,0.6,1.7C265.4,94.5,265.2,93.9,265,93.4z"/>
	<path class="st0" d="M151.5,3.2c1.4,0.1,2.7,0.3,4.1,0.5C154.2,3.5,152.9,3.4,151.5,3.2z"/>
	<path class="st0" d="M147.4,2.9c1.2,0.1,2.3,0.2,3.5,0.3C149.7,3.1,148.6,3,147.4,2.9z"/>
	<path class="st0" d="M142.4,2.6c1.3,0,2.5,0.1,3.8,0.2C145,2.7,143.7,2.6,142.4,2.6z"/>
	<path class="st0" d="M269.5,109.4c0.1,0.6,0.2,1.1,0.4,1.7C269.7,110.5,269.6,109.9,269.5,109.4z"/>
	<path class="st0" d="M270.1,112.6c0.1,0.6,0.2,1.2,0.3,1.7C270.3,113.8,270.2,113.2,270.1,112.6z"/>
	<path class="st0" d="M268.3,170.9c-0.1,0.3-0.2,0.7-0.3,1C268.1,171.5,268.2,171.2,268.3,170.9z"/>
	<path class="st0" d="M270.7,115.9c0.1,0.6,0.2,1.2,0.3,1.8C270.9,117.1,270.8,116.5,270.7,115.9z"/>
	<path class="st0" d="M271.2,119.1c0.1,0.6,0.2,1.2,0.2,1.8C271.3,120.4,271.2,119.8,271.2,119.1z"/>
	<path class="st0" d="M268.7,106.1c0.1,0.6,0.3,1.1,0.4,1.7C269,107.3,268.9,106.7,268.7,106.1z"/>
	<path class="st0" d="M267.9,102.9c0.1,0.6,0.3,1.1,0.4,1.7C268.2,104,268.1,103.5,267.9,102.9z"/>
	<path class="st0" d="M272.2,145.1l-0.1,0.9L272.2,145.1z"/>
	<path class="st0" d="M45.7,38.5c0.9-0.8,1.8-1.6,2.7-2.4C47.5,36.9,46.6,37.7,45.7,38.5z"/>
	<path class="st0" d="M57.9,28.4c1.3-1,2.6-1.9,3.9-2.8C60.5,26.5,59.2,27.5,57.9,28.4z"/>
	<path class="st0" d="M52.6,32.5c0.8-0.6,1.6-1.3,2.4-1.9C54.1,31.3,53.3,31.9,52.6,32.5z"/>
	<path class="st0" d="M36.2,48.2c0.8-1,1.7-1.9,2.6-2.8C37.9,46.3,37.1,47.2,36.2,48.2z"/>
	<path class="st0" d="M267.4,173.9c-0.1,0.4-0.2,0.8-0.3,1.1C267.2,174.6,267.3,174.2,267.4,173.9z"/>
	<path class="st0" d="M39,45.2c0.9-1,1.9-2,2.8-2.9C40.9,43.2,39.9,44.2,39,45.2z"/>
	<path class="st0" d="M48.7,35.8c1-0.9,2-1.8,3.1-2.6C50.7,34,49.7,34.9,48.7,35.8z"/>
	<path class="st0" d="M81.1,14.8c1.4-0.7,2.9-1.3,4.3-1.9C84,13.5,82.5,14.2,81.1,14.8z"/>
	<path class="st0" d="M62,25.6c1.3-0.9,2.7-1.8,4.1-2.6C64.7,23.8,63.3,24.7,62,25.6z"/>
	<path class="st0" d="M76,17.3c1.4-0.7,2.8-1.4,4.3-2.1C78.8,15.9,77.4,16.6,76,17.3z"/>
	<path class="st0" d="M86,12.7c1.4-0.6,2.8-1.1,4.2-1.6C88.7,11.6,87.3,12.1,86,12.7z"/>
	<path class="st0" d="M71.6,19.7c1.3-0.7,2.6-1.5,4-2.1C74.2,18.2,72.9,18.9,71.6,19.7z"/>
	<path class="st0" d="M66.8,22.4c1.3-0.8,2.7-1.6,4-2.4C69.5,20.8,68.2,21.6,66.8,22.4z"/>
	<path class="st0" d="M42.6,41.4c0.7-0.7,1.5-1.4,2.2-2.1C44.1,40,43.3,40.7,42.6,41.4z"/>
	<path class="st0" d="M263.4,186l-0.4,1.1L263.4,186z"/>
	<path class="st0" d="M264.6,182.9l-0.4,1.2L264.6,182.9z"/>
	<path class="st0" d="M259.8,194.6c-0.4,0.8-0.8,1.6-1.1,2.4C259,196.1,259.4,195.4,259.8,194.6z"/>
	<path class="st0" d="M258,198.1c-0.4,0.8-0.8,1.6-1.2,2.4C257.2,199.8,257.6,199,258,198.1z"/>
	<path class="st0" d="M265.6,179.9l-0.4,1.2L265.6,179.9z"/>
	<path class="st0" d="M266.6,176.9c-0.1,0.4-0.2,0.8-0.4,1.2C266.3,177.7,266.4,177.3,266.6,176.9z"/>
	<path class="st0" d="M247.2,216.1c-0.8,1.1-1.6,2.1-2.4,3.2C245.6,218.2,246.4,217.1,247.2,216.1z"/>
	<path class="st0" d="M33.5,51.5c0.7-0.8,1.3-1.6,2-2.3C34.8,49.9,34.1,50.7,33.5,51.5z"/>
	<path class="st0" d="M132.4,107.4c0.3-0.9,0.6-1.8,1-2.7C133,105.6,132.7,106.5,132.4,107.4z"/>
	<path class="st0" d="M30.1,55.7c0.8-1.1,1.7-2.2,2.6-3.3C31.8,53.5,31,54.6,30.1,55.7z"/>
	<path class="st0" d="M251.7,209.4c-0.5,0.8-1,1.5-1.5,2.3C250.7,210.9,251.2,210.1,251.7,209.4z"/>
	<path class="st0" d="M254.2,205.2c-0.6,1-1.2,2.1-1.9,3.1C253,207.3,253.6,206.2,254.2,205.2z"/>
	<path class="st0" d="M256.2,201.6c-0.6,1.1-1.2,2.2-1.9,3.4C255,203.9,255.6,202.7,256.2,201.6z"/>
	<path class="st0" d="M66,215.1c0.2-0.9,0.4-1.7,0.6-2.6C66.4,213.4,66.2,214.2,66,215.1z"/>
	<path class="st0" d="M113.3,181.5l2.7-2.5L113.3,181.5z"/>
	<path class="st0" d="M108,186.4c0.9-0.9,1.8-1.8,2.8-2.6C109.9,184.6,109,185.5,108,186.4z"/>
	<path class="st0" d="M118.5,176.7l2.7-2.4L118.5,176.7z"/>
	<path class="st0" d="M260.3,193.4c0.3-0.8,0.7-1.5,1-2.3l0,0C261,191.9,260.6,192.7,260.3,193.4z"/>
	<path class="st0" d="M123.8,172.1l2.7-2.3L123.8,172.1z"/>
	<path class="st0" d="M102.6,191.7c1-1,2-2,3.1-3C104.7,189.6,103.7,190.6,102.6,191.7z"/>
	<path class="st0" d="M129.1,167.5l2.7-2.2L129.1,167.5z"/>
	<path class="st0" d="M91,203.7c1.1-1.2,2.3-2.4,3.4-3.6C93.2,201.2,92.1,202.4,91,203.7z"/>
	<path class="st0" d="M163,165.7l1.2-0.5L163,165.7z"/>
	<path class="st0" d="M272.3,142.5"/>
	<path class="st0" d="M28.8,57.4L28.8,57.4c1,1.2,2,2.5,3,3.8C30.8,59.9,29.8,58.7,28.8,57.4z"/>
	<path class="st0" d="M76.6,219.7c0.9-1.1,1.8-2.1,2.7-3.1C78.4,217.6,77.5,218.6,76.6,219.7z"/>
	<path class="st0" d="M81.3,214.2l2.8-3.1L81.3,214.2z"/>
	<path class="st0" d="M134.4,163.1c0.9-0.7,1.8-1.4,2.7-2.2C136.2,161.6,135.3,162.4,134.4,163.1z"/>
	<path class="st0" d="M86.1,208.9l3-3.2L86.1,208.9z"/>
	<path class="st0" d="M241.7,146.1l3.1-0.3L241.7,146.1z"/>
	<path class="st0" d="M198,153.9c1.1-0.3,2.2-0.6,3.2-0.8C200.1,153.3,199.1,153.6,198,153.9z"/>
	<path class="st0" d="M190.9,155.9l3.2-0.9L190.9,155.9z"/>
	<path class="st0" d="M205.2,152.1c1.1-0.3,2.2-0.5,3.3-0.7C207.3,151.6,206.2,151.8,205.2,152.1z"/>
	<path class="st0" d="M169.9,162.9c0.9-0.3,1.7-0.6,2.6-1C171.6,162.3,170.7,162.6,169.9,162.9z"/>
	<path class="st0" d="M183.8,158c1-0.3,2.1-0.6,3.1-0.9C185.9,157.4,184.8,157.7,183.8,158z"/>
	<path class="st0" d="M212.4,150.5c1.1-0.2,2.2-0.4,3.3-0.7C214.6,150.1,213.5,150.3,212.4,150.5z"/>
	<path class="st0" d="M176.8,160.4c1-0.4,1.9-0.7,2.9-1C178.8,159.7,177.8,160,176.8,160.4z"/>
	<path class="st0" d="M234.3,146.9l3.2-0.4L234.3,146.9z"/>
	<path class="st0" d="M257.1,145.1l2.4-0.1L257.1,145.1z"/>
	<path class="st0" d="M219.6,149.1c1.1-0.2,2.2-0.4,3.3-0.6C221.8,148.7,220.7,148.9,219.6,149.1z"/>
	<path class="st0" d="M243.2,221.3l1.6-2L243.2,221.3L243.2,221.3z"/>
	<path class="st0" d="M249.3,145.6c1-0.1,1.9-0.1,2.9-0.2C251.2,145.4,250.2,145.5,249.3,145.6z"/>
	<path class="st0" d="M262.7,87.1c-17.7-44.1-57.3-75.6-104.2-83c-7.6,71.5-32.1,140.1-71.5,200.2
		C135.4,151.9,195.6,111.7,262.7,87.1z"/>
	<path class="st0" d="M227,147.9l3.3-0.5L227,147.9z"/>
	<path class="st0" d="M139.9,158.7l2.7-2.1L139.9,158.7z"/>
	<path class="st0" d="M95.8,198.5c1.6-1.7,3.2-3.3,4.9-4.9C99.1,195.2,97.5,196.9,95.8,198.5z"/>
	<path class="st0" d="M101,139.2c0.1-0.6,0.2-1.2,0.4-1.9C101.2,137.9,101.1,138.5,101,139.2z"/>
	<path class="st0" d="M99.9,144.1l0.4-1.6L99.9,144.1z"/>
	<path class="st0" d="M102,134.1c0.1-0.6,0.2-1.3,0.3-1.9C102.2,132.9,102.1,133.5,102,134.1z"/>
	<path class="st0" d="M102.8,129.1l0.3-1.8L102.8,129.1z"/>
	<path class="st0" d="M104.5,117.2c0-0.2,0-0.3,0-0.5C104.6,116.9,104.5,117.1,104.5,117.2z"/>
	<path class="st0" d="M98.8,149c0.1-0.2,0.1-0.5,0.2-0.7C98.9,148.6,98.8,148.8,98.8,149z"/>
	<path class="st0" d="M103.7,123.7c0.1-0.5,0.2-1,0.2-1.5C103.8,122.7,103.7,123.2,103.7,123.7z"/>
	<path class="st0" d="M95.6,160.6c0.2-0.6,0.3-1.2,0.5-1.8C96,159.5,95.8,160.1,95.6,160.6z"/>
	<path class="st0" d="M90.9,175.4c0.2-0.6,0.4-1.1,0.6-1.7C91.3,174.3,91.1,174.9,90.9,175.4z"/>
	<path class="st0" d="M89.1,180.2c0.1-0.3,0.2-0.6,0.3-0.9C89.3,179.6,89.2,179.9,89.1,180.2z"/>
	<path class="st0" d="M86.8,186.2l0.5-1.2L86.8,186.2z"/>
	<path class="st0" d="M92.5,170.6l0.6-1.8L92.5,170.6z"/>
	<path class="st0" d="M97.1,155.3c0.1-0.4,0.2-0.9,0.4-1.3C97.4,154.4,97.3,154.9,97.1,155.3z"/>
	<path class="st0" d="M105.1,112.3c0.1-0.6,0.1-1.1,0.2-1.7C105.2,111.2,105.1,111.7,105.1,112.3z"/>
	<path class="st0" d="M94.1,165.6l0.6-1.9L94.1,165.6z"/>
	<path class="st0" d="M84.5,191.5c0.2-0.6,0.5-1.1,0.7-1.7C85,190.3,84.8,190.9,84.5,191.5z"/>
	<path class="st0" d="M57.5,28.7L57.5,28.7c0.9,1.5,1.8,3.1,2.7,4.6C59.3,31.8,58.4,30.2,57.5,28.7z"/>
	<path class="st0" d="M101.2,32.4c0-0.2-0.1-0.3-0.1-0.5C101.2,32.1,101.2,32.2,101.2,32.4z"/>
	<path class="st0" d="M104.8,55.4c0-0.5-0.1-0.9-0.2-1.4C104.7,54.4,104.7,54.9,104.8,55.4z"/>
	<path class="st0" d="M103.8,47.9c0-0.3-0.1-0.5-0.1-0.8C103.8,47.3,103.8,47.6,103.8,47.9z"/>
	<path class="st0" d="M99.8,25.7l-0.3-1.4L99.8,25.7z"/>
	<path class="st0" d="M96,10.9c-0.1-0.4-0.2-0.8-0.3-1.1C95.8,10.1,96,10.5,96,10.9z"/>
	<path class="st0" d="M98,17.8l-0.3-1.1L98,17.8z"/>
	<path class="st0" d="M102.7,40.5c-0.1-0.5-0.2-1-0.3-1.5C102.5,39.5,102.6,40,102.7,40.5z"/>
	<path class="st0" d="M106.3,91.8c0-0.5,0-1.1,0-1.6C106.4,90.7,106.4,91.3,106.3,91.8z"/>
	<path class="st0" d="M106.2,97.1l0.1-1.9L106.2,97.1z"/>
	<path class="st0" d="M105.5,63.2c0-0.4-0.1-0.9-0.1-1.3C105.5,62.4,105.5,62.8,105.5,63.2z"/>
	<path class="st0" d="M105.9,102.2l0.1-2L105.9,102.2z"/>
	<path class="st0" d="M106,70.3l-0.1-1L106,70.3z"/>
	<path class="st0" d="M106.3,78.4c0-0.5,0-1,0-1.5C106.3,77.4,106.3,77.9,106.3,78.4z"/>
	<path class="st0" d="M105.5,107.2c0-0.6,0.1-1.3,0.1-1.9C105.6,106,105.6,106.6,105.5,107.2z"/>
	<path class="st0" d="M221.2,146.3c2.3-0.4,4.7-0.8,7-1.1C225.9,145.5,223.5,145.9,221.2,146.3z"/>
	<path class="st0" d="M230.5,144.9c1.6-0.2,3.2-0.4,4.9-0.6C233.7,144.5,232.1,144.7,230.5,144.9z"/>
	<path class="st0" d="M238,144c1.5-0.2,3-0.3,4.5-0.4C241,143.7,239.5,143.8,238,144z"/>
	<path class="st0" d="M214.1,147.6c2-0.4,4-0.8,6-1.1C218.2,146.8,216.1,147.2,214.1,147.6z"/>
	<path class="st0" d="M200.1,150.8c1.4-0.4,2.8-0.7,4.2-1C202.9,150.1,201.5,150.4,200.1,150.8z"/>
	<path class="st0" d="M207.1,149.1c1.5-0.3,3-0.6,4.5-1C210.1,148.4,208.6,148.7,207.1,149.1z"/>
	<path class="st0" d="M245.3,143.3c1.5-0.1,3-0.2,4.5-0.3C248.3,143.1,246.8,143.2,245.3,143.3z"/>
	<path class="st0" d="M153.9,169.7c0.8-0.4,1.6-0.7,2.4-1.1C155.4,169,154.7,169.3,153.9,169.7z"/>
	<path class="st0" d="M78.9,221.1c0.7-0.7,1.4-1.3,2-2C80.3,219.9,79.6,220.5,78.9,221.1z"/>
	<path class="st0" d="M252.5,142.8c1.6-0.1,3.2-0.1,4.9-0.2C255.8,142.7,254.2,142.8,252.5,142.8z"/>
	<path class="st0" d="M73.4,226.6l1-1L73.4,226.6z"/>
	<path class="st0" d="M193,152.6c1.4-0.4,2.8-0.8,4.2-1.2C195.8,151.9,194.4,152.2,193,152.6z"/>
	<path class="st0" d="M259.7,142.6c2.4-0.1,4.8-0.1,7.2-0.1C264.5,142.4,262.1,142.5,259.7,142.6z"/>
	<path class="st0" d="M266.9,142.4L266.9,142.4z"/>
	<path class="st0" d="M76.6,220c-0.4,0.4-0.7,0.7-1.1,1.1l-0.1,0.1l0,0l-0.1,0.1C75.7,220.8,76.1,220.4,76.6,220z"/>
	<path class="st0" d="M102.8,197.3c1.4-1.1,2.9-2.2,4.4-3.2C105.7,195.1,104.3,196.2,102.8,197.3z"/>
	<path class="st0" d="M109.5,192.5c1.2-0.9,2.5-1.8,3.8-2.6C112,190.7,110.7,191.6,109.5,192.5z"/>
	<path class="st0" d="M115.7,188.2c1.2-0.8,2.4-1.6,3.7-2.4C118.2,186.6,116.9,187.4,115.7,188.2z"/>
	<path class="st0" d="M128.1,180.3c1.5-0.9,3-1.8,4.5-2.6C131.2,178.6,129.6,179.4,128.1,180.3z"/>
	<path class="st0" d="M89.8,207.8c1.3-1.2,2.7-2.3,4.1-3.4C92.5,205.5,91.2,206.6,89.8,207.8z"/>
	<path class="st0" d="M134.5,176.7c2.1-1.1,4.2-2.3,6.3-3.4C138.6,174.4,136.5,175.6,134.5,176.7z"/>
	<path class="st0" d="M95.5,203c1.9-1.5,3.8-3.1,5.8-4.5C99.4,200,97.4,201.5,95.5,203z"/>
	<path class="st0" d="M135.1,99.4c0.3-1,0.6-2,1-2.9C135.8,97.5,135.4,98.4,135.1,99.4z"/>
	<path class="st0" d="M78.7,217.9c1.1-1.1,2.2-2.2,3.4-3.2C80.9,215.8,79.8,216.9,78.7,217.9z"/>
	<path class="st0" d="M176.7,157.8c2.2-0.8,4.5-1.5,6.7-2.2C181.2,156.2,178.9,157,176.7,157.8z"/>
	<path class="st0" d="M142.8,172.3c1.5-0.8,3-1.5,4.5-2.2C145.7,170.8,144.2,171.6,142.8,172.3z"/>
	<path class="st0" d="M170,160.2c1.7-0.6,3.4-1.3,5.1-1.9C173.3,159,171.6,159.6,170,160.2z"/>
	<path class="st0" d="M185.6,154.8c1.5-0.5,3.1-1,4.6-1.4C188.7,153.9,187.2,154.4,185.6,154.8z"/>
	<path class="st0" d="M149.8,168.8c1.3-0.6,2.6-1.2,4-1.9C152.4,167.6,151.1,168.2,149.8,168.8z"/>
	<path class="st0" d="M163.2,162.9c1.4-0.6,2.8-1.1,4.2-1.6C166,161.8,164.6,162.3,163.2,162.9z"/>
	<path class="st0" d="M156.5,165.8c1.3-0.6,2.6-1.1,3.9-1.7C159.1,164.6,157.8,165.2,156.5,165.8z"/>
	<path class="st0" d="M84.2,212.7c1.2-1.1,2.3-2.1,3.5-3.1C86.6,210.6,85.4,211.7,84.2,212.7z"/>
	<path class="st0" d="M84.5,215.9c0.8-0.7,1.6-1.4,2.4-2.1C86.1,214.4,85.3,215.1,84.5,215.9z"/>
	<path class="st0" d="M90.2,210.8c0.8-0.7,1.7-1.4,2.6-2.2C91.9,209.3,91,210,90.2,210.8z"/>
	<path class="st0" d="M96,205.9l2.7-2.1L96,205.9z"/>
	<path class="st0" d="M159.1,144.4c0.9-0.6,1.8-1.3,2.7-1.9C160.9,143.1,160,143.7,159.1,144.4z"/>
	<path class="st0" d="M102,201.1c0.9-0.7,1.8-1.4,2.8-2.1C103.8,199.7,102.9,200.4,102,201.1z"/>
	<path class="st0" d="M153.4,148.4c0.9-0.7,1.8-1.3,2.7-2C155.2,147.1,154.3,147.8,153.4,148.4z"/>
	<path class="st0" d="M257.5,91.7c1.4-0.6,2.9-1.1,4.3-1.6C260.4,90.6,259,91.1,257.5,91.7z"/>
	<path class="st0" d="M145.3,154.5c0.9-0.7,1.9-1.4,2.8-2.1C147.2,153,146.3,153.7,145.3,154.5z"/>
	<path class="st0" d="M108,196.6c0.9-0.7,1.9-1.4,2.8-2C109.9,195.2,109,195.9,108,196.6z"/>
	<path class="st0" d="M146.8,173.1c0.9-0.5,1.8-0.9,2.8-1.4C148.6,172.2,147.7,172.6,146.8,173.1z"/>
	<path class="st0" d="M133.4,180.2c1-0.6,2-1.1,2.9-1.6C135.3,179.1,134.3,179.7,133.4,180.2z"/>
	<path class="st0" d="M140,176.6c1-0.5,1.9-1,2.9-1.5C141.9,175.6,141,176.1,140,176.6z"/>
	<path class="st0" d="M114.2,192.2l2.9-2L114.2,192.2z"/>
	<path class="st0" d="M120.5,188l2.9-1.9L120.5,188z"/>
	<path class="st0" d="M126.9,184c1-0.6,1.9-1.2,2.9-1.8C128.8,182.9,127.8,183.4,126.9,184z"/>
	<path class="st0" d="M164.7,140.4l2.7-1.9L164.7,140.4z"/>
	<path class="st0" d="M232.5,102.2l3.4-1.5L232.5,102.2z"/>
	<path class="st0" d="M226.4,105l3.3-1.6L226.4,105z"/>
	<path class="st0" d="M220.2,108l3.3-1.6L220.2,108z"/>
	<path class="st0" d="M251.2,94.2l3.7-1.5L251.2,94.2z"/>
	<path class="st0" d="M214,111.2l3.5-1.8L214,111.2z"/>
	<path class="st0" d="M170.4,136.6l2.7-1.8L170.4,136.6z"/>
	<path class="st0" d="M238.7,99.4l3.4-1.5L238.7,99.4z"/>
	<path class="st0" d="M245,96.7l3.6-1.5L245,96.7z"/>
	<path class="st0" d="M182,129.2l2.8-1.7L182,129.2z"/>
	<path class="st0" d="M205.5,115.6c1.9-1,3.9-2.1,5.8-3.1C209.4,113.5,207.4,114.5,205.5,115.6z"/>
	<path class="st0" d="M176.2,132.9c0.9-0.6,1.8-1.2,2.8-1.8C178,131.7,177.1,132.3,176.2,132.9z"/>
	<path class="st0" d="M187.8,125.7c1-0.6,1.9-1.2,2.9-1.7C189.7,124.5,188.7,125.1,187.8,125.7z"/>
	<path class="st0" d="M199.6,118.8c1.1-0.6,2.2-1.2,3.3-1.8C201.8,117.6,200.7,118.2,199.6,118.8z"/>
	<path class="st0" d="M193.6,122.2l3-1.7L193.6,122.2z"/>
	<path class="st0" d="M121.9,184.1c1.3-0.8,2.6-1.6,3.8-2.4C124.5,182.6,123.2,183.4,121.9,184.1z"/>
	<path class="st0" d="M81.4,183.2c0.1-0.4,0.2-0.8,0.3-1.2C81.6,182.4,81.5,182.8,81.4,183.2z"/>
	<path class="st0" d="M80.1,188.6l0.3-1.3L80.1,188.6z"/>
	<path class="st0" d="M59.8,112.9c-0.5-1.5-1.1-2.9-1.6-4.4C58.8,110,59.3,111.4,59.8,112.9z"/>
	<path class="st0" d="M78.5,194.3l0.2-0.6L78.5,194.3z"/>
	<path class="st0" d="M84.8,165.3c0-0.1,0-0.2,0.1-0.4C84.8,165.1,84.8,165.2,84.8,165.3z"/>
	<path class="st0" d="M81.5,88.6c-0.4-1.7-0.8-3.4-1.2-5.1C80.7,85.2,81.1,86.9,81.5,88.6z"/>
	<path class="st0" d="M76.7,200.2l0.4-1.4L76.7,200.2z"/>
	<path class="st0" d="M85.5,159.8l0.2-1.4L85.5,159.8z"/>
	<path class="st0" d="M82.8,176.8c0.1-0.3,0.1-0.6,0.2-0.9C83,176.3,82.9,176.6,82.8,176.8z"/>
	<path class="st0" d="M83.8,171.6c0.1-0.5,0.2-0.9,0.2-1.4C84,170.6,83.9,171.1,83.8,171.6z"/>
	<path class="st0" d="M61.3,40.8L60.9,40L61.3,40.8z"/>
	<path class="st0" d="M66.3,51.2l-0.4-0.9L66.3,51.2z"/>
	<path class="st0" d="M63.7,45.6l-0.1-0.2L63.7,45.6z"/>
	<path class="st0" d="M68.7,56.8c-0.1-0.3-0.3-0.7-0.4-1C68.5,56.2,68.6,56.5,68.7,56.8z"/>
	<path class="st0" d="M70.6,216.8l0.5-1.2L70.6,216.8z"/>
	<path class="st0" d="M58.5,35.5L58,34.6L58.5,35.5z"/>
	<path class="st0" d="M72.7,211.6l0.5-1.3L72.7,211.6z"/>
	<path class="st0" d="M75,205.3c0.1-0.2,0.1-0.4,0.2-0.6C75.1,204.9,75.1,205.1,75,205.3z"/>
	<path class="st0" d="M68,222.5c0.1-0.3,0.3-0.6,0.4-0.9C68.3,221.9,68.2,222.2,68,222.5z"/>
	<path class="st0" d="M86.1,118c-0.1-1.7-0.3-3.4-0.5-5.1C85.8,114.6,86,116.3,86.1,118z"/>
	<path class="st0" d="M62.8,122.2c-0.3-1.1-0.7-2.3-1-3.4C62.1,119.9,62.5,121.1,62.8,122.2z"/>
	<path class="st0" d="M69.1,153.1c-0.1-1.2-0.3-2.3-0.4-3.5C68.8,150.7,69,151.9,69.1,153.1z"/>
	<path class="st0" d="M57.7,107.2c-0.4-1.1-0.9-2.2-1.3-3.3C56.9,105,57.3,106.1,57.7,107.2z"/>
	<path class="st0" d="M86.5,123.5c-0.1-1.8-0.2-3.5-0.4-5.3C86.3,120,86.4,121.8,86.5,123.5z"/>
	<path class="st0" d="M85.5,112c-0.2-1.7-0.4-3.4-0.7-5.1C85.1,108.6,85.3,110.3,85.5,112z"/>
	<path class="st0" d="M83.8,100.3c-0.3-1.7-0.6-3.3-0.9-5C83.2,97,83.6,98.7,83.8,100.3z"/>
	<path class="st0" d="M67.7,143.5c-0.3-1.6-0.6-3.1-0.8-4.6C67.2,140.4,67.5,141.9,67.7,143.5z"/>
	<path class="st0" d="M82.8,94.6c-0.3-1.7-0.7-3.4-1.1-5.1C82.1,91.2,82.4,92.9,82.8,94.6z"/>
	<path class="st0" d="M84.7,105.9c-0.2-1.7-0.5-3.4-0.8-5.2C84.2,102.5,84.5,104.2,84.7,105.9z"/>
	<path class="st0" d="M68.5,148.2c-0.2-1.6-0.5-3.1-0.7-4.7C68,145.1,68.3,146.6,68.5,148.2z"/>
	<path class="st0" d="M86.5,147.9c0-0.4,0-0.7,0.1-1.1C86.6,147.1,86.6,147.5,86.5,147.9z"/>
	<path class="st0" d="M86.1,154.2c0-0.4,0.1-0.8,0.1-1.2C86.1,153.4,86.1,153.8,86.1,154.2z"/>
	<path class="st0" d="M65.6,132.7c-0.4-1.5-0.7-3.1-1.1-4.6C64.9,129.6,65.2,131.2,65.6,132.7z"/>
	<path class="st0" d="M64.4,128.1c-0.4-1.5-0.8-3-1.2-4.5C63.6,125,64.1,126.5,64.4,128.1z"/>
	<path class="st0" d="M86.8,129.6c0-1.7-0.1-3.4-0.2-5.1C86.7,126.2,86.7,127.9,86.8,129.6z"/>
	<path class="st0" d="M66.6,137.5c-0.2-1.2-0.5-2.3-0.7-3.5C66.1,135.2,66.4,136.3,66.6,137.5z"/>
	<path class="st0" d="M86.9,135.9c0-1.8,0-3.6-0.1-5.3C86.8,132.3,86.9,134.1,86.9,135.9z"/>
	<path class="st0" d="M82.4,196.3c0.3-0.6,0.6-1.2,0.8-1.8C83,195.1,82.7,195.7,82.4,196.3z"/>
	<path class="st0" d="M86.8,142.5c0-0.5,0-1,0-1.4C86.8,141.6,86.8,142.1,86.8,142.5z"/>
	<path class="st0" d="M61.4,117.5c-0.5-1.5-1-3-1.5-4.5C60.4,114.5,60.9,116,61.4,117.5z"/>
	<path class="st0" d="M72.4,205.3c0.6-1.7,1.2-3.3,1.7-5C73.5,201.9,73,203.6,72.4,205.3z"/>
	<path class="st0" d="M51.4,92.7c-0.5-1.1-1.1-2.1-1.6-3.2C50.3,90.5,50.8,91.6,51.4,92.7z"/>
	<path class="st0" d="M74.4,199.1c0.4-1.4,0.9-2.7,1.3-4.1C75.3,196.4,74.9,197.8,74.4,199.1z"/>
	<path class="st0" d="M49.1,88.2c-0.7-1.4-1.5-2.8-2.3-4.2C47.6,85.4,48.4,86.8,49.1,88.2z"/>
	<path class="st0" d="M54,98.2c-0.6-1.4-1.3-2.8-2-4.2C52.6,95.3,53.3,96.7,54,98.2z"/>
	<path class="st0" d="M77.7,188c0.4-1.5,0.8-3,1.1-4.5C78.5,185,78.1,186.4,77.7,188z"/>
	<path class="st0" d="M80.3,176.8c0.3-1.7,0.7-3.4,1-5.1C81,173.4,80.6,175.1,80.3,176.8z"/>
	<path class="st0" d="M70.4,210.4c0.5-1.3,1-2.7,1.5-4C71.4,207.8,71,209.1,70.4,210.4z"/>
	<path class="st0" d="M76.1,193.7c0.5-1.7,1-3.4,1.4-5.1C77.1,190.3,76.6,192,76.1,193.7z"/>
	<path class="st0" d="M79.2,182c0.3-1.6,0.7-3.1,1-4.6C79.9,178.9,79.5,180.4,79.2,182z"/>
	<path class="st0" d="M34.8,65.2c-0.7-1-1.4-1.9-2.2-2.9C33.4,63.3,34.1,64.2,34.8,65.2z"/>
	<path class="st0" d="M46.8,83.9c-0.8-1.4-1.5-2.7-2.3-4C45.2,81.2,46,82.5,46.8,83.9z"/>
	<path class="st0" d="M62.8,227.7c0.8-1.6,1.5-3.1,2.3-4.7C64.3,224.6,63.6,226.2,62.8,227.7z"/>
	<path class="st0" d="M38.3,70.2c-0.9-1.3-1.8-2.5-2.7-3.8C36.6,67.6,37.5,68.9,38.3,70.2z"/>
	<path class="st0" d="M63,227c-0.1,0.3-0.2,0.6-0.3,1v-0.1C62.8,227.6,62.9,227.3,63,227z"/>
	<path class="st0" d="M41.1,74.4c-0.9-1.3-1.8-2.7-2.7-4C39.3,71.7,40.2,73,41.1,74.4z"/>
	<path class="st0" d="M72.8,67.5l-0.3-0.9L72.8,67.5z"/>
	<path class="st0" d="M67.9,216.7c0.7-1.6,1.3-3.3,2-4.9C69.3,213.4,68.6,215.1,67.9,216.7z"/>
	<path class="st0" d="M65.7,221.7c0.6-1.4,1.3-2.8,1.9-4.2C67,218.9,66.3,220.3,65.7,221.7z"/>
	<path class="st0" d="M43.7,78.6c-0.6-1-1.2-2-1.9-3.1C42.5,76.6,43.1,77.6,43.7,78.6z"/>
	<path class="st0" d="M81.5,101.2l-0.1-0.7L81.5,101.2z"/>
	<path class="st0" d="M79.3,90.2L79,89.1L79.3,90.2z"/>
	<path class="st0" d="M80.5,95.9l-0.2-0.8L80.5,95.9z"/>
	<path class="st0" d="M82.4,107.3l-0.2-1L82.4,107.3z"/>
	<path class="st0" d="M83.1,113.2c0-0.3-0.1-0.6-0.1-0.9C83.1,112.6,83.1,112.9,83.1,113.2z"/>
	<path class="st0" d="M55.9,102.6c-0.6-1.5-1.3-2.9-1.9-4.4C54.7,99.7,55.3,101.2,55.9,102.6z"/>
	<path class="st0" d="M74.7,73.3c-0.1-0.3-0.2-0.7-0.3-1.1C74.5,72.6,74.6,73,74.7,73.3z"/>
	<path class="st0" d="M76.4,78.8c-0.1-0.2-0.1-0.4-0.2-0.6C76.3,78.4,76.3,78.6,76.4,78.8z"/>
	<path class="st0" d="M77.8,84.2c-0.1-0.3-0.1-0.6-0.2-0.8C77.7,83.7,77.8,84,77.8,84.2z"/>
	<path class="st0" d="M82.3,164.9c0.2-1.7,0.5-3.4,0.7-5.1C82.8,161.5,82.6,163.2,82.3,164.9z"/>
	<path class="st0" d="M83.7,153c0.2-1.7,0.3-3.4,0.4-5.2C84,149.6,83.8,151.3,83.7,153z"/>
	<path class="st0" d="M83.1,158.6c0.2-1.4,0.3-2.8,0.4-4.2C83.4,155.8,83.3,157.1,83.1,158.6z"/>
	<path class="st0" d="M81.5,170.3c0.2-1.4,0.5-2.8,0.7-4.2C82,167.4,81.7,168.9,81.5,170.3z"/>
	<path class="st0" d="M84.1,147c0.1-1.5,0.1-3,0.2-4.4C84.2,144,84.1,145.5,84.1,147z"/>
	<path class="st0" d="M84.1,124.6l-0.1-1L84.1,124.6z"/>
	<path class="st0" d="M83.6,118.5v-0.4V118.5z"/>
	<path class="st0" d="M84.3,141.1c0-1.7,0.1-3.5,0.1-5.2C84.4,137.6,84.3,139.4,84.3,141.1z"/>
	<path class="st0" d="M84.3,130.6v-0.9V130.6z"/>
	<path class="st0" d="M70.8,62l-0.1-0.3L70.8,62z"/>
	<path class="st0" d="M69.5,221.2c0.3-0.5,0.6-1.1,1-1.6C70.1,220.1,69.8,220.7,69.5,221.2z"/>
	<path class="st0" d="M66.7,225.9l1.1-1.8L66.7,225.9z"/>
	<path class="st0" d="M66.1,226.6l-0.3,0.7v-0.1C66,227,66,226.8,66.1,226.6z"/>
	<path class="st0" d="M63.1,38.8c-0.8-1.5-1.6-3.1-2.5-4.6C61.5,35.7,62.3,37.2,63.1,38.8z"/>
	<path class="st0" d="M69.2,196.1c0.1-0.7,0.2-1.4,0.2-2.1C69.3,194.8,69.3,195.4,69.2,196.1z"/>
	<path class="st0" d="M66.8,211.6c0.2-1.2,0.5-2.3,0.7-3.5C67.2,209.3,67,210.5,66.8,211.6z"/>
	<path class="st0" d="M67.5,207.4c0.2-0.9,0.3-1.9,0.5-2.8C67.9,205.6,67.7,206.5,67.5,207.4z"/>
	<path class="st0" d="M68.2,203.4c0.1-0.8,0.2-1.5,0.3-2.3C68.4,201.9,68.3,202.6,68.2,203.4z"/>
	<path class="st0" d="M68.7,199.7c0.1-0.7,0.2-1.4,0.3-2.1C69,198.3,68.8,199,68.7,199.7z"/>
	<path class="st0" d="M69.6,192.6c0.1-0.7,0.1-1.4,0.2-2.1C69.7,191.2,69.6,191.9,69.6,192.6z"/>
	<path class="st0" d="M66,44.4c-0.8-1.6-1.6-3.2-2.4-4.8C64.3,41.2,65.1,42.8,66,44.4z"/>
	<path class="st0" d="M70.3,182c0-0.8,0-1.6,0.1-2.4C70.3,180.4,70.3,181.2,70.3,182z"/>
	<path class="st0" d="M70.4,178.4c0-1.2,0-2.4,0-3.5C70.4,176.1,70.4,177.3,70.4,178.4z"/>
	<path class="st0" d="M70.6,54.9c-0.7-1.6-1.4-3.2-2.1-4.8C69.3,51.7,70,53.3,70.6,54.9z"/>
	<path class="st0" d="M73,60.7c-0.6-1.7-1.3-3.3-2-4.9C71.7,57.4,72.3,59.1,73,60.7z"/>
	<path class="st0" d="M138,2.5c1.4,0,2.7,0,4.1,0.1C140.7,2.5,139.4,2.5,138,2.5z"/>
	<path class="st0" d="M68.2,49.4c-0.7-1.6-1.5-3.2-2.2-4.8C66.8,46.1,67.5,47.8,68.2,49.4z"/>
	<path class="st0" d="M70.1,185.5c0-0.7,0.1-1.4,0.1-2.2C70.2,184.1,70.1,184.8,70.1,185.5z"/>
	<path class="st0" d="M69.9,189c0-0.7,0.1-1.4,0.1-2.1C70,187.6,69.9,188.3,69.9,189z"/>
	<path class="st0" d="M75.5,210.4c0.2-0.4,0.4-0.8,0.6-1.2C75.9,209.6,75.7,210,75.5,210.4z"/>
	<path class="st0" d="M137.8,91.1c0.3-0.8,0.5-1.7,0.8-2.6C138.4,89.4,138.1,90.2,137.8,91.1z"/>
	<path class="st0" d="M141,80.7c0.1-0.5,0.3-1,0.4-1.5C141.2,79.7,141.1,80.2,141,80.7z"/>
	<path class="st0" d="M65.2,218.6l0.5-2.2L65.2,218.6z"/>
	<path class="st0" d="M145.3,64.5c0.2-1,0.5-1.9,0.7-2.9C145.7,62.6,145.5,63.6,145.3,64.5z"/>
	<path class="st0" d="M72.4,216.1l0.6-1L72.4,216.1z"/>
	<path class="st0" d="M80.2,201.1l0.8-1.8L80.2,201.1z"/>
	<path class="st0" d="M77.9,205.8c0.3-0.6,0.6-1.1,0.8-1.7C78.4,204.7,78.2,205.2,77.9,205.8z"/>
	<path class="st0" d="M74.9,65.9c-0.6-1.6-1.2-3.2-1.8-4.9C73.7,62.7,74.3,64.3,74.9,65.9z"/>
	<path class="st0" d="M147.3,55.8c0.2-0.7,0.4-1.5,0.5-2.2C147.7,54.3,147.5,55.1,147.3,55.8z"/>
	<path class="st0" d="M143.2,72.7c0.2-0.9,0.5-1.9,0.7-2.8C143.7,70.8,143.4,71.8,143.2,72.7z"/>
	<path class="st0" d="M80.1,82.9c-0.4-1.6-0.9-3.3-1.3-4.9C79.2,79.6,79.7,81.3,80.1,82.9z"/>
	<path class="st0" d="M73.4,219.6l0.1-0.1l-0.3,0.4c0.5-0.9,1-1.7,1.4-2.6c-0.5,0.9-1,1.8-1.5,2.7L73.4,219.6z"/>
	<path class="st0" d="M149.5,45.6c0.1-0.7,0.2-1.3,0.4-1.9C149.8,44.3,149.7,45,149.5,45.6z"/>
	<path class="st0" d="M64.3,222.1c0.2-0.7,0.4-1.4,0.5-2.1C64.7,220.7,64.5,221.4,64.3,222.1z"/>
	<path class="st0" d="M155.3,10.1c0.1-0.7,0.2-1.5,0.2-2.2C155.4,8.7,155.3,9.4,155.3,10.1z"/>
	<path class="st0" d="M154,19.9c0.1-0.6,0.2-1.1,0.2-1.7C154.1,18.8,154,19.4,154,19.9z"/>
	<path class="st0" d="M151.1,37.5c0.2-0.9,0.3-1.9,0.5-2.8C151.4,35.6,151.3,36.5,151.1,37.5z"/>
	<path class="st0" d="M152.5,29.1c0.1-0.9,0.3-1.8,0.4-2.7C152.8,27.3,152.7,28.2,152.5,29.1z"/>
	<path class="st0" d="M63.4,225.5c0.2-0.7,0.4-1.3,0.5-2C63.8,224.2,63.6,224.8,63.4,225.5z"/>
	<path class="st0" d="M70.1,163.9c-0.1-1.6-0.2-3.1-0.3-4.7C69.9,160.7,70,162.3,70.1,163.9z"/>
	<path class="st0" d="M69.7,159.1c-0.1-1.6-0.3-3.1-0.5-4.7C69.4,156,69.6,157.6,69.7,159.1z"/>
	<path class="st0" d="M78.6,77.5c-0.5-1.7-1-3.4-1.5-5C77.6,74.1,78.1,75.8,78.6,77.5z"/>
	<path class="st0" d="M70.4,174.9c0-1.6,0-3.2-0.1-4.7C70.4,171.8,70.4,173.3,70.4,174.9z"/>
	<path class="st0" d="M76.8,71.6c-0.5-1.7-1.1-3.3-1.7-5C75.7,68.2,76.2,69.9,76.8,71.6z"/>
	<path class="st0" d="M70.3,168.8c0-1.2-0.1-2.3-0.2-3.5C70.2,166.4,70.3,167.6,70.3,168.8z"/>
	<path class="st1" d="M137,2.5c-1.4,0-2.8,0-4.1,0.1h-0.4c-1.5,0-3,0.1-4.4,0.2l-1,0.1c-1.5,0.1-3,0.2-4.4,0.4h-0.2
		c-1.4,0.2-2.9,0.4-4.3,0.6l-1,0.1c-1.4,0.2-2.9,0.5-4.4,0.7l-0.6,0.1c-1.3,0.2-2.6,0.5-3.9,0.8l-0.9,0.2c-1.4,0.3-2.9,0.7-4.3,1
		l-0.8,0.2c-1.3,0.3-2.6,0.7-3.8,1.1L98,8.4l0.2,0.6l0.3,1.2c0.6,1.9,1.1,3.9,1.6,5.9c0.1,0.4,0.2,0.7,0.3,1.1
		c0.6,2.2,1.1,4.3,1.6,6.5c0.1,0.5,0.2,1,0.3,1.4c0.5,2.1,0.9,4.3,1.4,6.4c0,0.1,0,0.2,0.1,0.4c0.4,2.2,0.9,4.5,1.2,6.7
		c0.1,0.5,0.2,1,0.2,1.5c0.4,2.2,0.7,4.4,1,6.7c0,0.2,0.1,0.5,0.1,0.7c0.3,2.1,0.5,4.1,0.8,6.2l0.2,1.3c0.3,2.2,0.5,4.4,0.7,6.7
		c0,0.4,0.1,0.9,0.1,1.3c0.2,2,0.3,4.1,0.4,6.1l0.1,1c0.1,2.2,0.2,4.5,0.3,6.7c0,0.5,0,1,0,1.5c0.1,2.3,0.1,4.6,0.1,6.8
		c0,1.6,0,3.3,0,4.9c0,0.5,0,1,0,1.6c0,1.2-0.1,2.3-0.1,3.4c0,0.6,0,1.2-0.1,1.7c0,1.1-0.1,2.3-0.2,3.4c0,0.5,0,1-0.1,1.6
		c-0.1,1.5-0.2,3.1-0.3,4.6c0,0.1,0,0.2,0,0.3c-0.1,1.6-0.3,3.3-0.4,4.9l-0.2,1.5c-0.1,1.2-0.2,2.3-0.4,3.5
		c-0.1,0.6-0.1,1.1-0.2,1.7c-0.1,1.1-0.3,2.3-0.4,3.4c-0.1,0.5-0.1,1-0.2,1.6c-0.2,1.5-0.4,2.9-0.7,4.4l-0.1,0.5
		c-0.3,1.6-0.5,3.3-0.8,4.9c-0.1,0.5-0.2,0.9-0.3,1.4c-0.2,1.2-0.4,2.3-0.7,3.5c-0.1,0.6-0.2,1.1-0.3,1.7c-0.2,1.1-0.5,2.2-0.7,3.4
		c-0.1,0.5-0.2,1-0.3,1.6c-0.3,1.4-0.6,2.8-1,4.2c-0.1,0.2-0.1,0.5-0.2,0.7c-0.4,1.6-0.8,3.2-1.2,4.9c-0.1,0.4-0.2,0.9-0.4,1.3
		c-0.3,1.2-0.6,2.4-1,3.5l-0.5,1.6c-0.3,1.1-0.7,2.2-1,3.3l-0.5,1.6c-0.4,1.3-0.8,2.6-1.3,4l-0.3,0.8c-0.5,1.6-1.1,3.2-1.6,4.8
		l-0.4,1.2c-0.4,1.2-0.8,2.4-1.3,3.5l-0.6,1.6c-0.4,1.1-0.8,2.2-1.3,3.2c-0.2,0.5-0.4,1.1-0.6,1.6c-0.5,1.2-1,2.5-1.6,3.7
		c-0.1,0.3-0.3,0.6-0.4,1c-0.7,1.6-1.3,3.1-2,4.7l-0.5,1.2c-0.5,1.2-1.1,2.3-1.6,3.5l-0.8,1.6c-0.5,1.1-1,2.1-1.5,3.1L80,207
		c-0.6,1.2-1.2,2.3-1.8,3.5l-0.6,1.1c-0.8,1.5-1.6,3-2.4,4.5c-0.2,0.4-0.4,0.7-0.6,1.1c-0.5,0.9-1,1.7-1.4,2.6l0.3-0.4
		c0.9-1.3,1.8-2.5,2.7-3.8l1.4-2c1.7-2.4,3.3-4.8,4.9-7.1l1-1.5c1.3-1.9,2.5-3.9,3.8-5.8l1.6-2.5c1-1.6,2.1-3.3,3.1-5
		c0.5-0.9,1-1.7,1.6-2.6c1.1-1.8,2.2-3.7,3.3-5.5c0.4-0.6,0.8-1.3,1.1-1.9c1.4-2.4,2.8-4.9,4.2-7.3c0.4-0.7,0.8-1.4,1.2-2.1
		c1-1.8,2-3.6,2.9-5.4c0.5-0.9,1-1.8,1.4-2.8c0.9-1.7,1.7-3.3,2.6-5c0.5-0.9,0.9-1.8,1.4-2.7c1-2,2-4,2.9-6c0.2-0.5,0.5-1.1,0.8-1.6
		c1.2-2.5,2.3-5,3.5-7.5l1.1-2.5c0.8-1.7,1.5-3.5,2.3-5.3l1.2-2.9c0.7-1.7,1.4-3.4,2.1-5.1c0.4-0.9,0.7-1.8,1.1-2.7
		c0.9-2.3,1.8-4.7,2.7-7c0.1-0.4,0.3-0.8,0.5-1.2c0.9-2.4,1.8-4.8,2.6-7.2c0.3-0.9,0.6-1.8,1-2.7c0.6-1.8,1.2-3.5,1.8-5.3
		c0.3-1,0.6-2,1-2.9c0.6-1.8,1.2-3.6,1.7-5.4c0.3-0.8,0.5-1.7,0.8-2.6c0.8-2.6,1.6-5.2,2.3-7.8c0.1-0.5,0.3-1,0.4-1.5
		c0.6-2.2,1.2-4.3,1.8-6.5c0.2-0.9,0.5-1.9,0.7-2.8c0.5-1.8,0.9-3.6,1.4-5.4c0.2-1,0.5-1.9,0.7-2.9c0.5-1.9,0.9-3.9,1.4-5.8
		c0.2-0.7,0.4-1.5,0.5-2.2c0.6-2.7,1.2-5.3,1.7-8c0.1-0.7,0.2-1.3,0.4-1.9c0.4-2.1,0.8-4.1,1.2-6.2c0.2-0.9,0.3-1.9,0.5-2.8
		c0.3-1.8,0.6-3.7,0.9-5.5c0.1-0.9,0.3-1.8,0.4-2.7c0.3-2.2,0.7-4.3,1-6.5c0.1-0.6,0.2-1.1,0.2-1.7c0.4-2.7,0.7-5.4,1.1-8.1
		c0.1-0.7,0.2-1.5,0.2-2.2c0.2-1.4,0.3-2.8,0.5-4.2l-0.4-0.1c-1.4-0.2-2.7-0.3-4.1-0.5L151,3.1c-1.2-0.1-2.3-0.2-3.5-0.3l-1.1-0.1
		c-1.3-0.1-2.5-0.2-3.8-0.2h-0.3c-1.4,0-2.7-0.1-4.1-0.1L137,2.5z"/>
	<path class="st2" d="M155.3,10.1c-0.3,2.7-0.7,5.4-1.1,8.1c-0.1,0.5-0.2,1.1-0.2,1.7c-0.3,2.2-0.6,4.3-1,6.5
		c-0.1,0.9-0.3,1.8-0.4,2.7c-0.3,1.9-0.6,3.7-0.9,5.5c-0.2,0.9-0.3,1.9-0.5,2.8c-0.4,2.1-0.8,4.1-1.2,6.2c-0.1,0.7-0.2,1.3-0.4,1.9
		c-0.5,2.7-1.1,5.3-1.7,8c-0.2,0.7-0.3,1.5-0.5,2.2c-0.4,1.9-0.9,3.9-1.4,5.8c-0.2,1-0.5,1.9-0.7,2.9c-0.4,1.8-0.9,3.6-1.4,5.4
		c-0.2,0.9-0.5,1.9-0.7,2.8c-0.6,2.2-1.2,4.3-1.8,6.5c-0.1,0.5-0.3,1-0.4,1.5c-0.7,2.6-1.5,5.2-2.3,7.8c-0.3,0.8-0.5,1.7-0.8,2.6
		c-0.6,1.8-1.1,3.6-1.7,5.4c-0.3,1-0.6,2-1,2.9c-0.6,1.8-1.2,3.5-1.8,5.3c-0.3,0.9-0.6,1.8-1,2.7c-0.9,2.4-1.7,4.8-2.6,7.2
		c-0.2,0.4-0.3,0.8-0.5,1.2c-0.9,2.3-1.8,4.7-2.7,7c-0.4,0.9-0.7,1.8-1.1,2.7c-0.7,1.7-1.4,3.4-2.1,5.1l-1.2,2.9
		c-0.8,1.8-1.5,3.5-2.3,5.3l-1.1,2.5c-1.1,2.5-2.3,5-3.5,7.5c-0.2,0.5-0.5,1.1-0.8,1.6c-1,2-1.9,4-2.9,6c-0.4,0.9-0.9,1.8-1.4,2.7
		c-0.8,1.7-1.7,3.3-2.6,5c-0.5,0.9-0.9,1.8-1.4,2.8c-1,1.8-1.9,3.6-2.9,5.4c-0.4,0.7-0.8,1.4-1.2,2.1c-1.4,2.4-2.7,4.9-4.2,7.3
		c-0.4,0.6-0.8,1.3-1.1,1.9c-1.1,1.8-2.2,3.7-3.3,5.5c-0.5,0.9-1.1,1.7-1.6,2.6c-1,1.7-2.1,3.3-3.1,5l-1.6,2.5
		c-1.2,1.9-2.5,3.9-3.8,5.8l-1,1.5c-1.6,2.4-3.2,4.8-4.9,7.1l-1.4,2c-0.9,1.3-1.8,2.5-2.7,3.8l-0.1,0.1c4.4-5.2,8.9-10.3,13.5-15.2
		c39.5-60.1,64-128.8,71.7-200.3c-0.8-0.1-1.6-0.2-2.5-0.3c-0.1,1.4-0.3,2.8-0.5,4.2C155.4,8.7,155.3,9.4,155.3,10.1z"/>
	<path class="st2" d="M75.4,221.1l-0.2,0.2l0.1-0.1L75.4,221.1z"/>
	<path class="st3" d="M60.6,34.2c0.8,1.5,1.7,3,2.5,4.6l0.4,0.8c0.8,1.6,1.6,3.2,2.4,4.8l0.1,0.1c0.8,1.6,1.5,3.2,2.2,4.8
		c0.1,0.2,0.2,0.5,0.3,0.8c0.7,1.6,1.4,3.2,2.1,4.8l0.4,0.9c0.7,1.6,1.3,3.3,2,4.9c0,0.1,0.1,0.2,0.1,0.3c0.6,1.6,1.2,3.2,1.8,4.9
		l0.2,0.7c0.6,1.6,1.1,3.3,1.7,5c0.1,0.3,0.2,0.6,0.3,0.9c0.5,1.7,1,3.3,1.5,5c0.1,0.2,0.1,0.3,0.1,0.5c0.5,1.6,0.9,3.3,1.3,4.9
		l0.2,0.6c0.4,1.7,0.9,3.4,1.2,5.1l0.2,0.9c0.4,1.7,0.8,3.4,1.1,5.1c0,0.2,0.1,0.5,0.1,0.7c0.3,1.7,0.6,3.3,0.9,5
		c0,0.2,0,0.3,0.1,0.4c0.3,1.7,0.6,3.4,0.8,5.2c0,0.3,0.1,0.7,0.1,1c0.2,1.7,0.4,3.4,0.7,5.1l0.1,0.8c0.2,1.7,0.4,3.4,0.5,5.1v0.3
		c0.2,1.8,0.3,3.5,0.4,5.3l0.1,1c0.1,1.7,0.2,3.4,0.2,5.1v0.9c0,1.8,0.1,3.6,0.1,5.3s0,3.5-0.1,5.2c0,0.5,0,1,0,1.4
		c-0.1,1.4-0.1,2.8-0.2,4.2c0,0.4,0,0.7-0.1,1.1c-0.1,1.7-0.2,3.4-0.4,5.2c0,0.4-0.1,0.8-0.1,1.2c-0.1,1.4-0.3,2.8-0.4,4.2l-0.2,1.4
		c-0.2,1.7-0.4,3.5-0.7,5.2c0,0.1,0,0.2-0.1,0.4c-0.2,1.6-0.5,3.2-0.8,4.9c-0.1,0.5-0.2,0.9-0.2,1.4c-0.3,1.5-0.5,2.9-0.8,4.4
		c-0.1,0.3-0.1,0.6-0.2,0.9c-0.3,1.7-0.7,3.4-1.1,5.1c-0.1,0.4-0.2,0.8-0.3,1.2c-0.3,1.4-0.7,2.8-1,4.1l-0.3,1.3
		c-0.4,1.7-0.9,3.4-1.4,5.1l-0.2,0.6c-0.4,1.5-0.9,3-1.4,4.5l-0.4,1.4c-0.5,1.5-1,3-1.5,4.5c-0.1,0.2-0.1,0.4-0.2,0.6
		c-0.6,1.7-1.2,3.3-1.8,5l-0.5,1.3c-0.5,1.3-1,2.6-1.6,4l-0.5,1.2c-0.7,1.6-1.4,3.3-2.1,4.9c-0.1,0.3-0.3,0.6-0.4,0.9
		c-0.6,1.4-1.3,2.7-1.9,4.1c-0.1,0.2-0.2,0.4-0.3,0.6c0.3-0.4,0.6-0.9,0.8-1.3l1.1-1.8c0.6-1,1.2-1.9,1.7-2.9c0.3-0.5,0.6-1.1,1-1.6
		c0.7-1.2,1.3-2.4,2-3.5l0.6-1c0.8-1.5,1.7-3,2.5-4.6c0.2-0.4,0.4-0.8,0.6-1.2c0.6-1.2,1.2-2.3,1.8-3.5c0.3-0.6,0.6-1.1,0.8-1.7
		c0.5-1,1-2,1.5-3l0.8-1.8c0.5-1,0.9-2,1.4-2.9c0.3-0.6,0.6-1.2,0.8-1.8c0.5-1,0.9-2.1,1.3-3.1c0.2-0.6,0.5-1.1,0.7-1.7
		c0.5-1.2,1-2.4,1.5-3.6l0.5-1.2c0.7-1.6,1.3-3.2,1.9-4.8c0.1-0.3,0.2-0.6,0.3-0.9c0.5-1.3,1-2.6,1.4-3.9c0.2-0.6,0.4-1.1,0.6-1.7
		c0.4-1.1,0.7-2.1,1.1-3.2l0.6-1.8c0.3-1,0.7-2.1,1-3.1l0.6-1.9c0.3-1.1,0.6-2.1,0.9-3.1c0.2-0.6,0.3-1.2,0.5-1.8
		c0.3-1.2,0.7-2.4,1-3.6c0.1-0.4,0.2-0.9,0.4-1.3c0.4-1.6,0.9-3.3,1.3-4.9c0.1-0.2,0.1-0.5,0.2-0.7c0.3-1.4,0.7-2.8,1-4.2l0.4-1.6
		c0.2-1.1,0.5-2.2,0.7-3.3c0.1-0.6,0.2-1.2,0.4-1.9c0.2-1,0.4-2.1,0.6-3.1c0.1-0.6,0.2-1.3,0.3-1.9c0.2-1.1,0.4-2.1,0.5-3.2l0.3-1.8
		c0.2-1.2,0.3-2.3,0.5-3.5c0.1-0.5,0.2-1,0.2-1.5c0.2-1.7,0.4-3.3,0.7-5c0-0.2,0-0.3,0-0.5c0.2-1.5,0.3-3,0.5-4.5
		c0.1-0.6,0.1-1.1,0.2-1.7c0.1-1.1,0.2-2.2,0.3-3.3c0-0.6,0.1-1.3,0.1-1.9c0.1-1,0.2-2.1,0.2-3.1l0.1-2c0.1-1,0.1-2.1,0.2-3.2
		l0.1-1.9c0-1.1,0.1-2.3,0.1-3.4c0-0.5,0-1.1,0-1.6c0-1.7,0-3.3,0-5c0-2.3,0-4.5-0.1-6.8c0-0.5,0-1,0-1.5c-0.1-2.2-0.2-4.4-0.3-6.6
		l-0.1-1c-0.1-2-0.3-4-0.4-6c0-0.4-0.1-0.9-0.1-1.3c-0.2-2.2-0.4-4.4-0.7-6.6c0-0.5-0.1-0.9-0.2-1.4c-0.2-2-0.5-4.1-0.8-6.1
		c0-0.3-0.1-0.5-0.1-0.8c-0.3-2.2-0.7-4.4-1-6.6c-0.1-0.5-0.2-1-0.3-1.5c-0.4-2.2-0.8-4.4-1.2-6.6c0-0.2-0.1-0.3-0.1-0.5
		c-0.4-2.1-0.9-4.1-1.3-6.2l-0.3-1.4c-0.5-2.3-1-4.4-1.5-6.5l-0.3-1.1c-0.5-1.9-1-3.9-1.6-5.8c-0.1-0.4-0.2-0.8-0.3-1.1
		c0-0.2-0.1-0.4-0.2-0.6l-0.4,0.1c-1.5,0.5-3,1-4.4,1.5l-0.6,0.2c-1.4,0.5-2.8,1.1-4.2,1.6l-0.5,0.2c-1.4,0.6-2.9,1.2-4.3,1.9
		l-0.9,0.4c-1.4,0.7-2.9,1.4-4.3,2.1l-0.4,0.2c-1.3,0.7-2.7,1.4-4,2.1L70.9,20c-1.3,0.8-2.7,1.6-4,2.4l-0.8,0.5
		c-1.4,0.8-2.8,1.7-4.1,2.6l-0.1,0.1c-1.3,0.9-2.6,1.8-3.9,2.8l-0.4,0.3c0.9,1.5,1.8,3.1,2.7,4.6C60.3,33.6,60.5,33.9,60.6,34.2z"/>
	<path class="st2" d="M96,10.9c0.6,1.9,1.1,3.8,1.6,5.8l0.4,1.1c0.5,2.2,1,4.3,1.5,6.4l0.3,1.4c0.5,2.1,0.9,4.1,1.3,6.2
		c0,0.2,0.1,0.3,0.1,0.5c0.4,2.2,0.8,4.4,1.2,6.6c0.1,0.5,0.2,1,0.3,1.5c0.4,2.2,0.7,4.4,1,6.6c0,0.2,0.1,0.5,0.1,0.8
		c0.3,2,0.5,4.1,0.8,6.1c0,0.5,0.1,0.9,0.2,1.4c0.2,2.2,0.5,4.4,0.7,6.6c0,0.4,0.1,0.9,0.1,1.3c0.2,2,0.3,4,0.4,6l0.1,1
		c0.1,2.2,0.2,4.4,0.3,6.6c0,0.5,0,1,0,1.5c0.1,2.3,0.1,4.5,0.1,6.8c0,1.7,0,3.3,0,5c0,0.5,0,1.1,0,1.6c0,1.1-0.1,2.3-0.1,3.4
		l-0.1,1.9c0,1.1-0.1,2.1-0.2,3.2l-0.1,2c-0.1,1.1-0.1,2.1-0.2,3.1c0,0.6-0.1,1.3-0.1,1.9c-0.1,1.1-0.2,2.2-0.3,3.3
		c0,0.6-0.1,1.1-0.2,1.7c-0.2,1.5-0.3,3-0.5,4.5c0,0.2,0,0.3,0,0.5c-0.2,1.7-0.4,3.3-0.7,5c-0.1,0.5-0.2,1-0.2,1.5
		c-0.2,1.2-0.3,2.3-0.5,3.5l-0.3,1.8c-0.2,1.1-0.3,2.1-0.5,3.2c-0.1,0.6-0.2,1.3-0.3,1.9c-0.2,1-0.4,2.1-0.6,3.1
		c-0.1,0.6-0.2,1.2-0.4,1.9c-0.2,1.1-0.5,2.2-0.7,3.3l-0.4,1.6c-0.3,1.4-0.6,2.8-1,4.2c-0.1,0.2-0.1,0.5-0.2,0.7
		c-0.4,1.6-0.8,3.3-1.3,4.9c-0.1,0.4-0.2,0.9-0.4,1.3c-0.3,1.2-0.7,2.4-1,3.6c-0.2,0.6-0.3,1.2-0.5,1.8c-0.3,1.1-0.6,2.1-0.9,3.1
		l-0.6,1.9c-0.3,1-0.7,2-1,3.1l-0.6,1.8c-0.4,1.1-0.7,2.1-1.1,3.2c-0.2,0.6-0.4,1.1-0.6,1.7c-0.5,1.3-0.9,2.6-1.4,3.9
		c-0.1,0.3-0.2,0.6-0.3,0.9c-0.6,1.6-1.2,3.2-1.9,4.8l-0.5,1.2c-0.5,1.2-1,2.4-1.5,3.6c-0.2,0.6-0.5,1.1-0.7,1.7
		c-0.4,1-0.9,2-1.3,3.1c-0.3,0.6-0.5,1.2-0.8,1.8c-0.4,1-0.9,2-1.4,2.9l-0.8,1.8c-0.5,1-1,2-1.5,3c-0.3,0.6-0.5,1.1-0.8,1.7
		c-0.6,1.2-1.2,2.3-1.8,3.5c-0.2,0.4-0.4,0.8-0.6,1.2c-0.8,1.5-1.7,3.1-2.6,4.6l-0.6,1c-0.7,1.2-1.3,2.4-2,3.5
		c-0.3,0.5-0.6,1.1-1,1.6c-0.6,1-1.2,1.9-1.7,2.9l-1.1,1.8c-0.3,0.4-0.6,0.9-0.8,1.3v0.1c-0.7,1.4-1.3,2.7-2,4.1
		c3.1-3.9,6.2-7.7,9.4-11.4c0.5-0.9,1-1.8,1.5-2.7c0.2-0.4,0.4-0.7,0.6-1.1c0.8-1.5,1.6-3,2.4-4.5l0.6-1.1c0.6-1.2,1.2-2.3,1.8-3.5
		l0.8-1.6c0.5-1.1,1-2.1,1.5-3.1l0.8-1.6c0.6-1.1,1.1-2.3,1.6-3.5l0.5-1.2c0.7-1.6,1.4-3.1,2-4.7c0.1-0.3,0.3-0.6,0.4-1
		c0.5-1.2,1-2.5,1.6-3.7c0.2-0.5,0.4-1,0.6-1.6c0.4-1.1,0.8-2.2,1.3-3.2l0.6-1.6c0.4-1.2,0.9-2.3,1.3-3.5l0.4-1.2
		c0.6-1.6,1.1-3.2,1.6-4.8l0.3-0.8c0.4-1.3,0.9-2.6,1.3-4l0.5-1.6c0.3-1.1,0.7-2.2,1-3.3l0.5-1.6c0.3-1.2,0.7-2.4,1-3.5
		c0.1-0.4,0.2-0.9,0.4-1.3c0.4-1.6,0.8-3.2,1.2-4.9c0.1-0.2,0.1-0.5,0.2-0.7c0.3-1.4,0.7-2.8,1-4.2c0.1-0.5,0.2-1.1,0.3-1.6
		c0.2-1.1,0.5-2.2,0.7-3.4c0.1-0.6,0.2-1.1,0.3-1.7c0.2-1.2,0.5-2.3,0.7-3.5c0.1-0.5,0.2-0.9,0.3-1.4c0.3-1.6,0.6-3.3,0.8-4.9
		l0.1-0.6c0.2-1.5,0.4-2.9,0.7-4.4c0.1-0.5,0.2-1,0.2-1.6c0.2-1.1,0.3-2.3,0.4-3.4c0.1-0.6,0.1-1.1,0.2-1.7c0.1-1.2,0.3-2.3,0.4-3.5
		l0.2-1.5c0.2-1.6,0.3-3.3,0.4-4.9c0-0.1,0-0.2,0-0.3c0.1-1.5,0.2-3.1,0.3-4.6c0-0.5,0.1-1.1,0.1-1.6c0.1-1.1,0.1-2.3,0.2-3.4
		c0-0.6,0-1.2,0.1-1.7c0-1.2,0.1-2.3,0.1-3.4c0-0.5,0-1,0-1.6c0-1.6,0-3.3,0-4.9c0-2.3,0-4.6-0.1-6.8c0-0.5,0-1,0-1.5
		c-0.1-2.2-0.2-4.5-0.3-6.7l-0.1-1c-0.1-2-0.3-4.1-0.4-6.1c0-0.4-0.1-0.9-0.1-1.3c-0.2-2.2-0.4-4.4-0.7-6.7l-0.2-1.3
		c-0.2-2.1-0.5-4.2-0.8-6.2c0-0.2-0.1-0.5-0.1-0.7c-0.3-2.2-0.7-4.5-1-6.7c-0.1-0.5-0.2-1-0.2-1.5c-0.4-2.2-0.8-4.5-1.2-6.7
		c0-0.1,0-0.2-0.1-0.4c-0.4-2.1-0.9-4.3-1.4-6.4c-0.1-0.5-0.2-0.9-0.3-1.4c-0.5-2.2-1-4.4-1.6-6.5c-0.1-0.4-0.2-0.7-0.3-1.1
		c-0.5-2-1-3.9-1.6-5.9l-0.3-1.2c-0.1-0.2-0.1-0.4-0.2-0.6L95.5,9c0.1,0.2,0.1,0.4,0.2,0.6C95.8,10.1,96,10.5,96,10.9z"/>
	<path class="st4" d="M32.7,62.3c0.7,1,1.5,1.9,2.2,2.9l0.8,1.2c0.9,1.3,1.8,2.5,2.7,3.8l0.1,0.2c0.9,1.3,1.8,2.7,2.7,4l0.7,1.2
		c0.6,1,1.3,2,1.9,3.1l0.7,1.2c0.8,1.3,1.6,2.7,2.3,4l0.1,0.1c0.8,1.4,1.5,2.8,2.3,4.2l0.6,1.2c0.5,1.1,1.1,2.1,1.6,3.2
		c0.2,0.4,0.4,0.8,0.6,1.3c0.7,1.4,1.3,2.8,2,4.2c0,0,0,0.1,0,0.1c0.7,1.5,1.3,2.9,1.9,4.4l0.5,1.3c0.5,1.1,0.9,2.2,1.3,3.3
		c0.2,0.4,0.3,0.9,0.5,1.3c0.5,1.5,1.1,2.9,1.6,4.4v0.1c0.5,1.5,1,3,1.5,4.5c0.1,0.4,0.3,0.9,0.4,1.3c0.4,1.1,0.7,2.3,1,3.4
		c0.1,0.4,0.3,0.9,0.4,1.3c0.4,1.5,0.8,3,1.2,4.5l0,0c0.4,1.5,0.8,3.1,1.1,4.6l0.3,1.3c0.2,1.1,0.5,2.3,0.7,3.5
		c0.1,0.4,0.2,0.9,0.3,1.4c0.3,1.5,0.6,3.1,0.8,4.6l0,0c0.3,1.6,0.5,3.1,0.7,4.7l0.2,1.4c0.2,1.2,0.3,2.3,0.4,3.5
		c0,0.5,0.1,0.9,0.2,1.4c0.2,1.6,0.3,3.1,0.5,4.7l0,0c0.1,1.6,0.2,3.1,0.3,4.7c0,0.5,0,0.9,0.1,1.4c0.1,1.2,0.1,2.3,0.2,3.5
		c0,0.5,0,0.9,0,1.4c0,1.6,0.1,3.2,0.1,4.7c0,1.2,0,2.4,0,3.5c0,0.4,0,0.8,0,1.1c0,0.8,0,1.6-0.1,2.4l-0.1,1.4
		c0,0.7-0.1,1.4-0.1,2.2c0,0.5-0.1,1-0.1,1.4c0,0.7-0.1,1.4-0.1,2.1l-0.1,1.5c-0.1,0.7-0.1,1.4-0.2,2.1c0,0.5-0.1,1-0.1,1.5
		c-0.1,0.7-0.2,1.4-0.2,2.1c0,0.5-0.1,1-0.2,1.5c-0.1,0.7-0.2,1.4-0.3,2.1l-0.2,1.4c-0.1,0.8-0.2,1.5-0.3,2.3l-0.2,1.2
		c-0.2,0.9-0.3,1.9-0.5,2.8c0,0.2-0.1,0.4-0.1,0.7c-0.2,1.2-0.4,2.3-0.7,3.5c-0.1,0.3-0.1,0.6-0.2,0.9c-0.2,0.9-0.4,1.7-0.6,2.6
		c-0.1,0.4-0.2,0.9-0.3,1.3l-0.5,2.2c-0.1,0.5-0.2,0.9-0.3,1.4c-0.2,0.7-0.3,1.4-0.5,2.1c-0.1,0.5-0.2,1-0.4,1.4
		c-0.2,0.7-0.4,1.3-0.5,2L63,227c-0.1,0.3-0.2,0.6-0.3,0.9c0,0,0-0.1,0.1-0.2c0.8-1.6,1.5-3.1,2.3-4.7c0.2-0.4,0.4-0.9,0.6-1.3
		c0.6-1.4,1.3-2.8,1.9-4.2l0.3-0.8c0.7-1.6,1.3-3.3,2-4.9l0.5-1.3c0.5-1.3,1-2.7,1.5-4c0.1-0.4,0.3-0.8,0.4-1.2
		c0.6-1.7,1.2-3.3,1.7-5l0.4-1.1c0.4-1.4,0.9-2.7,1.3-4.1l0.4-1.4c0.5-1.7,1-3.4,1.4-5.1c0.1-0.2,0.1-0.4,0.2-0.7
		c0.4-1.5,0.8-3,1.1-4.5c0.1-0.5,0.2-1,0.3-1.4c0.3-1.6,0.7-3.1,1-4.6c0-0.2,0.1-0.4,0.1-0.5c0.3-1.7,0.7-3.4,1-5.1
		c0.1-0.5,0.2-0.9,0.2-1.4c0.2-1.4,0.5-2.8,0.7-4.2c0.1-0.4,0.1-0.7,0.2-1.1c0.2-1.7,0.5-3.4,0.7-5.1c0-0.4,0.1-0.8,0.1-1.2
		c0.2-1.4,0.3-2.8,0.4-4.2c0-0.4,0.1-0.9,0.1-1.3c0.2-1.7,0.3-3.4,0.4-5.2c0-0.3,0-0.6,0-0.9c0.1-1.5,0.1-3,0.2-4.4
		c0-0.5,0-0.9,0-1.4c0-1.7,0.1-3.5,0.1-5.2s0-3.5-0.1-5.3v-0.9c0-1.7-0.1-3.4-0.2-5l-0.1-1c-0.1-1.7-0.2-3.4-0.4-5.2v-0.4
		c-0.2-1.7-0.3-3.3-0.5-5c0-0.3-0.1-0.6-0.1-0.9c-0.2-1.7-0.4-3.3-0.6-5l-0.2-1c-0.2-1.7-0.5-3.3-0.8-5l-0.1-0.7
		c-0.3-1.6-0.6-3.2-0.9-4.7l-0.2-0.8c-0.3-1.6-0.7-3.3-1-4.9l-0.2-1.1c-0.4-1.6-0.8-3.2-1.2-4.9c-0.1-0.3-0.1-0.6-0.2-0.8
		c-0.4-1.6-0.8-3.1-1.3-4.6c-0.1-0.2-0.1-0.4-0.2-0.6c-0.5-1.6-1-3.2-1.5-4.8c-0.1-0.3-0.2-0.7-0.3-1.1c-0.5-1.6-1-3.2-1.6-4.7
		l-0.3-0.9c-0.5-1.6-1.1-3.2-1.7-4.7l-0.1-0.3c-0.6-1.6-1.2-3.2-1.9-4.8c-0.1-0.3-0.3-0.7-0.4-1c-0.7-1.5-1.3-3.1-2-4.6l-0.4-0.9
		c-0.7-1.6-1.4-3.2-2.2-4.7l-0.1-0.2c-0.7-1.5-1.5-3-2.3-4.5L60.9,40c-0.8-1.5-1.6-3-2.4-4.5L58,34.6c-0.8-1.5-1.6-2.9-2.5-4.3
		l-0.5,0.4c-0.8,0.6-1.6,1.2-2.4,1.9c-0.3,0.2-0.5,0.4-0.8,0.7c-1,0.8-2.1,1.7-3.1,2.6l-0.3,0.3c-0.9,0.8-1.8,1.6-2.7,2.4l-0.9,0.8
		c-0.7,0.7-1.5,1.4-2.2,2.1l-0.8,0.8c-1,1-1.9,1.9-2.8,2.9c-0.1,0.1-0.1,0.1-0.2,0.2c-0.9,0.9-1.7,1.9-2.6,2.8l-0.8,0.9
		c-0.7,0.8-1.3,1.5-2,2.3l-0.8,0.9c-0.9,1.1-1.7,2.2-2.6,3.3c-0.4,0.6-0.9,1.2-1.3,1.7c1,1.2,2,2.5,3,3.8L32.7,62.3z"/>
	<path class="st2" d="M58.5,35.5c0.8,1.5,1.6,3,2.4,4.5l0.4,0.8c0.8,1.5,1.5,3,2.3,4.5l0.1,0.2c0.8,1.6,1.5,3.1,2.2,4.7l0.4,0.9
		c0.7,1.5,1.3,3.1,2,4.6c0.1,0.3,0.3,0.7,0.4,1c0.7,1.6,1.3,3.2,1.9,4.8l0.1,0.3c0.6,1.5,1.2,3.1,1.7,4.7l0.3,0.9
		c0.6,1.6,1.1,3.2,1.6,4.7c0.1,0.4,0.2,0.7,0.3,1.1c0.5,1.6,1,3.2,1.5,4.8c0.1,0.2,0.1,0.4,0.2,0.6c0.4,1.5,0.9,3.1,1.3,4.6
		c0.1,0.3,0.2,0.6,0.2,0.8c0.4,1.6,0.8,3.2,1.2,4.9l0.2,1.1c0.4,1.6,0.7,3.3,1,4.9l0.2,0.8c0.3,1.6,0.6,3.2,0.9,4.7l0.1,0.7
		c0.3,1.7,0.5,3.3,0.8,5l0.2,1c0.2,1.7,0.4,3.3,0.6,5c0,0.3,0.1,0.6,0.1,0.9c0.2,1.7,0.3,3.3,0.5,5v0.4c0.1,1.7,0.3,3.4,0.4,5.2
		l0.1,1c0.1,1.7,0.2,3.4,0.2,5v0.9c0,1.8,0.1,3.5,0.1,5.3s0,3.5-0.1,5.2c0,0.5,0,0.9,0,1.4c0,1.5-0.1,3-0.2,4.4c0,0.3,0,0.6,0,0.9
		c-0.1,1.7-0.2,3.4-0.4,5.2c0,0.4-0.1,0.9-0.1,1.3c-0.1,1.4-0.3,2.8-0.4,4.2c-0.1,0.4-0.1,0.8-0.1,1.2c-0.2,1.7-0.4,3.4-0.7,5.1
		c0,0.4-0.1,0.7-0.2,1.1c-0.2,1.4-0.4,2.8-0.7,4.2c-0.1,0.5-0.2,1-0.2,1.4c-0.3,1.7-0.6,3.4-1,5.1c0,0.2-0.1,0.4-0.1,0.5
		c-0.3,1.6-0.7,3.1-1,4.6c-0.1,0.5-0.2,1-0.3,1.4c-0.4,1.5-0.7,3-1.1,4.5c-0.1,0.2-0.1,0.4-0.2,0.7c-0.5,1.7-0.9,3.4-1.4,5.1
		l-0.4,1.4c-0.4,1.4-0.8,2.7-1.3,4.1l-0.4,1.1c-0.5,1.7-1.1,3.3-1.7,5c-0.1,0.4-0.3,0.8-0.4,1.2c-0.5,1.3-1,2.7-1.5,4l-0.5,1.3
		c-0.7,1.7-1.3,3.3-2,4.9l-0.3,0.8c-0.6,1.4-1.2,2.8-1.9,4.2c-0.2,0.4-0.4,0.9-0.6,1.3c-0.7,1.6-1.5,3.1-2.3,4.7
		c0,0.1,0,0.1-0.1,0.2v0.1c-0.8,2.7-1.7,5.4-2.6,8.1c1.2-1.6,2.4-3.1,3.7-4.7c0.7-1.4,1.4-2.7,2.1-4.1l0.3-0.7
		c0.7-1.4,1.3-2.7,1.9-4.1c0.1-0.3,0.3-0.6,0.4-0.9c0.7-1.6,1.4-3.3,2.1-4.9l0.5-1.2c0.6-1.3,1.1-2.6,1.6-4l0.5-1.3
		c0.6-1.7,1.2-3.3,1.8-5c0.1-0.2,0.1-0.4,0.2-0.6c0.5-1.5,1-3,1.5-4.5l0.4-1.4c0.5-1.5,0.9-3,1.4-4.5l0.2-0.6c0.5-1.7,1-3.4,1.4-5.1
		l0.3-1.3c0.3-1.4,0.7-2.8,1-4.1c0.1-0.4,0.2-0.8,0.3-1.2c0.4-1.7,0.8-3.4,1.1-5.1c0.1-0.3,0.1-0.6,0.2-0.9c0.3-1.5,0.6-2.9,0.8-4.4
		c0.1-0.5,0.2-0.9,0.2-1.4c0.3-1.6,0.5-3.2,0.8-4.9c0-0.1,0-0.2,0.1-0.4c0.2-1.7,0.5-3.5,0.7-5.2l0.2-1.4c0.2-1.4,0.3-2.8,0.4-4.2
		c0-0.4,0.1-0.8,0.1-1.2c0.2-1.7,0.3-3.4,0.4-5.2c0-0.4,0-0.7,0.1-1.1c0.1-1.4,0.1-2.8,0.2-4.2c0-0.5,0-1,0-1.4
		c0-1.7,0.1-3.5,0.1-5.2s0-3.6-0.1-5.3v-0.9c0-1.7-0.1-3.4-0.2-5.1l-0.1-1c-0.1-1.8-0.2-3.5-0.4-5.3v-0.3c-0.1-1.7-0.3-3.4-0.5-5.1
		l-0.1-0.8c-0.2-1.7-0.4-3.4-0.7-5.1c0-0.3-0.1-0.7-0.1-1c-0.2-1.7-0.5-3.4-0.8-5.2c0-0.1-0.1-0.3-0.1-0.4c-0.3-1.7-0.6-3.3-0.9-5
		c0-0.2-0.1-0.5-0.1-0.7c-0.3-1.7-0.7-3.4-1.1-5.1l-0.2-0.9c-0.4-1.7-0.8-3.4-1.2-5.1l-0.2-0.6c-0.4-1.6-0.9-3.3-1.3-4.9
		c0-0.2-0.1-0.3-0.1-0.5c-0.5-1.7-1-3.4-1.5-5c-0.1-0.3-0.2-0.6-0.3-0.9c-0.5-1.7-1.1-3.3-1.7-5l-0.2-0.7c-0.6-1.6-1.2-3.2-1.8-4.9
		c0-0.1-0.1-0.2-0.1-0.3c-0.6-1.7-1.3-3.3-2-4.9l-0.4-0.9c-0.7-1.6-1.4-3.2-2.1-4.8c-0.1-0.2-0.2-0.5-0.3-0.8
		c-0.7-1.6-1.5-3.2-2.2-4.8l0-0.1c-0.8-1.6-1.6-3.2-2.4-4.8l-0.4-0.8c-0.8-1.5-1.6-3.1-2.5-4.6c-0.2-0.3-0.3-0.6-0.5-0.8
		c-0.9-1.6-1.8-3.1-2.7-4.6l-2,1.5c0.8,1.4,1.7,2.9,2.5,4.3L58.5,35.5z"/>
	<path class="st5" d="M67.9,174.9c0-42-14.3-82.7-40.6-115.4c-41.6,58.8-29.7,139.9,27,184.2l0.5-0.6
		C63.5,221.4,67.9,198.3,67.9,174.9z"/>
	<path class="st2" d="M54.8,243.1c1.2-1.6,2.4-3.3,3.7-5c0.5-0.7,1.1-1.4,1.6-2c0.9-2.7,1.8-5.4,2.6-8.1c0.1-0.3,0.2-0.6,0.3-1
		l0.4-1.5c0.2-0.7,0.4-1.3,0.5-2c0.1-0.5,0.3-1,0.4-1.4c0.2-0.7,0.4-1.4,0.5-2.1c0.1-0.5,0.2-0.9,0.3-1.4l0.5-2.2
		c0.1-0.4,0.2-0.9,0.3-1.3c0.2-0.9,0.4-1.7,0.6-2.6c0.1-0.3,0.1-0.6,0.2-0.9c0.2-1.2,0.5-2.3,0.7-3.5c0-0.2,0.1-0.4,0.1-0.7
		c0.2-0.9,0.3-1.9,0.5-2.8l0.2-1.2c0.1-0.8,0.2-1.5,0.3-2.3l0.2-1.4c0.1-0.7,0.2-1.4,0.3-2.1c0.1-0.5,0.1-1,0.2-1.5
		c0.1-0.7,0.2-1.4,0.2-2.1c0-0.5,0.1-1,0.1-1.5c0.1-0.7,0.1-1.4,0.2-2.1l0.1-1.5c0-0.7,0.1-1.4,0.1-2.1c0-0.5,0.1-1,0.1-1.4
		c0-0.7,0.1-1.4,0.1-2.2l0.1-1.4c0-0.8,0-1.6,0.1-2.4c0-0.4,0-0.8,0-1.1c0-1.2,0-2.4,0-3.5c0-1.6,0-3.2-0.1-4.7c0-0.5,0-0.9,0-1.4
		c0-1.2-0.1-2.3-0.2-3.5c0-0.5,0-0.9-0.1-1.4c-0.1-1.6-0.2-3.1-0.3-4.7l0,0c-0.1-1.6-0.3-3.1-0.5-4.7c0-0.5-0.1-0.9-0.2-1.4
		c-0.1-1.2-0.3-2.3-0.4-3.5l-0.2-1.4c-0.2-1.6-0.5-3.1-0.7-4.7l0,0c-0.3-1.6-0.6-3.1-0.8-4.6c-0.1-0.5-0.2-0.9-0.3-1.4
		c-0.2-1.2-0.5-2.3-0.7-3.5l-0.3-1.3c-0.4-1.5-0.7-3.1-1.1-4.6l0,0c-0.4-1.5-0.8-3-1.2-4.5c-0.1-0.4-0.2-0.9-0.4-1.3
		c-0.3-1.1-0.7-2.3-1-3.4c-0.1-0.4-0.3-0.9-0.4-1.3c-0.5-1.5-1-3-1.5-4.5V113c-0.5-1.5-1.1-2.9-1.6-4.4c-0.2-0.4-0.3-0.9-0.5-1.3
		c-0.4-1.1-0.9-2.2-1.3-3.3l-0.5-1.3c-0.6-1.5-1.3-2.9-1.9-4.4c0,0,0-0.1,0-0.1c-0.6-1.4-1.3-2.8-2-4.2c-0.2-0.4-0.4-0.8-0.6-1.3
		c-0.5-1.1-1.1-2.1-1.6-3.2l-0.6-1.2c-0.7-1.4-1.5-2.8-2.3-4.2L46.8,84c-0.8-1.4-1.5-2.7-2.3-4l-0.7-1.2c-0.6-1-1.2-2-1.9-3.1
		l-0.7-1.2c-0.9-1.3-1.8-2.7-2.7-4l-0.1-0.2c-0.9-1.3-1.8-2.5-2.7-3.8l-0.8-1.2c-0.7-1-1.4-1.9-2.2-2.9l-0.9-1.1c-1-1.3-2-2.5-3-3.8
		l-1.5,2.1C53.7,92.4,68,133.1,68,175.1C67.9,198.4,63.5,221.5,54.8,243.1z"/>
	<path class="st1" d="M257.5,91.7l-2.5,1l-3.8,1.5l-2.7,1.1l-3.5,1.5l-2.8,1.2l-3.4,1.5l-2.9,1.2l-3.4,1.5l-2.9,1.3l-3.3,1.5
		l-2.8,1.4l-3.3,1.6l-2.8,1.4l-3.4,1.8l-2.6,1.3c-1.9,1-3.9,2-5.8,3.1l-2.7,1.4c-1.1,0.6-2.2,1.2-3.3,1.8s-2,1.1-2.9,1.7l-3,1.7
		l-3,1.8c-1,0.6-1.9,1.1-2.9,1.7l-3,1.8l-2.8,1.8c-1,0.6-2,1.2-3,1.9s-1.9,1.2-2.8,1.8s-2,1.3-3,1.9l-2.7,1.8l-3,2l-2.7,1.9l-3,2
		c-0.9,0.6-1.8,1.3-2.7,1.9l-2.9,2.1c-0.9,0.6-1.8,1.3-2.7,2c-1.8,1.3-3.5,2.6-5.3,3.9c-0.9,0.7-1.9,1.4-2.8,2.1l-2.8,2.2l-2.7,2.1
		l-2.7,2.2c-0.9,0.7-1.8,1.4-2.7,2.2l-2.7,2.2l-2.7,2.2l-2.7,2.3l-2.7,2.3l-2.6,2.3l-2.7,2.4c-0.8,0.8-1.7,1.5-2.5,2.3l-2.7,2.5
		l-2.4,2.3c-0.9,0.9-1.9,1.8-2.8,2.6c-0.8,0.7-1.5,1.5-2.3,2.2c-1,1-2.1,2-3.1,3l-1.9,1.9c-1.6,1.6-3.3,3.3-4.9,4.9l-1.4,1.5
		c-1.2,1.2-2.3,2.4-3.4,3.6l-1.9,2l-3,3.2l-2,2.2l-2.8,3.1l-2,2.3c-0.9,1-1.8,2.1-2.7,3.1c-0.3,0.4-0.7,0.8-1,1.2l-0.1,0.1
		c0.3-0.4,0.7-0.7,1.1-1.1l2.1-2c1.1-1.1,2.2-2.2,3.4-3.2l2.2-2c1.2-1.1,2.3-2.1,3.5-3.1c0.7-0.6,1.4-1.2,2.1-1.8
		c1.3-1.2,2.7-2.3,4.1-3.4l1.6-1.3c1.9-1.5,3.8-3.1,5.8-4.5l1.5-1.1c1.4-1.1,2.9-2.2,4.4-3.2l2.3-1.6c1.2-0.9,2.5-1.8,3.8-2.6
		l2.5-1.7c1.2-0.8,2.4-1.6,3.7-2.4l2.5-1.6c1.3-0.8,2.6-1.6,3.8-2.4c0.8-0.5,1.6-1,2.4-1.4c1.5-0.9,3-1.8,4.5-2.6
		c0.6-0.3,1.2-0.7,1.8-1c2.1-1.1,4.2-2.3,6.3-3.4c0.7-0.4,1.3-0.7,2-1c1.5-0.8,3-1.5,4.5-2.2c0.9-0.4,1.7-0.8,2.6-1.2
		c1.3-0.6,2.6-1.2,4-1.9l2.8-1.2c1.3-0.6,2.6-1.1,3.9-1.7l2.8-1.2c1.4-0.6,2.8-1.1,4.2-1.6c0.9-0.3,1.7-0.7,2.6-1
		c1.7-0.6,3.4-1.3,5.1-1.9l1.6-0.6c2.2-0.8,4.5-1.5,6.7-2.2l2.2-0.7c1.5-0.5,3.1-1,4.6-1.4c0.9-0.3,1.8-0.5,2.7-0.8
		c1.4-0.4,2.8-0.8,4.2-1.2l2.8-0.7c1.4-0.4,2.8-0.7,4.2-1l2.8-0.6c1.5-0.3,3-0.6,4.5-1c0.8-0.2,1.7-0.4,2.5-0.5c2-0.4,4-0.8,6-1.1
		c0.3,0,0.7-0.1,1-0.2c2.3-0.4,4.7-0.8,7-1.1l2.3-0.3c1.6-0.2,3.2-0.4,4.9-0.6l2.7-0.3c1.5-0.2,3-0.3,4.5-0.4
		c0.9-0.1,1.9-0.2,2.8-0.2c1.5-0.1,3-0.2,4.5-0.3l2.7-0.2c1.6-0.1,3.2-0.1,4.9-0.2l2.3-0.1c2.4-0.1,4.8-0.1,7.2-0.1h0.5
		c1.6,0,3.3,0,4.9,0.1l0,0c0-0.1,0-0.2,0-0.2c0-0.6,0-1.3,0-1.9c0-0.5,0-0.9,0-1.4c0-0.7,0-1.4,0-2.1c0-0.4,0-0.8,0-1.2
		c0-0.9,0-1.8-0.1-2.7c0-0.2,0-0.4,0-0.6c0-1.1-0.1-2.2-0.2-3.3c0-0.4,0-0.7-0.1-1c0-0.8-0.1-1.5-0.2-2.3c0-0.4-0.1-0.9-0.1-1.3
		c-0.1-0.7-0.1-1.3-0.2-2c0-0.5-0.1-1-0.2-1.4s-0.1-1.2-0.2-1.8s-0.1-1-0.2-1.5s-0.2-1.2-0.3-1.8s-0.2-1-0.3-1.5s-0.2-1.2-0.3-1.7
		l-0.3-1.5c-0.1-0.6-0.2-1.2-0.4-1.7s-0.2-1-0.3-1.5s-0.2-1.1-0.4-1.7s-0.2-1-0.4-1.5s-0.3-1.1-0.4-1.7s-0.3-1-0.4-1.5l-0.5-1.7
		c-0.1-0.5-0.3-1-0.5-1.5s-0.3-1.1-0.5-1.7s-0.3-1-0.5-1.5s-0.4-1.1-0.6-1.7s-0.3-1-0.5-1.5l-0.6-1.7l-0.3-0.8l-1.8,0.7
		C260.4,90.6,259,91.1,257.5,91.7z"/>
	<path class="st6" d="M75.6,220.9l-0.2,0.2L75.6,220.9L75.6,220.9z"/>
	<path class="st2" d="M86.9,204.3c-4.6,5-9.1,10-13.5,15.2l-0.3,0.4c-3.2,3.8-6.3,7.6-9.4,11.4c-1.2,1.6-2.5,3.1-3.7,4.7
		c-0.5,0.7-1.1,1.4-1.6,2c-1.3,1.6-2.5,3.3-3.7,5l-0.5,0.6l0,0l1.7-1.1c6-7.4,12.5-14.5,19.3-21.2l0.2-0.2l0,0l0.2-0.2
		c0.3-0.4,0.7-0.8,1-1.2c0.9-1.1,1.8-2.1,2.7-3.1l2-2.3l2.8-3.1l2-2.2l3-3.2l1.9-2c1.1-1.2,2.3-2.4,3.4-3.6l1.5-1.5
		c1.6-1.7,3.2-3.3,4.9-4.9l1.9-1.9c1-1,2-2,3.1-3c0.8-0.8,1.5-1.5,2.3-2.2c0.9-0.9,1.8-1.8,2.8-2.6l2.4-2.3l2.7-2.6
		c0.8-0.8,1.7-1.5,2.5-2.3l2.7-2.4l2.6-2.3l2.7-2.3l2.7-2.3l2.7-2.2l2.7-2.2c0.9-0.7,1.8-1.4,2.7-2.2l2.7-2.2l2.7-2.1l2.8-2.2
		c0.9-0.7,1.9-1.4,2.8-2.1c1.7-1.3,3.5-2.6,5.3-3.9c0.9-0.7,1.8-1.3,2.7-2l2.9-2.1c0.9-0.6,1.8-1.3,2.7-1.9l3-2l2.7-1.9l3-2l2.7-1.8
		c1-0.6,2-1.3,3-1.9s1.8-1.2,2.8-1.8s2-1.3,3-1.9l2.8-1.7l3-1.8c1-0.6,1.9-1.2,2.9-1.7l3-1.8l3-1.7c1-0.6,1.9-1.1,2.9-1.7
		s2.2-1.2,3.3-1.8l2.6-1.5c1.9-1,3.9-2.1,5.8-3.1l2.6-1.3l3.5-1.8l2.8-1.4l3.3-1.6l2.8-1.4l3.3-1.6l2.9-1.3l3.4-1.5l2.9-1.2l3.4-1.5
		l2.7-1.2l3.6-1.5l2.7-1.1l3.7-1.5l2.5-1c1.4-0.6,2.9-1.1,4.3-1.6l1.8-0.7c-0.3-0.8-0.6-1.6-0.9-2.3
		C195.6,111.7,135.4,151.9,86.9,204.3z"/>
	<path class="st3" d="M259.5,145.1l-2.4,0.1c-1.6,0.1-3.3,0.1-4.9,0.2c-1,0-1.9,0.1-2.9,0.2c-1.5,0.1-2.9,0.2-4.4,0.3l-3.1,0.3
		c-1.4,0.1-2.8,0.3-4.2,0.4l-3.2,0.4l-4.1,0.5l-3.3,0.5c-1.3,0.2-2.7,0.4-4,0.6c-1.1,0.2-2.2,0.4-3.3,0.6c-1.3,0.2-2.6,0.5-4,0.7
		c-1.1,0.2-2.2,0.4-3.3,0.7c-1.3,0.3-2.6,0.6-3.9,0.8c-1.1,0.2-2.2,0.5-3.3,0.7l-3.9,1c-1.1,0.3-2.2,0.5-3.2,0.8
		c-1.3,0.3-2.6,0.7-3.9,1.1l-3.2,0.9c-1.3,0.4-2.6,0.8-4,1.2c-1,0.3-2,0.6-3.1,0.9c-1.4,0.4-2.7,0.9-4.1,1.4c-1,0.3-1.9,0.6-2.9,1
		c-1.5,0.5-2.9,1.1-4.4,1.6c-0.9,0.3-1.7,0.6-2.6,1c-1.9,0.7-3.8,1.5-5.7,2.3l-1.2,0.5c-2.3,0.9-4.5,1.9-6.8,2.9
		c-0.8,0.4-1.6,0.7-2.4,1.1c-1.4,0.7-2.9,1.3-4.4,2c-0.9,0.4-1.8,0.9-2.8,1.4c-1.3,0.6-2.6,1.3-3.9,2c-1,0.5-1.9,1-2.9,1.5
		c-1.2,0.7-2.5,1.3-3.7,2c-1,0.5-2,1.1-2.9,1.6c-1.2,0.7-2.4,1.4-3.6,2.1c-1,0.6-2,1.2-2.9,1.8c-1.2,0.7-2.3,1.4-3.5,2.1l-2.9,1.7
		l-3.4,2.2l-2.9,2c-1.1,0.8-2.2,1.6-3.3,2.3c-0.9,0.7-1.9,1.3-2.8,2c-1.1,0.8-2.2,1.6-3.3,2.5c-0.9,0.7-1.8,1.4-2.8,2.1
		c-1.1,0.9-2.2,1.7-3.3,2.6l-2.7,2.1c-1.1,0.9-2.2,1.8-3.3,2.8c-0.8,0.7-1.7,1.4-2.6,2.2c-1.1,1-2.2,2-3.3,3
		c-0.8,0.7-1.6,1.4-2.4,2.1c-1.2,1.1-2.4,2.2-3.5,3.3c-0.7,0.6-1.4,1.3-2,2c-1.5,1.4-3,2.9-4.4,4.4l-1,1c-0.9,0.9-1.8,1.9-2.7,2.8
		c53.2-44.4,124.9-59.6,191.5-40.6l0.8-1.8l0.4-1.1c0.2-0.6,0.5-1.3,0.7-1.9l0.4-1.2c0.2-0.6,0.4-1.2,0.6-1.8l0.4-1.2
		c0.2-0.6,0.4-1.2,0.6-1.8c0.1-0.4,0.2-0.8,0.4-1.2c0.2-0.6,0.4-1.2,0.5-1.9c0.1-0.4,0.2-0.8,0.3-1.1c0.2-0.7,0.4-1.4,0.5-2
		c0.1-0.3,0.2-0.7,0.3-1c0.2-0.9,0.5-1.8,0.7-2.7l0.1-0.3c0.2-1,0.5-2,0.7-3.1c0.1-0.3,0.1-0.6,0.2-0.9c0.1-0.7,0.3-1.5,0.4-2.2
		c0.1-0.4,0.1-0.8,0.2-1.1c0.1-0.6,0.2-1.3,0.3-1.9c0.1-0.4,0.1-0.8,0.2-1.2c0.1-0.6,0.2-1.2,0.3-1.9c0.1-0.4,0.1-0.8,0.2-1.2
		c0.1-0.6,0.1-1.2,0.2-1.9c0-0.4,0.1-0.8,0.1-1.2l0.2-1.9c0-0.4,0.1-0.8,0.1-1.1l0.1-2.2l0.1-0.9V145c-1.8,0-3.5-0.1-5.3-0.1
		C264.4,145,262,145,259.5,145.1z"/>
	<path class="st2" d="M267.4,142.4h-0.5c-2.4,0-4.8,0-7.2,0.1l-2.3,0.1c-1.6,0.1-3.2,0.1-4.9,0.2l-2.7,0.2c-1.5,0.1-3,0.2-4.5,0.3
		c-0.9,0.1-1.9,0.1-2.8,0.2c-1.5,0.1-3,0.3-4.5,0.4l-2.7,0.3c-1.6,0.2-3.2,0.4-4.9,0.6l-2.3,0.3c-2.4,0.3-4.7,0.7-7,1.1
		c-0.3,0.1-0.7,0.1-1,0.2c-2,0.4-4,0.7-6,1.1c-0.8,0.2-1.7,0.3-2.5,0.5c-1.5,0.3-3,0.6-4.5,1l-2.8,0.6c-1.4,0.3-2.8,0.7-4.2,1
		l-2.8,0.7c-1.4,0.4-2.8,0.8-4.2,1.2c-0.9,0.2-1.8,0.5-2.7,0.8c-1.6,0.4-3.1,0.9-4.6,1.4l-2.2,0.7c-2.2,0.7-4.5,1.5-6.7,2.2
		l-1.6,0.6c-1.7,0.6-3.4,1.2-5.1,1.9c-0.9,0.3-1.7,0.7-2.6,1c-1.4,0.5-2.8,1.1-4.2,1.6l-2.8,1.2c-1.3,0.6-2.6,1.1-3.9,1.7l-2.8,1.2
		c-1.3,0.6-2.6,1.2-4,1.9c-0.9,0.4-1.7,0.8-2.6,1.2c-1.5,0.7-3,1.5-4.5,2.2c-0.7,0.3-1.3,0.7-2,1c-2.1,1.1-4.2,2.2-6.3,3.4
		c-0.6,0.3-1.2,0.7-1.8,1c-1.5,0.9-3,1.7-4.5,2.6c-0.8,0.5-1.6,1-2.4,1.4c-1.3,0.8-2.6,1.6-3.8,2.4l-2.5,1.6
		c-1.2,0.8-2.5,1.6-3.7,2.4l-2.5,1.7c-1.3,0.9-2.5,1.7-3.8,2.6l-2.3,1.6c-1.5,1.1-2.9,2.2-4.4,3.2l-1.5,1.1c-1.9,1.5-3.9,3-5.8,4.5
		l-1.6,1.4c-1.4,1.1-2.7,2.3-4.1,3.4c-0.7,0.6-1.4,1.2-2.1,1.8c-1.2,1-2.4,2.1-3.5,3.1l-2.2,2c-1.1,1.1-2.3,2.1-3.4,3.2l-2.1,2
		c-0.4,0.4-0.8,0.9-1.3,1.3l-0.1,0.1c-6.8,6.8-13.2,13.9-19.2,21.3l2.1-1.6c4.1-4,8.3-7.9,12.7-11.5c0.9-0.9,1.8-1.9,2.7-2.8l1-1
		c1.5-1.5,2.9-3,4.4-4.4c0.7-0.7,1.4-1.3,2-2c1.2-1.1,2.3-2.2,3.5-3.3c0.8-0.7,1.6-1.4,2.4-2.1c1.1-1,2.2-2,3.3-3
		c0.8-0.7,1.7-1.4,2.6-2.2c1.1-0.9,2.2-1.9,3.3-2.8l2.7-2.1c1.1-0.9,2.2-1.7,3.3-2.6c0.9-0.7,1.8-1.4,2.8-2.1
		c1.1-0.8,2.2-1.6,3.3-2.5c0.9-0.7,1.9-1.4,2.8-2c1.1-0.8,2.2-1.6,3.3-2.3l2.9-2l3.4-2.2l2.9-1.9c1.2-0.7,2.3-1.4,3.5-2.1
		c1-0.6,1.9-1.2,2.9-1.8c1.2-0.7,2.4-1.4,3.6-2.1c1-0.6,2-1.1,2.9-1.6c1.2-0.7,2.4-1.3,3.7-2c1-0.5,1.9-1,2.9-1.5
		c1.3-0.7,2.6-1.3,3.9-2c0.9-0.5,1.8-0.9,2.8-1.4c1.4-0.7,2.9-1.4,4.4-2c0.8-0.4,1.6-0.7,2.4-1.1c2.2-1,4.5-2,6.8-2.9l1.2-0.5
		c1.9-0.8,3.8-1.6,5.7-2.3c0.9-0.3,1.7-0.6,2.6-1c1.5-0.6,2.9-1.1,4.4-1.6c1-0.4,1.9-0.7,2.9-1c1.4-0.5,2.7-0.9,4.1-1.4
		c1-0.3,2.1-0.6,3.1-0.9c1.3-0.4,2.6-0.8,4-1.2l3.2-0.9c1.3-0.4,2.6-0.7,3.9-1.1c1.1-0.3,2.2-0.6,3.2-0.8l3.9-1
		c1.1-0.3,2.2-0.5,3.3-0.7c1.3-0.3,2.6-0.6,3.9-0.8c1.1-0.2,2.2-0.4,3.3-0.7c1.3-0.2,2.6-0.5,4-0.7c1.1-0.2,2.2-0.4,3.3-0.6
		c1.3-0.2,2.7-0.4,4-0.6l3.3-0.5l4.1-0.5l3.2-0.4c1.4-0.1,2.8-0.3,4.2-0.4l3.1-0.3c1.5-0.1,2.9-0.2,4.4-0.3c1-0.1,1.9-0.1,2.9-0.2
		c1.6-0.1,3.3-0.1,4.9-0.2l2.4-0.1c2.5-0.1,4.9-0.1,7.4-0.1c1.8,0,3.5,0,5.3,0.1c0-0.8,0.1-1.7,0.1-2.5l0,0
		C270.7,142.5,269,142.5,267.4,142.4z"/>
	<path class="st4" d="M205,183.3c-48.8,0-96.1,17.2-133.4,48.7c52-31.3,116.1-35.3,171.6-10.7l1.6-2c0.8-1.1,1.6-2.1,2.4-3.2l0.7-1
		c0.5-0.8,1-1.5,1.6-2.3l0.8-1.2c0.5-0.7,1-1.5,1.5-2.3c0.2-0.4,0.4-0.7,0.7-1.1c0.6-1,1.3-2.1,1.9-3.1c0.1-0.1,0.1-0.2,0.1-0.2
		c0.6-1.1,1.3-2.2,1.9-3.4c0.2-0.4,0.4-0.7,0.5-1c0.4-0.8,0.8-1.6,1.2-2.4l0.6-1.2c0.4-0.8,0.8-1.6,1.1-2.4c0.2-0.4,0.4-0.8,0.5-1.1
		c0.3-0.8,0.7-1.5,1-2.3C243,186,224,183.4,205,183.3z"/>
	<path class="st2" d="M70.8,229.4c-4.3,3.6-8.6,7.5-12.7,11.6c4.4-3.2,8.9-6.2,13.5-9c52.5-44.3,123.6-59.6,189.7-40.9l0,0
		c0.3-0.8,0.7-1.6,1-2.3C195.7,169.9,124,185.1,70.8,229.4L70.8,229.4z"/>
	<path class="st5" d="M167.9,207.9c-40.3,0-79.4,13.1-111.5,37.5c57.7,43.3,139.3,33.6,185.2-22
		C218.4,213.1,193.2,207.8,167.9,207.9z"/>
	<path class="st2" d="M167.9,205.4c-33.9,0-67.2,9.2-96.2,26.6c-4.6,2.8-9.1,5.8-13.5,9l-2.1,1.6l-1.6,1.2l1.3,1l0.7,0.5
		c53.2-40.4,124-48.8,185.2-22c0.5-0.7,1.1-1.3,1.6-2l0,0C219.5,210.8,193.8,205.3,167.9,205.4z"/>
</g>
<g id="Typo">
	<rect x="0.3" y="0.1" class="st7" width="691.7" height="273.9"/>
	<path class="st2" d="M137.6,2.5c74.6,0,135,60.5,134.9,135.1s-60.5,135-135.1,134.9S2.5,212,2.5,137.4c0-29.5,9.7-58.3,27.6-81.8
		C55.6,22.1,95.4,2.4,137.6,2.5 M137.6,0L137.6,0c-20.8,0-41.4,4.7-60.1,13.8C24,39.7-6.7,97,1.2,155.9
		c9.2,68.1,67.4,119,136.1,119.1c20.8,0,41.4-4.7,60.1-13.8c53.4-25.9,84.1-83.2,76.2-142.1C264.5,50.9,206.3,0.1,137.6,0L137.6,0z"
		/>
	<path class="st4" d="M322.7,103.5c0-14.6,7.5-22.4,18.9-22.4s18.9,7.8,18.9,22.4s-7.4,22.4-18.9,22.4S322.7,118.1,322.7,103.5z
		 M351.7,106.8v-6.7c0-7.4-4-11.8-10.2-11.8s-10.2,4.4-10.2,11.8v6.7c0,7.4,4,11.8,10.2,11.8S351.8,114.2,351.7,106.8L351.7,106.8z"
		/>
	<path class="st4" d="M368.9,92.7h7.9v5.3h0.2c1.2-3.7,4.6-6.1,8.9-6.1c8.2,0,12.7,6.1,12.7,16.9s-4.5,17-12.7,17
		c-4,0.1-7.6-2.4-8.9-6.1h-0.2v17.8h-7.9L368.9,92.7z M390.4,111.7v-5.6c0-4.6-2.9-7.6-7-7.6c-3.8,0-6.6,2-6.6,5.2V114
		c0,3.3,2.9,5.3,6.6,5.3C387.6,119.3,390.4,116.3,390.4,111.7L390.4,111.7z"/>
	<path class="st4" d="M404.6,108.9c0-10.2,5.5-16.9,15-16.9c10.1,0,14.8,7.4,14.8,16.3v2.6h-21.5v0.8c0,4.7,2.7,7.8,7.9,7.8
		c3.9,0,6.3-1.9,8.2-4.4l4.3,4.8c-2.7,3.7-7.4,6-13.4,6C410.3,125.9,404.6,119.2,404.6,108.9z M412.8,105.5v0.5h13.3v-0.6
		c0-4.5-2.3-7.5-6.4-7.5S412.8,101.1,412.8,105.5z"/>
	<path class="st4" d="M442,125.1V92.7h7.9v5.4h0.3c1.3-3.5,4-6.1,9-6.1c6.6,0,10.4,4.6,10.4,12.7v20.5h-7.9v-19.7
		c0-4.6-1.5-6.9-5.3-6.9c-3.3,0-6.5,1.7-6.5,5.2v21.4H442z"/>
	<path class="st4" d="M492.1,118.7l5.5-5.3c2.7,3.4,6.8,5.4,11.1,5.3c5,0,7.6-2.4,7.6-6.1c0-2.9-1.4-4.7-5.9-5.5l-4.1-0.6
		c-8.8-1.4-13-5.5-13-12.6c0-7.8,6-12.8,15.7-12.8c6.5,0,11.4,2.2,14.8,6.4l-5.6,5.3c-2.3-3-5.9-4.6-9.7-4.5c-4.6,0-7.1,1.9-7.1,5.1
		s1.9,4.7,6,5.4l4,0.7c8.8,1.6,12.8,5.5,12.8,12.6c0,8.2-5.9,13.8-16.2,13.8C500.9,125.9,495.8,123,492.1,118.7z"/>
	<path class="st4" d="M530.6,108.9c0-10.4,5.8-16.9,15-16.9s15.1,6.5,15.1,16.9s-5.8,17-15.1,17S530.6,119.3,530.6,108.9z
		 M552.4,111.9v-6c0-4.8-2.6-7.5-6.8-7.5s-6.7,2.7-6.7,7.5v6c0,4.9,2.6,7.6,6.7,7.6S552.4,116.8,552.4,111.9L552.4,111.9z"/>
	<path class="st4" d="M587.7,119.7h-0.3c-1.1,3.2-3.7,6.1-9,6.1c-6.6,0-10.4-4.6-10.4-12.7V92.7h7.9v19.7c0,4.5,1.7,6.9,5.5,6.9
		c3.2,0,6.3-1.7,6.3-5.2V92.7h7.9v32.4h-7.9L587.7,119.7z"/>
	<path class="st4" d="M605.4,125.1V92.7h7.9v6.7h0.3c0.8-4.1,4.4-6.9,8.6-6.7h1.7v7.5h-2.5c-5.3,0-8.1,1.5-8.1,5v19.8L605.4,125.1z"
		/>
	<path class="st4" d="M628,108.9c0-10.4,5.4-16.9,14.9-16.9c6.5,0,10.8,3.1,12.7,8.2l-6.5,2.9c-0.6-2.9-3.3-4.9-6.2-4.7
		c-4.4,0-6.6,3.1-6.6,7.6v5.9c0,4.5,2.2,7.6,6.6,7.6c3.8,0,5.7-2.2,6.8-5.1l6.1,2.9c-2.1,5.7-6.6,8.6-12.9,8.6
		C633.4,125.9,628,119.3,628,108.9z"/>
	<path class="st4" d="M660.1,108.9c0-10.2,5.5-16.9,15-16.9c10.1,0,14.8,7.4,14.8,16.3v2.6h-21.5v0.8c0,4.7,2.7,7.8,7.9,7.8
		c3.9,0,6.3-1.9,8.2-4.4l4.3,4.8c-2.7,3.7-7.4,6-13.4,6C665.8,125.9,660.1,119.2,660.1,108.9z M668.3,105.5v0.5h13.3v-0.6
		c0-4.5-2.3-7.5-6.4-7.5S668.3,101.1,668.3,105.5z"/>
	<path class="st4" d="M324.6,193.1v-43.3h28.5v7.3h-20.3v10.5h18v7.3h-18v11h20.3v7.3L324.6,193.1z"/>
	<path class="st4" d="M359.2,176.9c0-10.4,5.4-16.9,14.9-16.9c6.5,0,10.8,3.1,12.7,8.2l-6.5,2.9c-0.6-2.9-3.3-4.9-6.2-4.7
		c-4.4,0-6.6,3.1-6.6,7.6v5.9c0,4.5,2.2,7.6,6.6,7.6c3.8,0,5.6-2.2,6.8-5.1l6.1,2.9c-2.1,5.7-6.6,8.6-12.9,8.6
		C364.5,193.9,359.2,187.3,359.2,176.9z"/>
	<path class="st4" d="M391.3,176.9c0-10.4,5.8-16.9,15-16.9s15.1,6.5,15.1,16.9s-5.8,17-15.1,17S391.3,187.3,391.3,176.9z
		 M413,179.9v-6c0-4.8-2.6-7.5-6.8-7.5s-6.7,2.7-6.7,7.5v6c0,4.9,2.6,7.6,6.7,7.6S413,184.8,413,179.9L413,179.9z"/>
	<path class="st4" d="M429,193.1v-32.4h8v5.4h0.3c1.3-3.5,4-6.1,9.1-6.1c6.6,0,10.4,4.6,10.4,12.7v20.5h-7.9v-19.7
		c0-4.6-1.5-6.9-5.3-6.9c-3.3,0-6.5,1.7-6.5,5.2v21.4H429z"/>
	<path class="st4" d="M463.9,176.9c0-10.4,5.8-16.9,15-16.9s15.1,6.5,15.1,16.9s-5.8,17-15.1,17S463.9,187.3,463.9,176.9z
		 M485.7,179.9v-6c0-4.8-2.6-7.5-6.8-7.5s-6.7,2.7-6.7,7.5v6c0,4.9,2.6,7.6,6.7,7.6S485.7,184.8,485.7,179.9L485.7,179.9z"/>
	<path class="st4" d="M501.6,193.1v-32.4h7.9v5.4h0.3c1.1-3.8,4.7-6.3,8.7-6.1c4.2-0.2,8.1,2.5,9.4,6.5h0.1c1.2-3.6,4.8-6.5,9.9-6.5
		c6.3,0,9.9,4.6,9.9,12.7v20.5H540v-19.7c0-4.6-1.7-6.9-5.2-6.9c-3.1,0-6,1.7-6,5.2v21.4h-7.9v-19.7c0-4.6-1.7-6.9-5.2-6.9
		c-3,0-6,1.7-6,5.2v21.4H501.6z"/>
	<path class="st4" d="M556.6,152v-1.2c0-2.3,1.4-4,4.7-4s4.7,1.7,4.7,4v1.2c0,2.3-1.4,4-4.7,4S556.6,154.3,556.6,152z M557.3,160.7
		h7.9v32.4h-7.9V160.7z"/>
	<path class="st4" d="M572.9,176.9c0-10.4,5.4-16.9,14.9-16.9c6.5,0,10.8,3.1,12.7,8.2l-6.5,2.9c-0.6-2.9-3.3-4.9-6.2-4.7
		c-4.4,0-6.6,3.1-6.6,7.6v5.9c0,4.5,2.2,7.6,6.6,7.6c3.8,0,5.7-2.2,6.8-5.1l6.1,2.9c-2.1,5.7-6.6,8.6-12.9,8.6
		C578.3,193.9,572.9,187.3,572.9,176.9z"/>
	<path class="st4" d="M604.7,187.9l4.8-4.7c2.1,2.7,5.4,4.4,8.9,4.4c3.8,0,5.4-1.4,5.4-3.7c0-1.9-1.1-3-4-3.4l-3.2-0.4
		c-7-0.9-10.8-3.9-10.8-9.8c0-6.3,4.9-10.2,12.3-10.2c6.3,0,9.5,1.9,12.7,5.1l-4.7,4.6c-2-2.2-4.8-3.4-7.8-3.5
		c-3.4,0-4.9,1.4-4.9,3.4c0,2.2,1.2,3.2,4.2,3.7l3.3,0.4c7.1,1,10.5,4.2,10.5,9.6c0,6.3-5.3,10.6-13.3,10.6
		C612,193.9,608,191.6,604.7,187.9z"/>
</g>
</svg>
