<?xml version="1.0" encoding="UTF-8" standalone="no"?>
<svg
   xmlns:dc="http://purl.org/dc/elements/1.1/"
   xmlns:cc="http://creativecommons.org/ns#"
   xmlns:rdf="http://www.w3.org/1999/02/22-rdf-syntax-ns#"
   xmlns:svg="http://www.w3.org/2000/svg"
   xmlns="http://www.w3.org/2000/svg"
   xmlns:sodipodi="http://sodipodi.sourceforge.net/DTD/sodipodi-0.dtd"
   xmlns:inkscape="http://www.inkscape.org/namespaces/inkscape"
   inkscape:version="1.0 (4035a4f, 2020-05-01)"
   sodipodi:docname="sidebar_logo_acblue.svg"
   viewBox="0 0 1008 1120"
   height="1120"
   width="1008"
   id="svg2028"
   version="1.1">
  <metadata
     id="metadata2034">
    <rdf:RDF>
      <cc:Work
         rdf:about="">
        <dc:format>image/svg+xml</dc:format>
        <dc:type
           rdf:resource="http://purl.org/dc/dcmitype/StillImage" />
        <dc:title></dc:title>
      </cc:Work>
    </rdf:RDF>
  </metadata>
  <defs
     id="defs2032" />
  <sodipodi:namedview
     inkscape:pagecheckerboard="true"
     inkscape:current-layer="g2036"
     inkscape:window-maximized="0"
     inkscape:window-y="24"
     inkscape:window-x="0"
     inkscape:cy="801.35626"
     inkscape:cx="511.54177"
     inkscape:zoom="0.79539163"
     showgrid="false"
     id="namedview2030"
     inkscape:window-height="804"
     inkscape:window-width="1440"
     inkscape:pageshadow="2"
     inkscape:pageopacity="0"
     guidetolerance="10"
     gridtolerance="10"
     objecttolerance="10"
     borderopacity="1"
     bordercolor="#666666"
     pagecolor="#ffffff" />
  <g
     id="g2036"
     inkscape:label="Image"
     inkscape:groupmode="layer">
    <path
       d="m 504.42383,6.5664063 c -3.36421,0.053133 -6.71805,0.4472668 -9.9668,1.1621093 -21.055,4.6329204 -29.69487,25.0169754 -39.42187,41.9843754 -21.243,37.0525 -42.758,73.947999 -64,110.999999 -88.442,154.267 -178.57852,307.566 -266.72852,462 -31.079,54.448 -61.971881,109.136 -94.050781,163 -12.8801,21.627 -32.891439,47.13 -18.898437,73 15.3097,28.304 49.980407,23 77.099608,23 h 212 523 120 c 20.375,0 41.50927,-0.636 53.52927,-20 13,-20.935 3.61,-39.9 -7.25,-59 -15.22996,-26.791 -33.24627,-53.084 -46.27927,-81 -13.038,6.167 -24.545,13.59478 -39,16.55078 -44.23496,9.045 -90.70978,-10.49378 -115.30078,-48.55078 -6.105,-9.448 -11.05969,-20.073 -13.80469,-31 -1.731,-6.892 -1.90053,-14.269 -3.89453,-21 -7.138,3.392 -13.065,8.88145 -20,12.68945 -15.886,8.725 -34.83,14.47549 -53,15.27149 -43.608,1.909 -86.84255,-20.12294 -110.56055,-56.96094 -13.103,-20.351 -19.62848,-43.925 -20.39648,-68 -0.625,-19.616 7.74003,-36.752 12.95703,-55 -64.581,-13.366 -99.36845,-88.239 -72.68945,-147 12.709,-27.991 35.80045,-44.422 62.68945,-57 -8.553,-12.19 -18.08769,-22.678 -23.30469,-37 -12.458,-34.202 -4.73948,-72.879 19.47852,-100 8.583,-9.613 18.94417,-16.339 29.82617,-23 -10.94,-23.4321 -26.108,-45.5687 -39,-67.999999 -7.253,-12.6193 -13.75395,-28.205556 -25.00195,-37.785157 -7.7505,-6.6012146 -17.93864,-9.5207257 -28.03125,-9.3613277 z"
       style="fill:#17a7c1;stroke:none;fill-opacity:1"
       id="path2044" />
    <path
       d="m 543.45201,957.86647 c -2.86258,-0.021 -5.71598,0.12704 -8.5284,0.4725 -16.42128,2.0175 -32.42222,8.64825 -43.82163,21.00143 -20.48318,22.209 -24.40142,57.3875 -15.99053,85.5708 3.58209,12.001 9.91922,23.4657 19.2554,31.9673 16.5152,15.0423 38.79014,19.1529 60.34702,16.5055 6.86236,-0.8432 13.46221,-2.8459 19.79026,-5.6136 32.72869,-14.3165 43.9747,-52.4035 39.75441,-85.4084 -1.43987,-11.2677 -4.76955,-22.39 -10.67205,-32.15958 -9.27681,-15.36298 -23.98651,-25.97877 -41.4517,-30.02228 -6.04451,-1.39979 -12.38519,-2.26749 -18.68278,-2.31367 z m 269.0093,0.0155 c -2.80444,-0.0255 -5.6059,0.11596 -8.38586,0.45744 -16.65376,2.04595 -32.88774,8.85448 -44.33656,21.48279 -7.30772,8.05968 -12.36435,17.80921 -15.4417,28.1923 -8.61393,29.0457 -4.61527,66.216 18.24282,87.9607 16.88137,16.0602 39.93751,20.1287 62.31567,17.268 5.99654,-0.7669 11.73081,-2.5858 17.31666,-4.8548 39.19042,-15.9265 49.37713,-65.9462 37.45814,-102.8487 -3.2456,-10.0546 -8.59332,-19.46178 -15.83159,-27.18872 -8.75735,-9.34739 -20.59238,-15.44959 -33.00603,-18.21416 -5.97982,-1.33112 -12.16167,-2.19837 -18.33155,-2.25485 z m 148.17027,1.26864 c -19.57805,-0.14354 -40.20698,6.90689 -46.96146,27.09378 -1.63271,4.88829 -2.13645,10.21075 -1.80993,15.33791 0.32663,5.0882 1.32015,10.2457 3.60114,14.8431 7.19873,14.5105 25.08425,21.3382 39.02174,27.5411 9.09867,4.0492 20.65759,8.6234 25.50635,17.978 7.27788,14.0241 -2.81531,28.9328 -17.09417,31.9909 -17.79665,3.8122 -34.12501,-3.7239 -49.47755,-11.707 -1.17761,4.5429 -1.62718,9.2197 -2.31489,13.8531 -0.3068,2.0602 -0.91044,4.579 0.11862,6.5309 1.06884,2.0196 3.68576,2.9292 5.66483,3.7649 5.33354,2.2561 11.11819,3.8308 16.8179,4.8322 22.26929,3.9121 50.41144,2.5697 63.49314,-19.0853 3.1319,-5.1781 4.7981,-10.8246 5.3572,-16.8216 0.4701,-5.0101 0.3177,-10.4033 -0.7362,-15.3381 -4.4332,-20.8138 -26.53509,-29.3655 -43.87165,-37.2832 -7.57477,-3.4589 -16.55874,-7.4292 -21.74884,-14.1981 -9.39555,-12.24538 0.21709,-27.69273 13.83304,-30.46473 8.72766,-1.77627 18.51416,-0.54449 26.71741,2.79991 5.04164,2.0557 9.62814,5.37041 14.84304,6.90965 0.4997,-4.47759 1.281,-8.90876 1.9786,-13.35811 0.3265,-2.0855 0.9153,-4.60252 -0.3612,-6.48965 -1.316,-1.94816 -3.9831,-2.84498 -6.071,-3.67236 -5.106,-2.02458 -10.38924,-3.51585 -15.83166,-4.27478 -3.45871,-0.48224 -7.04888,-0.75594 -10.67446,-0.78252 z m -305.78382,1.14625 c -1.90674,0.0122 -3.75166,0.26948 -4.87732,1.24495 -1.82067,1.58364 -1.25115,5.24914 -1.25115,7.38592 v 19.29528 123.19649 h 79.16237 v -19.2953 h -41.06548 c -3.62661,0 -7.25909,0.048 -10.88072,-0.011 -1.58819,-0.026 -3.54631,0.048 -4.8772,-0.9749 -2.14232,-1.6506 -1.55873,-5.5617 -1.55873,-7.9197 v -20.7802 -75.20387 -18.80163 c -0.0111,-2.03621 0.47926,-5.3846 -1.25248,-6.89082 -1.91969,-1.66461 -5.81301,-1.02431 -8.14827,-1.02497 -1.37553,-6.7e-4 -3.34429,-0.2326 -5.25102,-0.21997 z m -642.473643,0.0609 c -1.605755,0.0144 -3.173462,0.21399 -4.301032,0.95497 -2.441172,1.60426 -1.558681,6.62966 -1.558681,9.09828 v 25.23378 81.14111 22.7589 c 0,2.9434 -0.759215,7.2577 0.568731,9.9745 0.888594,1.8172 3.129821,1.8336 4.884758,1.8811 4.608236,0.1242 9.231612,0.019 13.841819,0.019 v -75.6987 -24.2438 l 0.494986,-15.83171 c 22.280731,31.49721 45.953337,62.13431 69.081612,93.01551 3.69742,4.9367 7.37858,9.8867 11.05071,14.8419 1.83562,2.4767 3.71455,5.7996 6.61093,7.1582 2.19132,1.0282 4.90802,0.7595 7.26215,0.7575 1.88503,0 4.2684,0.2866 6.01596,-0.5673 2.75974,-1.3493 1.89939,-6.3529 1.89991,-8.8322 v -27.2111 -113.79583 l -12.86063,-0.48746 -5.44848,1.28371 -0.9862,8.10963 v 21.2739 52.44505 l -0.49499,28.6972 C 96.24664,1056.0386 84.11843,1039.6942 71.993711,1023.3511 63.910258,1012.4553 55.824669,1001.5605 47.698652,990.6964 L 32.964363,970.90614 c -2.267512,-3.03505 -4.560941,-7.38891 -7.923359,-9.32578 -2.386744,-1.37497 -5.488135,-1.06119 -8.137103,-1.06374 -1.280951,0 -2.924019,-0.17289 -4.529784,-0.15872 z m 254.386323,0.15872 c -1.26361,7.53411 -0.49496,15.63023 -0.49496,23.25385 v 42.05427 33.6446 c 0,4.3604 1.15314,10.7759 -0.98621,14.7281 -2.77067,5.1177 -10.39483,8.8831 -15.34051,11.5543 -16.81651,9.0835 -45.84518,15.707 -57.77592,-4.516 -6.53287,-11.0728 -4.56479,-25.301 -4.56479,-37.5993 v -51.95007 c 0,-8.75978 0.79626,-17.94766 -0.10378,-26.66126 -0.38839,-3.75842 -3.09394,-3.97628 -6.33218,-4.00851 -4.91599,-0.0487 -9.97777,-0.32675 -14.83928,0.48877 1.6856,10.87254 0.49497,22.65387 0.49497,33.64458 v 63.32949 c 0,8.0182 -0.2738,15.9737 2.04864,23.7488 5.90896,19.7827 23.57094,29.905 43.4704,30.6273 7.47834,0.2711 14.9671,0.067 22.26391,-1.7224 12.40572,-3.0439 22.04117,-10.2626 33.14962,-16.0406 l 1.68492,10.8732 1.9599,4.4675 5.2635,0.9798 10.387,0.011 V 961.01493 Z m 63.82439,0 -15.83173,0.49366 c 15.64442,39.32546 31.6554,78.50936 47.50268,117.75306 l 9.39954,23.2539 c 1.16264,2.8824 2.24211,7.559 4.94355,9.4045 1.42492,0.9743 3.29477,0.9473 4.95219,0.975 3.47321,0.058 7.35203,0.4409 10.77573,-0.1938 4.06201,-0.7521 5.04146,-5.9274 6.39217,-9.1957 3.74048,-9.032 7.25357,-18.1578 10.93954,-27.2125 15.54052,-38.1884 30.84422,-76.48276 46.10274,-114.78446 l -15.33804,-0.49244 -6.78338,1.55618 -4.69479,10.31574 -9.00954,23.25384 -21.49265,55.41364 -11.94945,31.6646 h -1.48374 l -10.65699,-28.2011 -23.06134,-58.87714 -9.22705,-23.74883 -4.75476,-10.08824 z m 212.59582,16.6417 c 13.94934,0.13447 27.53837,5.13306 36.93945,16.02287 7.83705,9.08095 11.64143,20.89785 13.01198,32.63965 2.95862,25.2959 -4.40803,54.2287 -29.51244,65.5781 -4.21541,1.9048 -8.77773,2.8784 -13.35932,3.4098 -17.91044,2.0791 -35.33011,-3.717 -46.31395,-18.5253 -6.56053,-8.8404 -9.71719,-19.8424 -10.80076,-30.6723 -2.50849,-25.1306 4.55655,-53.04666 29.40866,-64.3743 4.05702,-1.85047 8.42507,-3.14082 12.86311,-3.65985 2.58347,-0.30214 5.18013,-0.44359 7.76327,-0.41867 z m 268.91693,0 c 13.55558,0.0809 26.90846,4.74296 36.25948,15.05417 8.40115,9.26405 12.41354,21.38375 13.87313,33.60835 3.03781,25.4647 -4.59199,54.5864 -29.95359,65.7894 -4.05702,1.7916 -8.47458,2.6895 -12.86311,3.1985 -15.2882,1.7747 -30.84931,-1.9794 -41.84291,-13.2156 -9.07899,-9.2831 -13.66999,-21.7826 -15.15927,-34.497 -2.98343,-25.4784 4.02236,-55.07449 29.78979,-66.13056 3.92345,-1.68266 8.12424,-2.89216 12.36934,-3.38859 2.50007,-0.2923 5.01687,-0.43373 7.52714,-0.41867 z"
       style="fill:#17a7c1;stroke:none;stroke-width:0.494765;fill-opacity:1"
       id="path1229" />
  </g>
</svg>
