<svg xmlns="http://www.w3.org/2000/svg" viewBox="0 0 275.11937 275.11918"><defs><style>.cls-1{fill:#30bced;}.cls-2{fill:#187fb9;}.cls-3{fill:#fff;}.cls-4{fill:#0c619f;}.cls-5{fill:#004c8d;}.cls-6{fill:#004385;}.cls-7{fill:#7fa1c2;}.cls-8{fill:none;}</style></defs><g id="Layer_3" data-name="Layer 3"><path class="cls-1" d="M108.86043,78.34435c.05719,2.28137.0962,4.56359.09614,6.847C108.95663,82.90788,108.91756,80.62572,108.86043,78.34435Z"/><path class="cls-1" d="M108.95657,85.19133q0,2.465-.04859,4.931Q108.95247,87.65651,108.95657,85.19133Z"/><path class="cls-1" d="M108.7001,96.85326q-.07306,1.70754-.16883,3.41485Q108.62576,98.56084,108.7001,96.85326Z"/><path class="cls-1" d="M106.33688,47.4865q.433,3.1105.79125,6.23089Q106.76669,50.59756,106.33688,47.4865Z"/><path class="cls-1" d="M107.28469,55.06523q.36913,3.33033.65759,6.66925Q107.65481,58.39556,107.28469,55.06523Z"/><path class="cls-1" d="M108.53677,70.11522q.1853,3.35358.28314,6.71258Q108.71709,73.4692,108.53677,70.11522Z"/><path class="cls-1" d="M108.04543,63.02025q.24885,3.05823.43067,6.12213Q108.29583,66.07848,108.04543,63.02025Z"/><path class="cls-1" d="M108.87112,91.67155q-.04085,1.71983-.10187,3.43958Q108.83179,93.3913,108.87112,91.67155Z"/><path class="cls-1" d="M106.91933,118.39891q-.20957,1.706-.44189,3.41022Q106.7087,120.10479,106.91933,118.39891Z"/><path class="cls-1" d="M106.26217,123.38976q-.30981,2.187-.65521,4.37078Q105.95265,125.57683,106.26217,123.38976Z"/><path class="cls-1" d="M105.52376,128.30589q-.39385,2.45508-.836,4.90515Q105.12712,130.76073,105.52376,128.30589Z"/><path class="cls-1" d="M108.10079,106.78032q-.19582,2.46588-.44018,4.92963Q107.90148,109.24608,108.10079,106.78032Z"/><path class="cls-1" d="M108.44338,101.84886q-.14127,2.31006-.32025,4.6192Q108.30385,104.15911,108.44338,101.84886Z"/><path class="cls-1" d="M98.44607,8.27556q1.90887-.57524,3.83246-1.09308Q100.3551,7.70076,98.44607,8.27556Z"/><path class="cls-1" d="M104.42525,134.62529q-.32519,1.75992-.67218,3.51715Q104.1019,136.38546,104.42525,134.62529Z"/><path class="cls-1" d="M128.03335,2.8452c1.47766-.10431,2.95678-.1911,4.43774-.24707C130.99,2.654,129.51107,2.74089,128.03335,2.8452Z"/><path class="cls-1" d="M112.75356,4.79424c1.4491-.26966,2.90308-.511,4.35987-.73322C115.65664,4.28331,114.20266,4.52458,112.75356,4.79424Z"/><path class="cls-1" d="M122.56527,3.33476c1.48041-.16485,2.96435-.29724,4.44977-.41339C125.52962,3.03746,124.04574,3.16991,122.56527,3.33476Z"/><path class="cls-1" d="M118.10293,3.91533c1.43414-.20807,2.8706-.39984,4.31073-.56189C120.97347,3.51543,119.53713,3.70726,118.10293,3.91533Z"/><path class="cls-1" d="M103.05581,6.97112q2.13245-.561,4.28113-1.05085Q105.18875,6.41137,103.05581,6.97112Z"/><path class="cls-1" d="M108.24245,5.71989q1.96234-.43451,3.93579-.81268Q110.20456,5.28331,108.24245,5.71989Z"/><path class="cls-1" d="M100.36282,17.19444q.83432,3.24995,1.5852,6.51868Q101.19409,20.44524,100.36282,17.19444Z"/><path class="cls-1" d="M105.19784,40.06609c.37249,2.22631.72381,4.45611,1.04107,6.69073C105.92171,44.52214,105.57027,42.29247,105.19784,40.06609Z"/><path class="cls-1" d="M102.26894,25.1331c.4798,2.13153.94055,4.267,1.369,6.40869C103.20949,29.40013,102.7488,27.26469,102.26894,25.1331Z"/><path class="cls-1" d="M103.70986,31.88835c.44354,2.23194.85046,4.47052,1.2381,6.71228C104.56039,36.35887,104.15334,34.12035,103.70986,31.88835Z"/><path class="cls-1" d="M97.95888,8.42064l-.0122.00366c.06244.21344.13208.425.194.63861C98.0787,8.84917,98.02138,8.63426,97.95888,8.42064Z"/><path class="cls-1" d="M98.46877,10.22276q.8335,2.92329,1.60163,5.86286Q99.30263,13.14613,98.46877,10.22276Z"/><path class="cls-1" d="M132.84756,2.588c1.3833-.0484,2.76794-.07123,4.15307-.07721C135.61544,2.51677,134.23092,2.53966,132.84756,2.588Z"/><path class="cls-1" d="M107.50613,113.19908q-.18027,1.74491-.3816,3.48865Q107.32751,114.9441,107.50613,113.19908Z"/><path class="cls-1" d="M91.92568,191.80284c.5285-.86047,1.05744-1.72064,1.57953-2.58349C92.98312,190.0822,92.45412,190.94243,91.92568,191.80284Z"/><path class="cls-1" d="M96.78921,183.697c.37036-.63221.749-1.2613,1.116-1.89472C97.53823,182.43571,97.15957,183.0648,96.78921,183.697Z"/><path class="cls-1" d="M102.061,174.4713c.38751-.69867.76306-1.40143,1.1466-2.1015C102.82412,173.06981,102.44857,173.77263,102.061,174.4713Z"/><path class="cls-1" d="M87.2485,199.2636c.535-.83436,1.062-1.67157,1.59088-2.50831C88.31057,197.592,87.78347,198.42931,87.2485,199.2636Z"/><path class="cls-1" d="M77.70852,211.61986q-1.19751,2.27-2.4419,4.524Q76.51083,213.88991,77.70852,211.61986Z"/><path class="cls-1" d="M106.13253,166.951q.72758-1.37228,1.44189-2.74878Q106.8572,165.57787,106.13253,166.951Z"/><path class="cls-1" d="M82.50613,206.52019c.32482-.486.63934-.97614.96209-1.463C83.14553,205.54405,82.831,206.03416,82.50613,206.52019Z"/><path class="cls-1" d="M76.24123,215.63066c.46253-.6571.93207-1.31122,1.39063-1.97C77.1733,214.31938,76.70376,214.97356,76.24123,215.63066Z"/><path class="cls-1" d="M125.4407,125.583c.36694-.90307.73809-1.80487,1.09887-2.70959C126.17879,123.77806,125.80764,124.68,125.4407,125.583Z"/><path class="cls-1" d="M129.27572,115.84532q.23025-.60681.4599-1.21362Q129.5072,115.239,129.27572,115.84532Z"/><path class="cls-1" d="M122.08584,133.62328q.62218-1.44993,1.2326-2.90314Q122.70706,132.173,122.08584,133.62328Z"/><path class="cls-1" d="M110.14309,159.198c.4541-.89807.91052-1.79522,1.35809-2.69537C111.05361,157.40276,110.59719,158.3,110.14309,159.198Z"/><path class="cls-1" d="M118.67843,141.37627c.37555-.83149.73932-1.66626,1.10943-2.49927C119.41775,139.71,119.054,140.54485,118.67843,141.37627Z"/><path class="cls-1" d="M114.43758,150.47874c.2547-.53192.51819-1.06115.77063-1.59381C114.95577,149.41759,114.69228,149.94682,114.43758,150.47874Z"/><path class="cls-1" d="M101.21236,149.65422q-.59427,2.43348-1.23663,4.85895Q100.616,152.08739,101.21236,149.65422Z"/><path class="cls-1" d="M98.16347,161.02922q-.48439,1.66525-.99145,3.326Q97.6785,162.69426,98.16347,161.02922Z"/><path class="cls-1" d="M99.61489,155.84575q-.47663,1.76945-.97607,3.53473Q99.14006,157.61552,99.61489,155.84575Z"/><path class="cls-1" d="M96.6907,165.928q-.62019,1.99054-1.27314,3.97413Q96.06952,167.91828,96.6907,165.928Z"/><path class="cls-1" d="M95.15,170.728q-.79551,2.39466-1.63874,4.77844Q94.35308,173.12233,95.15,170.728Z"/><path class="cls-1" d="M102.34957,144.78545q-.47013,2.09234-.97443,4.17956Q101.879,146.87779,102.34957,144.78545Z"/><path class="cls-1" d="M103.41109,139.83244q-.34624,1.68788-.71508,3.37262Q103.064,141.52013,103.41109,139.83244Z"/><path class="cls-1" d="M82.3799,202.32341q-.75594,1.577-1.53411,3.14709Q81.62371,203.90038,82.3799,202.32341Z"/><path class="cls-1" d="M87.32015,191.42076q-.99636,2.33909-2.04034,4.66461Q86.32287,193.75958,87.32015,191.42076Z"/><path class="cls-1" d="M84.74294,197.26079q-.79266,1.74509-1.60968,3.483Q83.95229,199.00646,84.74294,197.26079Z"/><path class="cls-1" d="M80.071,207.02812q-.88688,1.76166-1.80359,3.51373Q79.182,208.78918,80.071,207.02812Z"/><path class="cls-1" d="M93.05825,176.76274q-.63227,1.76275-1.28809,3.51978Q92.42788,178.52589,93.05825,176.76274Z"/><path class="cls-1" d="M89.26839,186.71477q-.75686,1.87391-1.54486,3.7395Q88.50988,188.58824,89.26839,186.71477Z"/><path class="cls-1" d="M91.158,181.89671q-.62054,1.62561-1.26349,3.24543Q90.537,183.5222,91.158,181.89671Z"/><path class="cls-1" d="M249.45608,212.79619q-.7663,1.1369-1.56061,2.26208Q248.688,213.93227,249.45608,212.79619Z"/><path class="cls-1" d="M272.41158,140.32616c-.01318.64886-.024,1.29767-.04663,1.94653C272.38747,141.62376,272.39834,140.975,272.41158,140.32616Z"/><path class="cls-1" d="M272.43813,136.84337c.00379.70349.00946,1.40692.00226,2.11072C272.44759,138.25035,272.44186,137.54686,272.43813,136.84337Z"/><path class="cls-1" d="M90.73232,10.85q2.20624-.81225,4.43787-1.54278Q92.94,10.0414,90.73232,10.85Z"/><path class="cls-1" d="M272.36489,132.95982c.03033.89264.057,1.78553.0697,2.679C272.42184,134.74535,272.39522,133.85252,272.36489,132.95982Z"/><path class="cls-1" d="M271.92959,125.71928c.06585.75147.11828,1.50409.17163,2.25666C272.04787,127.22337,271.99544,126.47075,271.92959,125.71928Z"/><path class="cls-1" d="M272.17928,129.02043q.10419,1.6507.16852,3.30408Q272.28381,130.67115,272.17928,129.02043Z"/><path class="cls-1" d="M272.026,148.22325c-.03009.38049-.066.76062-.0993,1.14093C271.96,148.98381,271.996,148.60368,272.026,148.22325Z"/><path class="cls-1" d="M271.59975,122.42662c.07331.65265.13446,1.30658.19825,1.96027C271.73415,123.7332,271.67306,123.07927,271.59975,122.42662Z"/><path class="cls-1" d="M269.84475,163.93724c-.05676.28473-.10907.57013-.16766.85468C269.73568,164.50737,269.788,164.222,269.84475,163.93724Z"/><path class="cls-1" d="M269.01327,167.84166c-.02106.09131-.0448.18219-.066.2735C268.96847,168.02385,268.99227,167.933,269.01327,167.84166Z"/><path class="cls-1" d="M270.45992,160.63127c-.06463.37287-.12677.746-.19458,1.11859C270.33315,161.3773,270.39529,161.00414,270.45992,160.63127Z"/><path class="cls-1" d="M271.39407,154.38347q-.07755.61871-.161,1.23688Q271.31638,155.0021,271.39407,154.38347Z"/><path class="cls-1" d="M271.74624,151.29729c-.04157.40759-.08728.81488-.13263,1.22223C271.659,152.11211,271.70467,151.70488,271.74624,151.29729Z"/><path class="cls-1" d="M270.9678,157.48351c-.06019.40356-.12012.80719-.184,1.21044C270.84768,158.2907,270.90761,157.88713,270.9678,157.48351Z"/><path class="cls-1" d="M267.05648,99.71349q.24133.83092.47034,1.665C267.373,100.82268,267.21743,100.26744,267.05648,99.71349Z"/><path class="cls-1" d="M266.08877,96.53062q.2634.82985.515,1.663Q266.35129,97.36079,266.08877,96.53062Z"/><path class="cls-1" d="M263.91653,90.23161q.30789.82645.60553,1.65619Q264.22515,91.05779,263.91653,90.23161Z"/><path class="cls-1" d="M265.04214,93.36961q.28564.82883.56042,1.66108Q265.32781,94.19848,265.04214,93.36961Z"/><path class="cls-1" d="M151.55794,3.22588q2.03119.211,4.05774.4873Q153.58889,3.44036,151.55794,3.22588Z"/><path class="cls-1" d="M147.40169,2.8654q1.75443.12763,3.507.29987Q149.15616,2.99178,147.40169,2.8654Z"/><path class="cls-1" d="M142.46816,2.59245c1.264.04566,2.528.1128,3.79157.194C144.99612,2.70531,143.73226,2.63811,142.46816,2.59245Z"/><path class="cls-1" d="M269.48055,109.35991c.12134.57135.23493,1.14429.34888,1.7171C269.71542,110.5042,269.602,109.93138,269.48055,109.35991Z"/><path class="cls-1" d="M270.13015,112.60875c.10834.57928.20782,1.16009.30865,1.74072C270.338,113.76884,270.23849,113.1881,270.13015,112.60875Z"/><path class="cls-1" d="M268.27944,170.85869c-.084.32947-.17438.65771-.26086.98675C268.10506,171.5164,268.19552,171.18816,268.27944,170.85869Z"/><path class="cls-1" d="M270.69979,115.86986c.09589.59222.182,1.18585.27,1.77923C270.8818,117.05565,270.79568,116.46208,270.69979,115.86986Z"/><path class="cls-1" d="M271.18978,119.14372c.0838.61182.15686,1.2251.2323,1.838C271.34658,120.36876,271.27364,119.75554,271.18978,119.14372Z"/><path class="cls-1" d="M268.7524,106.12981c.13416.56341.26129,1.12841.38819,1.69336C269.01369,107.25816,268.88656,106.69322,268.7524,106.12981Z"/><path class="cls-1" d="M267.94448,102.91417c.14709.55682.2879,1.115.42785,1.67352C268.23244,104.02916,268.09151,103.471,267.94448,102.91417Z"/><path class="cls-1" d="M272.2355,145.14781c-.01673.29914-.04017.598-.0589.8971C272.19533,145.74583,272.21871,145.44688,272.2355,145.14781Z"/><path class="cls-1" d="M45.69778,38.50566q1.32943-1.23586,2.68487-2.43213Q47.02611,37.26812,45.69778,38.50566Z"/><path class="cls-1" d="M57.93374,28.41313c1.29944-.94879,2.60925-1.87915,3.93652-2.77691C60.54287,26.53392,59.23318,27.4644,57.93374,28.41313Z"/><path class="cls-1" d="M52.58565,32.52831q1.18232-.958,2.382-1.88672Q53.7676,31.56983,52.58565,32.52831Z"/><path class="cls-1" d="M36.26,48.20622q1.27267-1.44608,2.57642-2.851Q37.53063,46.75716,36.26,48.20622Z"/><path class="cls-1" d="M267.47274,173.87047c-.107.38238-.21924.76379-.32965,1.14557C267.25356,174.63426,267.36574,174.25291,267.47274,173.87047Z"/><path class="cls-1" d="M39.00539,45.17009q1.40159-1.49891,2.843-2.94244Q40.41012,43.67547,39.00539,45.17009Z"/><path class="cls-1" d="M48.69417,35.79454q1.52217-1.33209,3.079-2.60876Q50.21842,34.46586,48.69417,35.79454Z"/><path class="cls-1" d="M81.09719,14.831q2.14628-.98446,4.32-1.89618Q83.242,13.842,81.09719,14.831Z"/><path class="cls-1" d="M61.9598,25.5742c1.34326-.90692,2.70459-1.77929,4.07483-2.63379C64.66433,23.79491,63.30312,24.66728,61.9598,25.5742Z"/><path class="cls-1" d="M75.97292,17.30754c1.41193-.72143,2.83716-1.41095,4.27027-2.0805C78.81008,15.89665,77.38479,16.586,75.97292,17.30754Z"/><path class="cls-1" d="M85.95772,12.71538q2.07551-.85493,4.17536-1.63874Q88.03359,11.86089,85.95772,12.71538Z"/><path class="cls-1" d="M71.58791,19.65971q1.97159-1.10147,3.97284-2.136Q73.55849,18.55555,71.58791,19.65971Z"/><path class="cls-1" d="M66.84042,22.43932q2.00784-1.23249,4.05053-2.39222Q68.8475,21.20479,66.84042,22.43932Z"/><path class="cls-1" d="M42.64223,41.44133q1.08848-1.07777,2.19678-2.12689Q43.73059,40.36327,42.64223,41.44133Z"/><path class="cls-1" d="M263.4598,185.95445c-.13464.34931-.26569.69947-.40338,1.048C263.19417,186.65392,263.32522,186.30376,263.4598,185.95445Z"/><path class="cls-1" d="M264.59969,182.8867c-.13958.39026-.27789.78077-.4212,1.17017C264.32186,183.66747,264.46011,183.277,264.59969,182.8867Z"/><path class="cls-1" d="M259.78988,194.56084q-.5571,1.19055-1.13806,2.37372Q259.23391,195.75169,259.78988,194.56084Z"/><path class="cls-1" d="M258.04714,198.14922q-.6091,1.20675-1.2464,2.40417Q257.43613,199.35533,258.04714,198.14922Z"/><path class="cls-1" d="M265.63662,179.87737q-.19977.60333-.40448,1.20562Q265.43776,180.481,265.63662,179.87737Z"/><path class="cls-1" d="M266.593,176.87413c-.12213.40039-.24756.8-.3736,1.19965Q266.40844,177.47429,266.593,176.87413Z"/><path class="cls-1" d="M247.182,216.07225c-.76862,1.07141-1.55017,2.13733-2.35468,3.193C245.6318,218.20958,246.41335,217.14366,247.182,216.07225Z"/><path class="cls-1" d="M33.49007,51.46068q.97056-1.17509,1.96222-2.32312Q34.46042,50.28536,33.49007,51.46068Z"/><path class="cls-1" d="M132.3821,107.39952c.322-.90277.63349-1.8078.9494-2.712C133.01559,105.59166,132.704,106.49681,132.3821,107.39952Z"/><path class="cls-1" d="M30.13894,55.66692c.84265-1.10578,1.70343-2.18958,2.57318-3.262C31.84237,53.4774,30.98159,54.56108,30.13894,55.66692Z"/><path class="cls-1" d="M251.693,209.36418q-.72226,1.14441-1.46869,2.2793Q250.97221,210.50914,251.693,209.36418Z"/><path class="cls-1" d="M254.22134,205.208q-.90729,1.55906-1.86268,3.10047Q253.31209,206.76658,254.22134,205.208Z"/><path class="cls-1" d="M256.24905,201.59532q-.91892,1.69694-1.887,3.37653Q255.3341,203.29368,256.24905,201.59532Z"/><path class="cls-1" d="M66.042,215.10423c.19165-.86694.37311-1.73535.55213-2.60406C66.41518,213.36888,66.2336,214.23723,66.042,215.10423Z"/><path class="cls-1" d="M113.2853,181.50414q1.34418-1.24467,2.6944-2.48041Q114.62709,180.25584,113.2853,181.50414Z"/><path class="cls-1" d="M108.06148,186.42c.92341-.88281,1.84613-1.76654,2.77576-2.64026C109.90768,184.65337,108.98489,185.53716,108.06148,186.42Z"/><path class="cls-1" d="M118.52175,176.72978q1.32359-1.18752,2.65393-2.36438Q119.84433,175.54094,118.52175,176.72978Z"/><path class="cls-1" d="M260.3182,193.42918c.34485-.755.67792-1.51342,1.00781-2.27276l-.00342-.00092C260.9927,191.91484,260.663,192.67418,260.3182,193.42918Z"/><path class="cls-1" d="M123.792,172.07347q1.31863-1.14633,2.645-2.28021Q125.11117,170.92806,123.792,172.07347Z"/><path class="cls-1" d="M102.66659,191.66393c1.028-1.01612,2.055-2.03345,3.091-3.038C104.72158,189.63048,103.6946,190.64787,102.66659,191.66393Z"/><path class="cls-1" d="M129.10476,167.52483q1.32091-1.11275,2.65076-2.21112Q130.42754,166.415,129.10476,167.52483Z"/><path class="cls-1" d="M90.95772,203.66051c1.14216-1.2157,2.29456-2.41736,3.44764-3.618C93.25216,201.24315,92.09994,202.44481,90.95772,203.66051Z"/><path class="cls-1" d="M163.02712,165.67174c.38666-.16077.77814-.30768,1.16547-.46662C163.80526,165.364,163.41378,165.51091,163.02712,165.67174Z"/><path class="cls-1" d="M272.35451,142.504v-.00024l-.01324-.00012Z"/><path class="cls-1" d="M28.85451,57.39745l-.00079.001q1.52041,1.87208,2.98187,3.77942C30.85805,59.90807,29.86825,58.64555,28.85451,57.39745Z"/><path class="cls-1" d="M76.605,219.68919q1.34821-1.57818,2.70954-3.13934Q77.95452,218.11284,76.605,219.68919Z"/><path class="cls-1" d="M81.3315,214.2415q1.38337-1.56848,2.78132-3.11743Q82.71764,212.6769,81.3315,214.2415Z"/><path class="cls-1" d="M134.46627,163.07646c.88672-.72381,1.77893-1.43854,2.67029-2.15484C136.2452,161.63786,135.353,162.35265,134.46627,163.07646Z"/><path class="cls-1" d="M86.11434,208.90092c.97766-1.074,1.96381-2.13653,2.95-3.19915C88.07815,206.76439,87.09206,207.827,86.11434,208.90092Z"/><path class="cls-1" d="M241.73934,146.14763c1.03925-.09711,2.07776-.202,3.11823-.287C243.817,145.94566,242.77865,146.05052,241.73934,146.14763Z"/><path class="cls-1" d="M198.01174,153.87694c1.07691-.28321,2.15686-.55329,3.23688-.82312C200.16848,153.32372,199.08871,153.59367,198.01174,153.87694Z"/><path class="cls-1" d="M190.90029,155.849c1.05737-.30914,2.119-.60192,3.17969-.89807C193.01913,155.24706,191.95772,155.53978,190.90029,155.849Z"/><path class="cls-1" d="M205.17763,152.09843q1.6323-.38205,3.26941-.74054Q206.81036,151.71972,205.17763,152.09843Z"/><path class="cls-1" d="M169.90176,162.92705c.854-.32782,1.71545-.63269,2.57238-.95172C171.61721,162.2943,170.75576,162.59917,169.90176,162.92705Z"/><path class="cls-1" d="M183.84273,158.01494c1.02417-.33008,2.05359-.64081,3.08118-.9585C185.89626,157.37413,184.867,157.68486,183.84273,158.01494Z"/><path class="cls-1" d="M212.38888,150.51585q1.64108-.33719,3.28595-.65429Q214.02981,150.17842,212.38888,150.51585Z"/><path class="cls-1" d="M176.8398,160.37523c.97156-.34277,1.94971-.66364,2.92469-.99512C178.78945,159.71159,177.81142,160.03252,176.8398,160.37523Z"/><path class="cls-1" d="M234.31289,146.94408c1.07117-.13,2.14184-.26392,3.21454-.38105C236.45467,146.68016,235.38412,146.81413,234.31289,146.94408Z"/><path class="cls-1" d="M257.11672,145.15c.81592-.02966,1.631-.07428,2.44727-.0965C258.7477,145.07567,257.93264,145.12029,257.11672,145.15Z"/><path class="cls-1" d="M219.64754,149.12883c1.09485-.194,2.19019-.385,3.28724-.56549C221.83761,148.74388,220.74245,148.9348,219.64754,149.12883Z"/><path class="cls-1" d="M243.23678,221.29863c.53357-.67365,1.06744-1.34692,1.59051-2.03339-.52368.6872-1.06183,1.35669-1.596,2.031Z"/><path class="cls-1" d="M249.282,145.54924c.97394-.0636,1.947-.13885,2.92164-.192C251.22884,145.41039,250.25594,145.48558,249.282,145.54924Z"/><path class="cls-1" d="M262.7,87.08806A135.09627,135.09627,0,0,0,158.46212,4.12389,452.07,452.07,0,0,1,86.92983,204.32664,452.05726,452.05726,0,0,1,262.7,87.08806Z"/><path class="cls-1" d="M226.95254,147.93822c1.08838-.16236,2.17663-.3252,3.2669-.47431C229.12911,147.613,228.041,147.7758,226.95254,147.93822Z"/><path class="cls-1" d="M139.88338,158.72154c.89057-.70428,1.78778-1.39728,2.6828-2.09405C141.67116,157.32426,140.774,158.01732,139.88338,158.72154Z"/><path class="cls-1" d="M95.86959,198.51024q2.421-2.49729,4.874-4.94971Q98.29113,196.01351,95.86959,198.51024Z"/><path class="cls-1" d="M100.999,139.15587c.12775-.625.25055-1.25055.37372-1.87616C101.24947,137.90526,101.12673,138.53087,100.999,139.15587Z"/><path class="cls-1" d="M99.93905,144.11443c.12372-.55213.23987-1.10517.36011-1.65778C100.179,143.0092,100.06283,143.56236,99.93905,144.11443Z"/><path class="cls-1" d="M101.97018,134.15318q.17706-.95836.34771-1.91742Q102.14788,133.19488,101.97018,134.15318Z"/><path class="cls-1" d="M102.8586,129.06242c.10059-.6101.20319-1.21991.2995-1.83044C103.06179,127.84251,102.95919,128.45238,102.8586,129.06242Z"/><path class="cls-1" d="M104.54708,117.24986c.01868-.156.03369-.31219.05206-.4682C104.58077,116.93767,104.56576,117.09386,104.54708,117.24986Z"/><path class="cls-1" d="M98.7886,149.04216c.06005-.24591.11456-.49268.17389-.73871C98.90316,148.54948,98.84865,148.79625,98.7886,149.04216Z"/><path class="cls-1" d="M103.68313,123.72935c.07141-.495.14813-.9895.21679-1.4848C103.83126,122.73979,103.7546,123.23436,103.68313,123.72935Z"/><path class="cls-1" d="M95.67324,160.63243c.1709-.58478.34424-1.169.511-1.75452C96.01748,159.46342,95.84408,160.04771,95.67324,160.63243Z"/><path class="cls-1" d="M90.89315,175.40508c.19623-.5506.38507-1.10285.57751-1.65436C91.27822,174.30217,91.08938,174.85448,90.89315,175.40508Z"/><path class="cls-1" d="M89.13021,180.215c.11871-.31384.23065-.62939.34808-.94354C89.36086,179.58562,89.24886,179.90117,89.13021,180.215Z"/><path class="cls-1" d="M86.77877,186.19408c.1593-.39252.3244-.78339.48169-1.1764C87.10311,185.41069,86.93807,185.80156,86.77877,186.19408Z"/><path class="cls-1" d="M92.56655,170.55534c.20477-.61139.40491-1.22369.6051-1.83612C92.97152,169.33159,92.77132,169.944,92.56655,170.55534Z"/><path class="cls-1" d="M97.17129,155.30333c.11956-.44312.24475-.88519.362-1.32874C97.416,154.41814,97.29085,154.86021,97.17129,155.30333Z"/><path class="cls-1" d="M105.09328,112.26329c.05591-.55487.104-1.11005.15638-1.6651C105.19723,111.15324,105.14919,111.70842,105.09328,112.26329Z"/><path class="cls-1" d="M94.15627,165.64555q.29169-.93025.57758-1.86163Q94.44921,164.71566,94.15627,165.64555Z"/><path class="cls-1" d="M84.57455,191.45982c.24133-.56005.48577-1.11926.72308-1.68048C85.06032,190.3405,84.81594,190.89977,84.57455,191.45982Z"/><path class="cls-1" d="M57.50228,28.72807l-.00079.00055q1.3667,2.29716,2.66528,4.62647C59.29714,31.80412,58.41354,30.25957,57.50228,28.72807Z"/><path class="cls-1" d="M101.26321,32.40837c-.03241-.163-.06855-.32532-.1012-.48834C101.19472,32.083,101.23086,32.24535,101.26321,32.40837Z"/><path class="cls-1" d="M104.80227,55.37151c-.05206-.47-.109-.93934-.16358-1.40912C104.6932,54.43205,104.75021,54.90154,104.80227,55.37151Z"/><path class="cls-1" d="M103.86538,47.87358c-.036-.25909-.06751-.51868-.10431-.77771C103.79787,47.35478,103.82937,47.61449,103.86538,47.87358Z"/><path class="cls-1" d="M99.83608,25.71288c-.1084-.48206-.21533-.96424-.32641-1.44574C99.62069,24.74852,99.72762,25.23088,99.83608,25.71288Z"/><path class="cls-1" d="M96.06374,10.90581c-.10766-.3775-.21093-.756-.32025-1.133C95.85274,10.14989,95.95614,10.52837,96.06374,10.90581Z"/><path class="cls-1" d="M97.947,17.84093c-.09894-.38562-.20367-.76966-.30432-1.15485C97.74331,17.07127,97.848,17.45537,97.947,17.84093Z"/><path class="cls-1" d="M102.7372,40.5153q-.12689-.7596-.25878-1.51831Q102.6097,39.75587,102.7372,40.5153Z"/><path class="cls-1" d="M106.36593,91.80345c.01318-.53692.03119-1.07391.04107-1.61084C106.39706,90.72954,106.37911,91.26653,106.36593,91.80345Z"/><path class="cls-1" d="M106.18435,97.1046c.028-.63373.05737-1.2674.08081-1.90112C106.24172,95.8372,106.2123,96.47087,106.18435,97.1046Z"/><path class="cls-1" d="M105.55447,63.243c-.03528-.43433-.0672-.86884-.10456-1.303C105.48733,62.37413,105.51919,62.80876,105.55447,63.243Z"/><path class="cls-1" d="M105.912,102.21123q.062-.98264.11706-1.96521Q105.97417,101.22874,105.912,102.21123Z"/><path class="cls-1" d="M106.04055,70.26585c-.01856-.33581-.043-.67114-.06281-1.00689C105.99758,69.59471,106.022,69.93,106.04055,70.26585Z"/><path class="cls-1" d="M106.36092,78.40807c-.01257-.50159-.0249-1.00312-.04022-1.50458C106.33608,77.40489,106.34835,77.90648,106.36092,78.40807Z"/><path class="cls-1" d="M105.54867,107.24919c.052-.63464.09851-1.26947.146-1.9043C105.64718,105.97972,105.60067,106.61455,105.54867,107.24919Z"/><path class="cls-1" d="M221.19369,146.304q3.5115-.59563,7.03772-1.09509Q224.70608,145.713,221.19369,146.304Z"/><path class="cls-1" d="M230.50405,144.90746c1.61694-.21735,3.23474-.42817,4.85535-.61658C233.73873,144.47929,232.12105,144.69005,230.50405,144.90746Z"/><path class="cls-1" d="M238.07174,143.997q2.2369-.23748,4.47723-.44146Q240.30814,143.75622,238.07174,143.997Z"/><path class="cls-1" d="M214.15273,147.6q3.01941-.59381,6.05158-1.11621Q217.17281,147.00961,214.15273,147.6Z"/><path class="cls-1" d="M200.09951,150.76048q2.11386-.53283,4.23572-1.03Q202.21368,150.22943,200.09951,150.76048Z"/><path class="cls-1" d="M207.12978,149.08281c1.50751-.33783,3.01892-.65588,4.5315-.968C210.14864,148.427,208.63729,148.74492,207.12978,149.08281Z"/><path class="cls-1" d="M245.36306,143.31865q2.24139-.17744,4.4859-.31555Q247.60445,143.14364,245.36306,143.31865Z"/><path class="cls-1" d="M153.89236,169.695c.79187-.36432,1.57794-.74341,2.37286-1.09973C155.4703,168.95164,154.68423,169.33067,153.89236,169.695Z"/><path class="cls-1" d="M78.92831,221.14867c.67785-.66034,1.37042-1.2992,2.054-1.95118C80.29867,219.84947,79.60616,220.48833,78.92831,221.14867Z"/><path class="cls-1" d="M252.57473,142.83934c1.61883-.08514,3.239-.14862,4.8595-.205C255.81362,142.69078,254.19363,142.7542,252.57473,142.83934Z"/><path class="cls-1" d="M73.46944,226.61607c.33942-.35016.689-.686,1.02991-1.034C74.15841,225.93,73.80886,226.26591,73.46944,226.61607Z"/><path class="cls-1" d="M193.01485,152.65044q2.12028-.59538,4.24811-1.16047Q195.13408,152.05093,193.01485,152.65044Z"/><path class="cls-1" d="M259.75979,142.55058c2.38965-.06274,4.78045-.10077,7.17236-.10071C264.54024,142.44981,262.1495,142.48784,259.75979,142.55058Z"/><path class="cls-1" d="M266.93642,142.44987h-.00427c.16937,0,.33893.0047.5083.005C267.27254,142.45457,267.10433,142.44987,266.93642,142.44987Z"/><path class="cls-1" d="M76.589,219.95354c-.35815.351-.72406.69079-1.08057,1.04413l-.08026.07965-.01922.0227c-.02912.04041-.05768.08118-.0868.12158C75.74575,220.80083,76.163,220.371,76.589,219.95354Z"/><path class="cls-1" d="M102.84042,197.33281c1.45031-1.09613,2.90551-2.1839,4.37414-3.248C105.74587,195.14885,104.29079,196.23668,102.84042,197.33281Z"/><path class="cls-1" d="M109.48659,192.47057c1.24439-.88215,2.49183-1.75824,3.7486-2.6175Q111.35,191.142,109.48659,192.47057Z"/><path class="cls-1" d="M115.72164,188.1779q1.82913-1.221,3.67474-2.41015Q117.55059,186.95692,115.72164,188.1779Z"/><path class="cls-1" d="M128.17275,180.33727c1.49835-.88617,3.00794-1.74854,4.52063-2.60425C131.18063,178.58867,129.67116,179.4511,128.17275,180.33727Z"/><path class="cls-1" d="M89.8583,207.77916c1.34979-1.15759,2.71387-2.29236,4.08233-3.42C92.572,205.4868,91.20809,206.62157,89.8583,207.77916Z"/><path class="cls-1" d="M134.48006,176.71306q3.12369-1.73576,6.28632-3.38428Q137.60443,174.9782,134.48006,176.71306Z"/><path class="cls-1" d="M95.56124,203.01427q2.849-2.31043,5.74908-4.53589Q98.40993,200.70284,95.56124,203.01427Z"/><path class="cls-1" d="M135.13576,99.42662q.49229-1.46685.97486-2.93567Q135.62877,97.96,135.13576,99.42662Z"/><path class="cls-1" d="M78.67629,217.93645q1.68585-1.61738,3.3938-3.20185Q80.36135,216.31838,78.67629,217.93645Z"/><path class="cls-1" d="M176.70455,157.76854q3.346-1.17032,6.71918-2.24939Q180.05166,156.601,176.70455,157.76854Z"/><path class="cls-1" d="M142.78207,172.30571c1.47967-.75616,2.9616-1.50714,4.453-2.23505C145.74361,170.79857,144.2618,171.54955,142.78207,172.30571Z"/><path class="cls-1" d="M169.95364,160.23705c1.70361-.64679,3.41534-1.26844,5.13012-1.88038C173.36892,158.96867,171.65725,159.59019,169.95364,160.23705Z"/><path class="cls-1" d="M185.65517,154.82933c1.54657-.48163,3.09461-.958,4.64869-1.41174C188.74972,153.87138,187.2018,154.34764,185.65517,154.82933Z"/><path class="cls-1" d="M149.82253,168.836c1.32269-.62835,2.648-1.25061,3.97931-1.85681C152.47036,167.58549,151.14535,168.20769,149.82253,168.836Z"/><path class="cls-1" d="M163.24215,162.8933c1.37982-.56623,2.76575-1.11438,4.15356-1.65741C166.0079,161.77892,164.622,162.32707,163.24215,162.8933Z"/><path class="cls-1" d="M156.54867,165.74974q1.96509-.86865,3.9422-1.70447Q158.514,164.882,156.54867,165.74974Z"/><path class="cls-1" d="M84.23952,212.74168q1.74912-1.58615,3.52375-3.133Q85.99135,211.16,84.23952,212.74168Z"/><path class="cls-1" d="M84.51363,215.86583c.7851-.72217,1.58356-1.42395,2.37574-2.13538C86.09719,214.44188,85.29873,215.1436,84.51363,215.86583Z"/><path class="cls-1" d="M90.22329,210.7661c.844-.733,1.69946-1.44794,2.551-2.169C91.92275,209.31822,91.06734,210.03307,90.22329,210.7661Z"/><path class="cls-1" d="M96.05166,205.85136c.8844-.725,1.77826-1.43469,2.67035-2.14709C97.82986,204.41673,96.93618,205.12627,96.05166,205.85136Z"/><path class="cls-1" d="M159.09194,144.35979c.89722-.63465,1.7926-1.27259,2.69373-1.90009C160.88454,143.0872,159.98922,143.72514,159.09194,144.35979Z"/><path class="cls-1" d="M101.99758,201.11986c.91321-.70618,1.8335-1.4,2.75427-2.0932C103.831,199.71983,102.91085,200.41362,101.99758,201.11986Z"/><path class="cls-1" d="M153.43905,148.42485c.90814-.66376,1.81323-1.33282,2.72552-1.98914C155.25228,147.092,154.34719,147.76115,153.43905,148.42485Z"/><path class="cls-1" d="M257.55227,91.69548c1.43439-.55121,2.87329-1.08887,4.31256-1.62524C260.42556,90.60667,258.98672,91.14421,257.55227,91.69548Z"/><path class="cls-1" d="M145.35177,154.46269c.93847-.71887,1.88489-1.42407,2.82806-2.13476C147.23659,153.03862,146.29024,153.74388,145.35177,154.46269Z"/><path class="cls-1" d="M108.05794,196.5717q1.40451-1.02384,2.82135-2.02521Q109.46371,195.55056,108.05794,196.5717Z"/><path class="cls-1" d="M146.77663,173.09721c.91962-.45623,1.8346-.92376,2.75873-1.36914C148.61123,172.17339,147.69631,172.641,146.77663,173.09721Z"/><path class="cls-1" d="M133.37887,180.22252c.97485-.55444,1.94775-1.113,2.9284-1.65466C135.3265,179.10954,134.35372,179.668,133.37887,180.22252Z"/><path class="cls-1" d="M139.9963,176.58183c.961-.51129,1.91858-1.03027,2.88489-1.52942C141.91482,175.55156,140.95736,176.07048,139.9963,176.58183Z"/><path class="cls-1" d="M114.22353,192.21135q1.433-.98382,2.87622-1.94836Q115.656,191.22685,114.22353,192.21135Z"/><path class="cls-1" d="M120.50106,188.03221q1.45148-.93741,2.91107-1.85882Q121.9504,187.09084,120.50106,188.03221Z"/><path class="cls-1" d="M126.88583,184.03642c.97454-.59118,1.94879-1.1831,2.92974-1.76117C128.83456,182.85332,127.8605,183.44518,126.88583,184.03642Z"/><path class="cls-1" d="M164.73666,140.431c.90533-.61982,1.81012-1.24079,2.71929-1.8534C166.54678,139.19029,165.64205,139.8112,164.73666,140.431Z"/><path class="cls-1" d="M232.5613,102.1768q1.6778-.76308,3.36048-1.51367Q234.23857,101.41231,232.5613,102.1768Z"/><path class="cls-1" d="M226.38406,105.04424q1.65866-.78489,3.32128-1.55951Q228.0412,104.25578,226.38406,105.04424Z"/><path class="cls-1" d="M220.20962,108.02458c1.10943-.54584,2.21838-1.09277,3.33166-1.62909C222.428,106.93187,221.31905,107.47874,220.20962,108.02458Z"/><path class="cls-1" d="M251.25661,94.17125c1.25769-.50507,2.519-.99927,3.78058-1.4928C253.77553,93.172,252.5143,93.66618,251.25661,94.17125Z"/><path class="cls-1" d="M213.959,111.16057c1.15368-.59,2.30621-1.18268,3.46417-1.76233C216.26516,109.978,215.11263,110.57054,213.959,111.16057Z"/><path class="cls-1" d="M170.43465,136.593q1.36762-.90582,2.73951-1.8034Q171.801,135.68471,170.43465,136.593Z"/><path class="cls-1" d="M238.76687,99.409q1.71019-.74708,3.42608-1.47882Q240.47736,98.66276,238.76687,99.409Z"/><path class="cls-1" d="M244.99856,96.74077q1.77319-.743,3.553-1.46778Q246.77284,96.00075,244.99856,96.74077Z"/><path class="cls-1" d="M181.95516,129.21q1.41266-.8748,2.83167-1.7367Q183.36876,128.33706,181.95516,129.21Z"/><path class="cls-1" d="M205.54244,115.56487q2.89509-1.55852,5.80982-3.07251Q208.43785,114.00682,205.54244,115.56487Z"/><path class="cls-1" d="M176.17623,132.85161q1.38418-.88661,2.77374-1.76282Q177.5603,131.96477,176.17623,132.85161Z"/><path class="cls-1" d="M187.78469,125.6588c.9624-.57593,1.92859-1.144,2.89459-1.71228C189.71328,124.51488,188.74709,125.08287,187.78469,125.6588Z"/><path class="cls-1" d="M199.57992,118.83574c1.10016-.61389,2.20623-1.21448,3.31079-1.81867C201.78622,117.62132,200.68,118.22185,199.57992,118.83574Z"/><path class="cls-1" d="M193.661,122.20006c.9972-.57642,1.99921-1.1424,3.00012-1.71076C195.66018,121.05772,194.65823,121.62364,193.661,122.20006Z"/><path class="cls-1" d="M121.9255,184.15355c1.27215-.79974,2.55267-1.58264,3.836-2.35986C124.47811,182.57091,123.19772,183.35374,121.9255,184.15355Z"/><path class="cls-1" d="M81.47347,183.19157c.09369-.40289.19055-.80523.28174-1.20855C81.664,182.38628,81.5671,182.78868,81.47347,183.19157Z"/><path class="cls-1" d="M80.14193,188.60612c.11084-.42486.21655-.8504.32464-1.27569C80.35848,187.75566,80.25277,188.18138,80.14193,188.60612Z"/><path class="cls-1" d="M59.87032,112.91161c-.51751-1.47474-1.05945-2.94178-1.61444-4.40467C58.81087,109.96977,59.35287,111.43694,59.87032,112.91161Z"/><path class="cls-1" d="M78.56216,194.32512c.05889-.20191.12213-.403.18035-.605C78.68429,193.9221,78.621,194.12321,78.56216,194.32512Z"/><path class="cls-1" d="M84.8174,165.3297c.01691-.119.03669-.23755.05341-.35651C84.85415,165.09209,84.83431,165.21074,84.8174,165.3297Z"/><path class="cls-1" d="M81.50741,88.59367q-.58851-2.54984-1.23688-5.08642Q80.92266,86.04281,81.50741,88.59367Z"/><path class="cls-1" d="M76.74819,200.20988q.22148-.68334.43817-1.36773Q76.96975,199.52651,76.74819,200.20988Z"/><path class="cls-1" d="M85.52785,159.77263c.05268-.459.101-.91815.15064-1.37732C85.62887,158.85442,85.58053,159.31364,85.52785,159.77263Z"/><path class="cls-1" d="M82.85372,176.83592c.0575-.28784.109-.57629.16522-.86432C82.96273,176.25957,82.91122,176.54808,82.85372,176.83592Z"/><path class="cls-1" d="M83.826,171.58592q.12139-.70092.239-1.40216Q83.94842,170.88515,83.826,171.58592Z"/><path class="cls-1" d="M61.33822,40.80516c-.145-.28094-.28815-.56274-.43451-.8432C61.05013,40.24236,61.19314,40.52422,61.33822,40.80516Z"/><path class="cls-1" d="M66.36636,51.25139c-.14118-.31586-.28528-.63056-.42811-.9458C66.081,50.62083,66.22518,50.93553,66.36636,51.25139Z"/><path class="cls-1" d="M63.7369,45.58775c-.0368-.07605-.07544-.1513-.11231-.22729C63.66146,45.43651,63.7001,45.51176,63.7369,45.58775Z"/><path class="cls-1" d="M68.76022,56.83287c-.13459-.32648-.26783-.65332-.40406-.97925C68.49239,56.17955,68.62569,56.50639,68.76022,56.83287Z"/><path class="cls-1" d="M70.60238,216.74889c.16846-.40015.33111-.80188.49689-1.20276C70.93343,215.947,70.77084,216.3488,70.60238,216.74889Z"/><path class="cls-1" d="M58.49081,35.48q-.25122-.45329-.50592-.90485C58.15389,34.87657,58.32339,35.17778,58.49081,35.48Z"/><path class="cls-1" d="M72.6971,211.56761c.163-.41839.3285-.836.48865-1.25513C73.0256,210.73155,72.86013,211.14928,72.6971,211.56761Z"/><path class="cls-1" d="M75.03054,205.30644c.07483-.21185.14429-.42486.21838-.6369C75.17489,204.88158,75.10531,205.09459,75.03054,205.30644Z"/><path class="cls-1" d="M68.07412,222.501c.12915-.28259.26337-.56354.39123-.84656C68.33755,221.93736,68.20327,222.21843,68.07412,222.501Z"/><path class="cls-1" d="M86.135,117.988q-.21927-2.56613-.50531-5.12543Q85.91165,115.422,86.135,117.988Z"/><path class="cls-1" d="M62.84682,122.19017q-.50014-1.70508-1.03289-3.40118Q62.34667,120.48509,62.84682,122.19017Z"/><path class="cls-1" d="M69.13778,153.05376q-.20517-1.74665-.44312-3.48914Q68.9326,151.30714,69.13778,153.05376Z"/><path class="cls-1" d="M57.75619,107.21391q-.64509-1.66278-1.32257-3.31439Q57.111,105.55114,57.75619,107.21391Z"/><path class="cls-1" d="M86.52956,123.51518c-.10339-1.75427-.22259-3.50732-.36987-5.25793C86.307,120.00786,86.42617,121.76091,86.52956,123.51518Z"/><path class="cls-1" d="M85.5386,112.0247q-.29207-2.55678-.64838-5.10546Q85.24471,109.468,85.5386,112.0247Z"/><path class="cls-1" d="M83.86715,100.32207q-.43131-2.51377-.92529-5.01667Q83.43413,97.80856,83.86715,100.32207Z"/><path class="cls-1" d="M67.77285,143.4857c-.26306-1.54632-.55182-3.08844-.85364-4.62805C67.22109,140.39726,67.50979,141.93932,67.77285,143.4857Z"/><path class="cls-1" d="M82.80947,94.62273q-.51058-2.55158-1.08734-5.09021Q82.2959,92.07154,82.80947,94.62273Z"/><path class="cls-1" d="M84.75094,105.94225c-.24872-1.72919-.514-3.45594-.80579-5.17859C84.237,102.48625,84.50216,104.21312,84.75094,105.94225Z"/><path class="cls-1" d="M68.50588,148.19292c-.22522-1.56324-.46374-3.12458-.72845-4.68177C68.04214,145.06834,68.28066,146.62975,68.50588,148.19292Z"/><path class="cls-1" d="M86.55489,147.85637c.02094-.36591.03534-.73175.05432-1.09766C86.59017,147.12456,86.57577,147.49052,86.55489,147.85637Z"/><path class="cls-1" d="M86.08816,154.21336c.03479-.39618.07354-.792.10608-1.18829C86.1617,153.42131,86.12289,153.81725,86.08816,154.21336Z"/><path class="cls-1" d="M65.60537,132.70457c-.35663-1.54254-.72662-3.08209-1.12244-4.61584C64.87881,129.62242,65.24874,131.16209,65.60537,132.70457Z"/><path class="cls-1" d="M64.47335,128.05327c-.39209-1.518-.80939-3.02991-1.23981-4.53858C63.664,125.0233,64.08126,126.53532,64.47335,128.05327Z"/><path class="cls-1" d="M86.80245,129.60936q-.07644-2.56-.21576-5.11639Q86.72549,127.04921,86.80245,129.60936Z"/><path class="cls-1" d="M66.64352,137.49626q-.35276-1.73117-.73822-3.45575Q66.29073,135.76518,66.64352,137.49626Z"/><path class="cls-1" d="M86.90084,135.88139c.00006-1.77777-.02979-3.55462-.07483-5.33075C86.87105,132.32677,86.9009,134.10368,86.90084,135.88139Z"/><path class="cls-1" d="M82.41421,196.34087q.41179-.90528.818-1.81214Q82.82764,195.43611,82.41421,196.34087Z"/><path class="cls-1" d="M86.78573,142.53282c.01526-.48138.03076-.96246.04272-1.44385C86.81655,141.57024,86.801,142.0515,86.78573,142.53282Z"/><path class="cls-1" d="M61.40456,117.48955c-.48669-1.511-.98675-3.01807-1.51233-4.51752C60.41781,114.47148,60.91787,115.97862,61.40456,117.48955Z"/><path class="cls-1" d="M72.39266,205.25591q.88669-2.47962,1.7077-4.97413Q73.27988,202.77633,72.39266,205.25591Z"/><path class="cls-1" d="M51.3846,92.66429q-.78726-1.6072-1.60668-3.20093Q50.59713,91.0572,51.3846,92.66429Z"/><path class="cls-1" d="M74.46255,199.15111q.65826-2.04126,1.27227-4.09155Q75.12069,197.10979,74.46255,199.15111Z"/><path class="cls-1" d="M49.15041,88.24492c-.74237-1.41834-1.49811-2.83087-2.27856-4.2323C47.6523,85.41405,48.4081,86.82658,49.15041,88.24492Z"/><path class="cls-1" d="M53.97811,98.16423c-.63983-1.42224-1.30347-2.83533-1.98-4.24316C52.67464,95.3289,53.33828,96.742,53.97811,98.16423Z"/><path class="cls-1" d="M77.72976,187.94859q.58492-2.24358,1.116-4.49609Q78.31259,185.70451,77.72976,187.94859Z"/><path class="cls-1" d="M80.31106,176.81065c.34515-1.70794.662-3.41931.96313-5.1325C80.973,173.39134,80.65621,175.10277,80.31106,176.81065Z"/><path class="cls-1" d="M70.44924,210.45116q.77784-2.00272,1.5119-4.01606Q71.22716,208.44863,70.44924,210.45116Z"/><path class="cls-1" d="M76.14608,193.67992c.49023-1.6792.96387-3.36164,1.41-5.049C77.11,190.31822,76.63625,192.00072,76.14608,193.67992Z"/><path class="cls-1" d="M79.18532,181.99583q.53129-2.319,1.0113-4.64532Q79.72,179.67724,79.18532,181.99583Z"/><path class="cls-1" d="M34.846,65.207q-1.06183-1.4598-2.15472-2.90173Q33.78392,63.74728,34.846,65.207Z"/><path class="cls-1" d="M46.80019,83.887q-1.1347-2.03376-2.32757-4.04041Q45.6607,81.85537,46.80019,83.887Z"/><path class="cls-1" d="M62.82027,227.71538c.77588-1.55628,1.52448-3.12116,2.25788-4.69068C64.34469,224.59416,63.59615,226.1591,62.82027,227.71538Z"/><path class="cls-1" d="M38.3511,70.18193q-1.30125-1.91858-2.65833-3.807Q37.04556,68.26549,38.3511,70.18193Z"/><path class="cls-1" d="M62.99789,226.97966c-.093.319-.19013.63721-.28492.95587l.02521-.05176C62.82754,227.58293,62.91006,227.28081,62.99789,226.97966Z"/><path class="cls-1" d="M41.11843,74.392c-.86658-1.35589-1.7464-2.70508-2.65063-4.04144C39.372,71.68687,40.25179,73.03606,41.11843,74.392Z"/><path class="cls-1" d="M72.82949,67.53362c-.10785-.30927-.2193-.61731-.32861-.92615C72.61019,66.91624,72.7217,67.22441,72.82949,67.53362Z"/><path class="cls-1" d="M67.91891,216.68352q1.04589-2.45124,2.0202-4.92194Q68.96041,214.23094,67.91891,216.68352Z"/><path class="cls-1" d="M65.698,221.68364q.96963-2.11459,1.88995-4.24335Q66.66928,219.56954,65.698,221.68364Z"/><path class="cls-1" d="M43.744,78.632q-.9256-1.538-1.88269-3.06036Q42.81829,77.09407,43.744,78.632Z"/><path class="cls-1" d="M81.49026,101.24858c-.03693-.21863-.07782-.43658-.11548-.65509C81.4125,100.812,81.45333,101.03,81.49026,101.24858Z"/><path class="cls-1" d="M79.30343,90.17815q-.122-.54108-.24671-1.08149Q79.18161,89.6371,79.30343,90.17815Z"/><path class="cls-1" d="M80.5021,95.86205c-.05017-.2558-.09729-.51209-.1485-.7677C80.40475,95.3499,80.45187,95.60631,80.5021,95.86205Z"/><path class="cls-1" d="M82.41988,107.314q-.07305-.52616-.14953-1.0517Q82.34615,106.788,82.41988,107.314Z"/><path class="cls-1" d="M83.14736,113.16789c-.0318-.28894-.061-.57812-.09405-.86694C83.08633,112.58977,83.11556,112.879,83.14736,113.16789Z"/><path class="cls-1" d="M55.916,102.64055c-.6156-1.47016-1.24451-2.93549-1.89868-4.39142C54.67141,99.70506,55.30044,101.17046,55.916,102.64055Z"/><path class="cls-1" d="M74.74911,73.322q-.16737-.53-.33655-1.05939Q74.58284,72.7917,74.74911,73.322Z"/><path class="cls-1" d="M76.39046,78.7719c-.05749-.20118-.11181-.4032-.16992-.60419C76.27871,78.36876,76.333,78.57072,76.39046,78.7719Z"/><path class="cls-1" d="M77.87344,84.23058c-.07148-.27826-.147-.55549-.21955-.83344C77.72646,83.67509,77.802,83.95232,77.87344,84.23058Z"/><path class="cls-1" d="M82.34768,164.94115q.36447-2.569.66241-5.14319Q82.71072,162.372,82.34768,164.94115Z"/><path class="cls-1" d="M83.68392,153.02831q.21487-2.58665.368-5.17511Q83.90219,150.44166,83.68392,153.02831Z"/><path class="cls-1" d="M83.147,158.54607q.23053-2.09281.41816-4.18775Q83.37746,156.45333,83.147,158.54607Z"/><path class="cls-1" d="M81.51522,170.26384q.35659-2.11468.66919-4.23352Q81.8723,168.14922,81.51522,170.26384Z"/><path class="cls-1" d="M84.09566,146.96959q.11894-2.2185.189-4.43756Q84.21346,144.751,84.09566,146.96959Z"/><path class="cls-1" d="M84.09066,124.64207c-.01794-.33-.03827-.65966-.05774-.98944C84.05239,123.98241,84.07278,124.31218,84.09066,124.64207Z"/><path class="cls-1" d="M83.66988,118.49345c-.01043-.1242-.02343-.24816-.03412-.37237C83.64638,118.24529,83.65945,118.36925,83.66988,118.49345Z"/><path class="cls-1" d="M84.32668,141.115c.04407-1.74475.07428-3.48944.07434-5.23358C84.401,137.62547,84.37075,139.37022,84.32668,141.115Z"/><path class="cls-1" d="M84.3268,130.61253c-.00787-.30871-.01391-.61743-.02319-.92608C84.31283,129.9951,84.31893,130.30382,84.3268,130.61253Z"/><path class="cls-1" d="M70.79855,61.96275c-.0434-.114-.08442-.22863-.12806-.34253C70.71413,61.73412,70.75515,61.8488,70.79855,61.96275Z"/><path class="cls-1" d="M69.50283,221.19505c.317-.53967.63757-1.07794.95044-1.61908C70.1404,220.11711,69.81985,220.65544,69.50283,221.19505Z"/><path class="cls-1" d="M66.69137,225.87352q.54043-.87882,1.07562-1.75952Q67.23405,224.99557,66.69137,225.87352Z"/><path class="cls-1" d="M66.14425,226.60185q-.16635.34387-.3349.687l.04718-.0758C65.95541,227.01024,66.046,226.80492,66.14425,226.60185Z"/><path class="cls-1" d="M63.10012,38.76878q-1.20117-2.29915-2.46149-4.57226Q61.89923,36.46941,63.10012,38.76878Z"/><path class="cls-1" d="M69.21139,196.12492q.11819-1.03243.22589-2.06536Q69.3307,195.09264,69.21139,196.12492Z"/><path class="cls-1" d="M66.7781,211.62315q.35184-1.75067.67-3.50555Q67.13031,209.87239,66.7781,211.62315Z"/><path class="cls-1" d="M67.56338,207.448c.16723-.94323.33014-1.88708.4826-2.83191C67.89352,205.561,67.73061,206.50481,67.56338,207.448Z"/><path class="cls-1" d="M68.234,203.392c.11762-.76129.23444-1.52258.34253-2.28479C68.46841,201.86931,68.35171,202.63066,68.234,203.392Z"/><path class="cls-1" d="M68.76485,199.71434c.09491-.70764.18848-1.41541.27521-2.12366C68.95333,198.299,68.85982,199.0067,68.76485,199.71434Z"/><path class="cls-1" d="M69.58437,192.56932q.0976-1.028.1836-2.05627Q69.68172,191.54136,69.58437,192.56932Z"/><path class="cls-1" d="M65.948,44.4174c-.779-1.60852-1.58575-3.20575-2.40753-4.79657C64.36227,41.21159,65.169,42.80882,65.948,44.4174Z"/><path class="cls-1" d="M70.29116,181.95958c.03-.79376.05072-1.58752.07056-2.38129C70.34188,180.37206,70.32113,181.16582,70.29116,181.95958Z"/><path class="cls-1" d="M70.39242,178.43211q.03323-1.76311.03473-3.52575Q70.42715,176.66883,70.39242,178.43211Z"/><path class="cls-1" d="M70.66836,54.90282Q69.665,52.5024,68.60213,50.12389,69.66644,52.50169,70.66836,54.90282Z"/><path class="cls-1" d="M73.00112,60.71617q-.9493-2.47733-1.96777-4.93133Q72.04656,58.24037,73.00112,60.71617Z"/><path class="cls-1" d="M138.03933,2.50774c1.36438.00457,2.72925.02374,4.0943.06964C140.76864,2.53148,139.40389,2.51237,138.03933,2.50774Z"/><path class="cls-1" d="M68.25393,49.3568q-1.09305-2.41581-2.244-4.809Q67.16585,46.93886,68.25393,49.3568Z"/><path class="cls-1" d="M70.12319,185.49022c.04083-.71979.07428-1.43958.10675-2.15949C70.19747,184.05064,70.164,184.77043,70.12319,185.49022Z"/><path class="cls-1" d="M69.88772,189.02843c.05267-.6944.09955-1.38886.14441-2.0835Q69.96484,187.98689,69.88772,189.02843Z"/><path class="cls-1" d="M75.516,210.41862c.20319-.38531.39832-.77313.59949-1.15911C75.91433,209.64549,75.7192,210.03337,75.516,210.41862Z"/><path class="cls-1" d="M137.84621,91.07323c.2677-.8526.54139-1.70374.80378-2.55738C138.3876,89.36949,138.11391,90.22069,137.84621,91.07323Z"/><path class="cls-1" d="M140.97878,80.70341c.14643-.509.28272-1.02.42731-1.52941C141.26156,79.6834,141.12521,80.19432,140.97878,80.70341Z"/><path class="cls-1" d="M65.23775,218.57762c.17646-.73132.34467-1.46387.51209-2.19653C65.58248,217.11375,65.41421,217.8463,65.23775,218.57762Z"/><path class="cls-1" d="M145.29165,64.54137q.35668-1.43949.70617-2.88Q145.65093,63.10238,145.29165,64.54137Z"/><path class="cls-1" d="M72.45144,216.05107c.19311-.346.39221-.68982.58368-1.03631C72.84365,215.36131,72.64455,215.70512,72.45144,216.05107Z"/><path class="cls-1" d="M80.19833,201.09349q.42993-.89832.85089-1.79925Q80.62643,200.19475,80.19833,201.09349Z"/><path class="cls-1" d="M77.90108,205.781c.278-.55286.54865-1.108.82251-1.66211C78.44973,204.673,78.179,205.22813,77.90108,205.781Z"/><path class="cls-1" d="M74.911,65.91905q-.86187-2.44089-1.78253-4.86322Q74.05139,63.47722,74.911,65.91905Z"/><path class="cls-1" d="M147.36159,55.81145c.16816-.74182.34382-1.48249.50812-2.22486C147.70534,54.329,147.52975,55.06963,147.36159,55.81145Z"/><path class="cls-1" d="M143.19118,72.70964c.24939-.93133.49012-1.86407.73334-2.79657C143.68124,70.8455,143.44057,71.77831,143.19118,72.70964Z"/><path class="cls-1" d="M80.12063,82.93968q-.64418-2.47586-1.34864-4.93695Q79.47677,80.46358,80.12063,82.93968Z"/><path class="cls-1" d="M73.43789,219.55864c.02948-.04089.05835-.082.08777-.12293-.10535.12427-.21033.24811-.31745.37476.49036-.85675.96747-1.7182,1.44757-2.57861q-.75154,1.34683-1.52282,2.68646Q73.28521,219.73814,73.43789,219.55864Z"/><path class="cls-1" d="M149.56094,45.60924c.13061-.64527.25042-1.29181.37817-1.93744C149.81136,44.31737,149.69155,44.964,149.56094,45.60924Z"/><path class="cls-1" d="M64.36422,222.04552c.17975-.6864.353-1.37372.52466-2.06147C64.71725,220.67174,64.54391,221.35918,64.36422,222.04552Z"/><path class="cls-1" d="M155.27834,10.14232c.0885-.73352.16663-1.46753.25147-2.2013C155.44491,8.67473,155.36684,9.40886,155.27834,10.14232Z"/><path class="cls-1" d="M153.98513,19.90923c.07922-.55445.16608-1.10828.24322-1.66291C154.15121,18.801,154.06429,19.35478,153.98513,19.90923Z"/><path class="cls-1" d="M151.12289,37.47722c.17-.92743.33337-1.85541.49749-2.78351C151.4562,35.62175,151.29293,36.54985,151.12289,37.47722Z"/><path class="cls-1" d="M152.56716,29.13805c.1499-.91413.30139-1.828.44562-2.74268C152.86855,27.31,152.71712,28.224,152.56716,29.13805Z"/><path class="cls-1" d="M63.41933,225.51262q.28391-1.00443.5553-2.011Q63.70235,224.50807,63.41933,225.51262Z"/><path class="cls-1" d="M70.09518,163.87071c-.093-1.575-.19928-3.14892-.332-4.72052C69.8959,160.72185,70.00216,162.29576,70.09518,163.87071Z"/><path class="cls-1" d="M69.7596,159.11241c-.13208-1.5603-.28979-3.118-.46087-4.67425C69.46981,155.99437,69.62752,157.55217,69.7596,159.11241Z"/><path class="cls-1" d="M78.62643,77.4865q-.73023-2.52531-1.52826-5.03241Q77.892,74.96208,78.62643,77.4865Z"/><path class="cls-1" d="M70.42715,174.90636c.00006-1.57947-.02655-3.15821-.06647-4.73627C70.4006,171.74815,70.42721,173.32689,70.42715,174.90636Z"/><path class="cls-1" d="M76.80923,71.54692q-.79908-2.48511-1.658-4.95264Q76.01278,69.0609,76.80923,71.54692Z"/><path class="cls-1" d="M70.31643,168.77013q-.0575-1.75508-.14795-3.50806Q70.25893,167.01512,70.31643,168.77013Z"/><path class="cls-2" d="M137.00063,2.51079c-1.38513.006-2.76977.02881-4.15307.07721-.12549.00439-.251.00537-.37647.01013-1.481.056-2.96008.14276-4.43774.24707q-.50931.036-1.01831.07617c-1.48542.11615-2.96936.24854-4.44977.41339-.0506.00568-.101.013-.15161.01868-1.44013.162-2.87659.35382-4.31073.56189-.33.04785-.65991.0954-.9895.14569-1.45679.22223-2.91077.46356-4.35987.73322-.19214.03576-.3833.07641-.57532.113q-1.9736.3761-3.93579.81268c-.30182.06684-.60412.13147-.90551.20038q-2.1481.4911-4.28113,1.05085c-.25958.06829-.51807.14154-.77728.21136q-1.92343.51828-3.83246,1.09308c-.1623.04883-.32514.09558-.48719.14508.0625.21362.11982.42853.18177.64227.11187.386.218.77338.32812,1.15985q.8335,2.92338,1.60163,5.86286c.09655.36987.19738.73858.29242,1.10882q.83441,3.25,1.5852,6.51868c.10913.4729.21436.94653.32092,1.42.47986,2.13159.94055,4.267,1.369,6.40869.02313.11567.04895.23084.0719.34656.44348,2.232.85053,4.47052,1.2381,6.71228q.12662.73251.24988,1.46546c.37243,2.22638.72387,4.456,1.04107,6.69073.03449.243.06415.48657.098.72968q.433,3.11059.79125,6.23089c.05207.44934.10669.89826.15656,1.34784q.36913,3.33042.65759,6.66925c.03693.42841.06824.85718.10315,1.28577q.24885,3.05823.43067,6.12213c.019.3244.04272.64838.06067.97284q.1852,3.35358.28314,6.71258c.0155.5055.02789,1.01093.04052,1.51655.05713,2.28137.0962,4.56353.09614,6.847q0,2.465-.04859,4.931c-.00934.51642-.0246,1.03284-.03686,1.54925q-.04085,1.71983-.10187,3.43958-.03177.87112-.06915,1.74213-.07306,1.70763-.16883,3.41485c-.02917.52692-.0556,1.05384-.08789,1.58075q-.14136,2.31015-.32025,4.6192c-.00818.10407-.014.20819-.02234.31226q-.19582,2.46588-.44018,4.92963c-.04859.49658-.10321.99267-.15448,1.48913q-.18027,1.745-.3816,3.48865-.0996.85584-.2052,1.71118-.20957,1.70609-.44189,3.41022c-.07153.52691-.14069,1.054-.21527,1.58063q-.30981,2.187-.65521,4.37078c-.02881.18171-.05408.36371-.0832.54535q-.39385,2.45508-.836,4.90515c-.0846.47175-.17542.94281-.26252,1.41425q-.32519,1.75992-.67218,3.51715-.16781.84549-.342,1.69-.34624,1.68788-.71508,3.37262c-.11512.52686-.22815,1.054-.34644,1.58039q-.47013,2.09234-.97443,4.17956c-.05542.22962-.10675.45972-.16278.68921q-.59417,2.43348-1.23663,4.85895c-.11743.4447-.24109.88824-.36084,1.33258q-.47672,1.76945-.97607,3.53473-.23428.82507-.47535,1.64874-.48439,1.66525-.99145,3.326c-.15991.52441-.31818,1.04907-.48132,1.57281q-.62019,1.99054-1.27314,3.97413c-.09033.275-.17633.551-.26757.82586q-.79542,2.39466-1.63874,4.77844c-.14807.4195-.30273.83735-.453,1.25629q-.63227,1.76275-1.28809,3.51978-.30249.80794-.61212,1.61419-.62054,1.62561-1.26349,3.24543c-.208.52441-.41473,1.04913-.62616,1.57263q-.75686,1.874-1.54486,3.7395c-.13568.32184-.26642.645-.40338.96649q-.99647,2.33909-2.04034,4.66461c-.17609.39264-.35877.78333-.53687,1.17542q-.79275,1.74518-1.60968,3.483c-.24859.52734-.5011,1.05347-.75336,1.57965q-.75594,1.577-1.53411,3.14709c-.25739.51954-.51386,1.03925-.77484,1.55762q-.887,1.76175-1.80359,3.51373c-.18732.359-.36975.71961-.55884,1.078q-1.19751,2.27-2.4419,4.524c-.20074.36371-.40826.725-.61084,1.088-.4801.86041-.95721,1.72186-1.44757,2.57861.10712-.12665.2121-.25049.31745-.37476.91064-1.26605,1.81988-2.53265,2.71557-3.805.46253-.6571.93207-1.31128,1.39063-1.97q2.47449-3.55472,4.87427-7.14044c.32482-.486.6394-.97614.96209-1.463q1.91382-2.88729,3.78028-5.79357c.535-.83429,1.06207-1.67157,1.59088-2.50831q1.56078-2.46945,3.0863-4.95245c.52844-.86041,1.05744-1.72064,1.57953-2.58349q1.66535-2.75245,3.284-5.52234c.37036-.63221.749-1.2613,1.116-1.89472q2.11579-3.65186,4.15577-7.331c.38757-.69867.76312-1.40149,1.1466-2.1015q1.48078-2.7031,2.92493-5.41883.72747-1.37219,1.44189-2.74878,1.3017-2.49627,2.56867-5.00415c.4541-.898.91052-1.79528,1.35809-2.69537q1.49377-3.00393,2.9364-6.02393c.2547-.53192.51819-1.06115.77063-1.59381q1.774-3.74267,3.47022-7.50866c.37555-.83142.73932-1.66626,1.10943-2.49927q1.1652-2.62226,2.298-5.25372.62218-1.44993,1.2326-2.90314,1.07886-2.56375,2.12226-5.13715c.36694-.903.73809-1.80493,1.09887-2.70959q1.3982-3.50629,2.73615-7.02808.23025-.60681.4599-1.21362,1.3569-3.60791,2.64648-7.23218c.3219-.90271.63349-1.80786.9494-2.712q.91791-2.62683,1.80426-5.26093.49219-1.46676.97486-2.93567.887-2.70474,1.73559-5.41772c.2677-.85254.54139-1.70374.80378-2.55738q1.19869-3.89942,2.32879-7.81244c.14643-.50909.28278-1.02.42731-1.52941q.91617-3.228,1.78509-6.46436c.24939-.93133.49006-1.86414.73334-2.79657q.69993-2.68305,1.36713-5.3717.35659-1.4394.70617-2.88.70341-2.92171,1.36377-5.85c.16816-.74182.34375-1.48249.50812-2.22486q.88174-3.98364,1.69123-7.97735c.13061-.64527.25042-1.29187.37817-1.93744q.6123-3.09475,1.18378-6.19458c.17-.92737.33331-1.85547.49749-2.78351q.491-2.77589.94678-5.55566c.15-.91407.30139-1.82807.44562-2.74268q.511-3.24078.97235-6.48614c.07916-.55445.16608-1.10828.24322-1.66291q.563-4.049,1.05-8.104c.0885-.73346.16657-1.46759.25147-2.2013.161-1.39111.30871-2.78308.4566-4.175-.12359-.017-.24707-.03614-.37073-.0528q-2.0266-.27273-4.05774-.4873c-.2163-.02253-.43292-.03919-.64929-.06061q-1.75241-.1734-3.507-.29987-.57091-.04148-1.142-.079c-1.26355-.08117-2.52753-.14831-3.79157-.194-.11151-.004-.223-.01129-.33453-.01507-1.36505-.0459-2.72992-.06507-4.0943-.06964C137.69308,2.50658,137.34682,2.50932,137.00063,2.51079Z"/><path class="cls-3" d="M155.27834,10.14232q-.48916,4.05459-1.05,8.104c-.07714.55463-.164,1.10846-.24322,1.66291q-.46344,3.24517-.97235,6.48614c-.14423.91467-.29572,1.82855-.44562,2.74268q-.45593,2.77972-.94678,5.55566c-.16412.9281-.32745,1.85608-.49749,2.78351q-.56846,3.10007-1.18378,6.19458c-.12775.64563-.24756,1.29217-.37817,1.93744q-.80832,3.9937-1.69123,7.97735c-.1643.74237-.34,1.483-.50812,2.22486q-.66357,2.92776-1.36377,5.85-.34689,1.441-.70617,2.88-.666,2.68872-1.36713,5.3717c-.24322.9325-.48395,1.86524-.73334,2.79657q-.86663,3.23694-1.78509,6.46436c-.14459.5094-.28088,1.02038-.42731,1.52941Q139.853,84.61712,138.65,88.51585c-.26239.85364-.53608,1.70478-.80378,2.55738q-.85152,2.71224-1.73559,5.41772-.48176,1.46915-.97486,2.93567-.88412,2.63452-1.80426,5.26093c-.31591.90417-.62744,1.8092-.9494,2.712q-1.29227,3.62347-2.64648,7.23218-.22842.60726-.4599,1.21362-1.33631,3.52214-2.73615,7.02808c-.36078.90472-.73193,1.80652-1.09887,2.70959q-1.04544,2.57281-2.12226,5.13715-.61147,1.453-1.2326,2.90314-1.12968,2.63241-2.298,5.25372c-.37011.833-.73388,1.66778-1.10943,2.49927q-1.70033,3.76464-3.47022,7.50866c-.25244.53266-.51593,1.06189-.77063,1.59381q-1.44552,3.01905-2.9364,6.02393c-.44757.90015-.904,1.7973-1.35809,2.69537q-1.26783,2.50745-2.56867,5.00415-.71732,1.37568-1.44189,2.74878-1.44058,2.71692-2.92493,5.41883c-.38354.70007-.75909,1.40283-1.1466,2.1015q-2.04072,3.67867-4.15577,7.331c-.367.63342-.74566,1.26251-1.116,1.89472q-1.622,2.76864-3.284,5.52234c-.52209.86285-1.051,1.723-1.57953,2.58349q-1.52526,2.4831-3.0863,4.95245c-.52887.83674-1.05591,1.67395-1.59088,2.50831q-1.86411,2.90706-3.78028,5.79357c-.32275.48688-.63727.977-.96209,1.463q-2.39731,3.58657-4.87427,7.14044c-.45856.65881-.9281,1.31293-1.39063,1.97-.89569,1.2724-1.80493,2.539-2.71557,3.805-.02942.041-.05829.082-.08777.12293q6.6059-7.79948,13.49194-15.232A452.07,452.07,0,0,0,158.46212,4.12389c-.8244-.129-1.6499-.24445-2.47571-.35791-.14789,1.392-.29565,2.78393-.4566,4.175C155.445,8.67479,155.36684,9.4088,155.27834,10.14232Z"/><path class="cls-3" d="M75.4089,221.1q-.09723.11481-.19464.22949c.036-.03582.07177-.07214.10784-.10791C75.35122,221.1812,75.37978,221.14043,75.4089,221.1Z"/><path class="cls-4" d="M60.63863,34.19652q1.26069,2.27289,2.46149,4.57226c.14807.28351.29364.56794.44037.852.82178,1.59082,1.62848,3.18805,2.40753,4.79657.021.04334.04089.087.06189.13038q1.156,2.39107,2.244,4.809c.11578.25579.23352.5108.3482.76709q1.06431,2.378,2.06623,4.77893c.12274.29364.24365.58789.365.882q1.01321,2.45553,1.96777,4.93133c.04327.113.08423.22669.12732.33966q.92313,2.42139,1.78253,4.86322c.07953.22528.1615.44971.2403.67523q.8616,2.4667,1.658,4.95264.14574.45328.28894.90717.79384,2.50808,1.52826,5.03241c.04968.17181.09631.3443.14556.51623q.70477,2.46094,1.34864,4.93695c.04925.18939.10113.37805.1499.56757q.65213,2.53565,1.23688,5.08642.1083.46921.21472.93885.57376,2.53912,1.08734,5.09021c.04553.22729.08765.4552.13239.68267q.49227,2.50315.92529,5.01667c.02527.14734.053.29419.078.44159.29181,1.72265.55707,3.4494.80579,5.17859.04687.32562.09393.65112.13928.977q.35441,2.54881.64838,5.10546c.03192.27918.0603.55854.09106.83783q.28189,2.55954.50531,5.12543c.00769.08984.01721.17944.02472.26929.14728,1.75061.26648,3.50366.36987,5.25793.01923.32593.03943.65174.05713.97779q.1387,2.55633.21576,5.11639c.00934.31372.01557.6275.02356.94128.045,1.77613.07489,3.553.07483,5.33075.00006,1.73542-.0293,3.47144-.07239,5.20758-.012.48139-.02746.96247-.04272,1.44385q-.067,2.11313-.17652,4.22589c-.019.36591-.03338.73175-.05432,1.09766q-.14785,2.58527-.36065,5.1687c-.03254.39624-.07129.79211-.10608,1.18829q-.18375,2.09208-.40967,4.182c-.04962.45917-.098.91827-.15064,1.37732-.19921,1.73492-.41406,3.46887-.657,5.20056-.01672.119-.0365.23755-.05341.35651q-.34524,2.4299-.75244,4.85406-.11654.70147-.239,1.40216-.38031,2.19563-.807,4.38568c-.05621.288-.10772.57648-.16522.86432q-.51489,2.57822-1.09851,5.1471c-.09119.40332-.18805.80566-.28174,1.20855q-.48176,2.07294-1.0069,4.13886c-.10809.42529-.2138.85083-.32464,1.27569q-.66852,2.56266-1.39942,5.114c-.05822.202-.12146.40307-.18035.605q-.66038,2.2641-1.3758,4.517-.21661.68445-.43817,1.36773-.72455,2.23536-1.49927,4.45966c-.07409.212-.14355.425-.21838.6369q-.88659,2.51166-1.84479,5.006c-.16015.41913-.32568.83674-.48865,1.25513q-.77736,1.995-1.59783,3.97852c-.16578.40088-.32843.80261-.49689,1.20276q-1.03647,2.46185-2.137,4.90551c-.12786.283-.26208.564-.39123.84656q-.94062,2.05792-1.92987,4.10089c-.09821.20307-.18884.40839-.28772.61121.2782-.4466.55957-.89185.83484-1.33954q.54043-.87882,1.07562-1.75952.87954-1.455,1.73584-2.91895c.317-.53961.63757-1.07794.95044-1.61908q1.0155-1.75662,1.99817-3.5249c.19311-.346.39221-.68976.58368-1.03631Q74.3,212.72512,75.516,210.41862c.20319-.38525.39832-.77313.59949-1.15911q.90445-1.7354,1.78558-3.47852c.278-.55286.54865-1.108.82251-1.66211q.74616-1.50988,1.47474-3.02539.42993-.89832.85089-1.79925.692-1.47383,1.365-2.95337.41162-.90528.818-1.81214.68262-1.53121,1.34235-3.06891c.24139-.56005.48577-1.11932.72308-1.68048q.75623-1.7883,1.48114-3.58526c.1593-.39252.32434-.78339.48169-1.1764q.95883-2.3952,1.86975-4.80267c.11865-.31384.23065-.62939.34808-.94354q.72144-1.92984,1.41486-3.86639c.19623-.5506.38507-1.10291.57751-1.65436q.55692-1.59567,1.09589-3.19538c.20477-.61139.405-1.22375.6051-1.83612q.50162-1.53478.98462-3.07367.2916-.93025.57758-1.86163.48082-1.57351.93939-3.15149c.17084-.58472.34424-1.169.511-1.75452.3388-1.18975.66516-2.38177.98706-3.57458.11956-.44312.24475-.88519.362-1.32874q.65085-2.46231,1.25531-4.93243c.06005-.24591.11456-.49268.17389-.73871q.50436-2.092.97656-4.189c.12378-.55207.23993-1.10523.36011-1.65778.23913-1.09943.47467-2.1994.69982-3.30078.12775-.625.25049-1.25061.37372-1.87616q.3078-1.56216.59748-3.12653.177-.95836.34771-1.91742.281-1.5855.54071-3.17334c.10059-.61.20319-1.21991.2995-1.83044.18409-1.16669.35645-2.33447.525-3.50263.07147-.495.14813-.98956.21679-1.4848q.346-2.49554.64716-4.99469c.01868-.156.03369-.31219.05206-.4682q.26605-2.25805.49414-4.51837c.05591-.55487.104-1.11005.15638-1.6651.10546-1.11609.20758-2.23224.299-3.349.052-.63464.09851-1.26947.146-1.9043q.1171-1.56656.21729-3.13366.062-.98254.11706-1.96521.08761-1.57059.15534-3.14142c.028-.63373.05737-1.2674.08081-1.90112.04205-1.13337.07306-2.26673.10077-3.4.01318-.53692.03113-1.07391.04107-1.61084q.04633-2.50095.04944-5.00128c-.00006-2.26215-.03882-4.52313-.09552-6.78326-.01257-.50159-.02484-1.00318-.04022-1.50458q-.1018-3.321-.28015-6.63764c-.01856-.33581-.043-.67114-.06281-1.00689q-.17751-3.01071-.42327-6.01593c-.03528-.43427-.06714-.8689-.10456-1.303q-.28344-3.28839-.64764-6.56854c-.05206-.47-.10907-.93946-.16358-1.40912q-.35376-3.04852-.77331-6.08881c-.036-.25909-.06751-.5188-.10431-.77771-.31207-2.19781-.65784-4.39087-1.02387-6.58057q-.127-.75951-.25878-1.51831c-.38068-2.20044-.78022-4.39776-1.21521-6.58862-.03235-.163-.06849-.32538-.1012-.48834q-.62374-3.11124-1.32593-6.20715c-.10846-.482-.21539-.96436-.32641-1.44574q-.74332-3.22148-1.56269-6.42621c-.09894-.38556-.20367-.76966-.30432-1.15485q-.75732-2.898-1.57892-5.78027c-.1076-.37744-.211-.75592-.32025-1.133-.05749-.19836-.12219-.39483-.18011-.593-.131.04267-.26227.08442-.39319.12745Q92.94,10.0414,90.73232,10.85c-.20032.07373-.39923.15192-.59924.22662q-2.0994.78425-4.17536,1.63874c-.17987.07409-.361.14459-.54052.21948q-2.17512.907-4.32,1.89618-.42774.1962-.854.396c-1.43311.66955-2.85834,1.35907-4.27027,2.0805-.13806.07056-.27435.14508-.41217.21613q-2.00226,1.03188-3.97284,2.136c-.23211.1297-.46551.25629-.697.38739q-2.04345,1.15759-4.05053,2.39222c-.26941.16534-.53736.33367-.80579.50109-1.37024.8545-2.73157,1.72687-4.07483,2.63379-.03.02027-.05951.04175-.08954.062-1.32727.89776-2.63708,1.82812-3.93652,2.77691-.1438.105-.288.20929-.43146.31494.91126,1.5315,1.79486,3.07605,2.66449,4.627C60.324,33.63554,60.48275,33.91539,60.63863,34.19652Z"/><path class="cls-3" d="M96.06374,10.90581q.82169,2.88207,1.57892,5.78027c.10065.38519.20538.76923.30432,1.15485q.82215,3.20388,1.56269,6.42621c.11108.4815.218.96368.32641,1.44574q.69672,3.09677,1.32593,6.20715c.03265.163.06879.32532.1012.48834.435,2.19086.83453,4.38818,1.21521,6.58862q.13128.759.25878,1.51831c.366,2.1897.7118,4.38276,1.02387,6.58057.0368.259.0683.51862.10431.77771q.4227,3.03965.77331,6.08881c.05457.46978.11152.93908.16358,1.40912q.36329,3.28005.64764,6.56854c.03736.43414.06928.86865.10456,1.303q.24435,3.00522.42327,6.01593c.01978.33575.04425.67108.06281,1.00689q.18311,3.31614.28015,6.63764c.01532.50146.02765,1.003.04022,1.50458.0567,2.26013.09546,4.52111.09552,6.78326q0,2.50013-.04944,5.00128c-.00988.53693-.02789,1.07392-.04107,1.61084-.02771,1.1333-.05872,2.26666-.10077,3.4-.02344.63372-.05286,1.26739-.08081,1.90112q-.06931,1.57086-.15534,3.14142-.05484.98272-.11706,1.96521-.09888,1.56711-.21729,3.13366c-.04748.63483-.094,1.26966-.146,1.9043-.09143,1.11676-.19355,2.23291-.299,3.349-.05243.555-.10047,1.11023-.15638,1.6651q-.22777,2.26035-.49414,4.51837c-.01837.156-.03338.3122-.05206.4682q-.29892,2.49912-.64716,4.99469c-.06866.4953-.14538.98975-.21679,1.4848-.16858,1.16816-.34094,2.33594-.525,3.50263-.09631.61053-.19891,1.22034-.2995,1.83044q-.26175,1.58761-.54071,3.17334-.17.9592-.34771,1.91742-.28894,1.56445-.59748,3.12653c-.12317.62561-.246,1.25116-.37372,1.87616-.22515,1.10138-.46069,2.20135-.69982,3.30078-.12024.55261-.23639,1.10565-.36011,1.65778q-.47022,2.0972-.97656,4.189c-.05933.246-.11384.4928-.17389.73871q-.603,2.47027-1.25531,4.93243c-.11725.44355-.24244.88562-.362,1.32874-.3219,1.19281-.64826,2.38483-.98706,3.57458-.16675.58551-.34009,1.16974-.511,1.75452q-.46088,1.57746-.93939,3.15149-.28464.93174-.57758,1.86163-.48248,1.53891-.98462,3.07367c-.20019.61243-.40033,1.22473-.6051,1.83612q-.536,1.60044-1.09589,3.19538c-.19244.55151-.38128,1.10376-.57751,1.65436q-.69032,1.93725-1.41486,3.86639c-.11743.31415-.22937.6297-.34808.94354q-.9103,2.40756-1.86975,4.80267c-.15729.393-.32239.78388-.48169,1.1764q-.72885,1.7958-1.48114,3.58526c-.23731.56122-.48175,1.12043-.72308,1.68048q-.66239,1.537-1.34235,3.06891-.40457.90738-.818,1.81214-.67282,1.47958-1.365,2.95337-.42279.90051-.85089,1.79925-.72584,1.51629-1.47474,3.02539c-.27386.55414-.54455,1.10925-.82251,1.66211q-.87706,1.74435-1.78558,3.47852c-.20117.386-.3963.7738-.59949,1.15911q-1.21627,2.30631-2.48089,4.59614c-.19147.34649-.39057.69036-.58368,1.03631q-.98638,1.767-1.99817,3.5249c-.31287.54114-.63342,1.07941-.95044,1.61908Q68.6436,222.6577,67.767,224.114q-.533.88165-1.07562,1.75952c-.27527.44769-.55664.89294-.83484,1.33954l-.04718.0758q-1.00039,2.04887-2.04883,4.08216,4.60941-5.82258,9.37244-11.4527.7683-1.34079,1.52282-2.68646c.20258-.363.4101-.72431.61084-1.088q1.24429-2.25393,2.4419-4.524c.18909-.3584.37152-.719.55884-1.078q.91461-1.75259,1.80359-3.51373c.261-.51837.51745-1.03808.77484-1.55762q.77783-1.57012,1.53411-3.14709c.25226-.52618.50477-1.05231.75336-1.57965q.819-1.73721,1.60968-3.483c.1781-.39209.36078-.78278.53687-1.17542q1.043-2.3258,2.04034-4.66461c.137-.32147.2677-.64465.40338-.96649q.78634-1.866,1.54486-3.7395c.21143-.5235.41816-1.04822.62616-1.57263q.64244-1.62,1.26349-3.24543.30789-.80667.61212-1.61419.65772-1.75663,1.28809-3.51978c.15027-.41894.30493-.83679.453-1.25629q.84183-2.38412,1.63874-4.77844c.09124-.27484.17724-.55084.26757-.82586q.652-1.98387,1.27314-3.97413c.16314-.52374.32141-1.0484.48132-1.57281q.50637-1.661.99145-3.326.23979-.824.47535-1.64874.50124-1.765.97607-3.53473c.11975-.44434.24341-.88788.36084-1.33258q.64023-2.42578,1.23663-4.85895c.056-.22949.10736-.45959.16278-.68921q.50382-2.08722.97443-4.17956c.11829-.52643.23132-1.05353.34644-1.58039q.368-1.68484.71508-3.37262.17322-.84475.342-1.69.34874-1.757.67218-3.51715c.0871-.47144.17792-.9425.26252-1.41425q.43935-2.45031.836-4.90515c.02912-.18164.05439-.36364.0832-.54535q.34569-2.18371.65521-4.37078c.07458-.52668.14374-1.05372.21527-1.58063q.23125-1.70435.44189-3.41022.105-.85547.2052-1.71118.20289-1.74353.3816-3.48865c.05127-.49646.10589-.99255.15448-1.48913q.24087-2.46378.44018-4.92963c.0083-.10407.01416-.20819.02234-.31226q.18072-2.30895.32025-4.6192c.03229-.52691.05872-1.05383.08789-1.58075q.09448-1.70727.16883-3.41485.03726-.87113.06915-1.74213.06253-1.71983.10187-3.43958c.01226-.51641.02752-1.03283.03686-1.54925q.04449-2.46579.04859-4.931c.00006-2.28339-.03895-4.56561-.09614-6.847-.01263-.50562-.025-1.01105-.04052-1.51655q-.10282-3.35843-.28314-6.71258c-.01795-.32446-.04163-.64844-.06067-.97284q-.18027-3.0639-.43067-6.12213c-.03491-.42859-.06622-.85736-.10315-1.28577q-.28757-3.33883-.65759-6.66925c-.04987-.44958-.10449-.8985-.15656-1.34784q-.36153-3.11975-.79125-6.23089c-.03382-.24311-.06348-.4867-.098-.72968-.31726-2.23462-.66858-4.46442-1.04107-6.69073q-.12269-.73324-.24988-1.46546c-.38764-2.24176-.79456-4.48034-1.2381-6.71228-.023-.11572-.04877-.23089-.0719-.34656-.42847-2.14166-.88922-4.27716-1.369-6.40869-.10656-.47345-.21179-.94708-.32092-1.42q-.75384-3.26788-1.5852-6.51868c-.095-.37024-.19587-.73895-.29242-1.10882q-.76778-2.93949-1.60163-5.86286c-.11017-.38647-.21625-.77386-.32812-1.15985-.06189-.21362-.13153-.42517-.194-.63861-.79682.24341-1.59064.49725-2.3833.75549.05792.19819.12262.39466.18011.593C95.85281,10.14983,95.95608,10.52831,96.06374,10.90581Z"/><path class="cls-5" d="M32.69125,62.30522Q33.784,63.74737,34.846,65.207c.283.389.56714.7771.8468,1.168q1.35279,1.89066,2.65833,3.807c.03833.05646.07849.11206.1167.16858.90423,1.33636,1.78405,2.68555,2.65063,4.04144.25043.39185.49561.78626.74286,1.17969q.957,1.52251,1.88269,3.06036c.24353.40461.4884.80841.72864,1.2146q1.18808,2.00886,2.32757,4.04041c.0235.04205.04822.08356.07166.12561.78045,1.40143,1.53619,2.814,2.27856,4.2323.212.405.41864.81213.62751,1.21844q.8193,1.59384,1.60668,3.20093c.20514.41876.41169.83673.61353,1.25678.67651,1.40783,1.34015,2.82092,1.98,4.24316.01276.02838.02637.05646.03919.0849.65417,1.45593,1.28308,2.92126,1.89868,4.39142.17535.4187.34546.83911.51764,1.259q.67749,1.65171,1.32257,3.31439c.16717.43091.33581.86109.49969,1.293.555,1.46289,1.09693,2.92993,1.61444,4.40467l.02191.06042c.52558,1.49945,1.02564,3.00653,1.51233,4.51752.13929.43243.27332.86615.40937,1.29944q.53274,1.69618,1.03289,3.40118c.12946.44141.26056.88226.38672,1.32452.43042,1.50867.84772,3.02057,1.23981,4.53858l.00958.03546c.39582,1.53375.76581,3.0733,1.12244,4.61584.10284.44477.20032.89051.29993,1.33594q.38543,1.72467.73822,3.45575c.09246.45374.18664.907.27569,1.36139.30182,1.53961.59058,3.08173.85364,4.62805l.00458.02545c.26471,1.55719.50323,3.11853.72845,4.68177.06586.45691.12634.91436.18878,1.3717q.23785,1.74252.44312,3.48914c.0542.46142.11017.92254.16095,1.3844.17108,1.55621.32879,3.11395.46087,4.67425l.00361.03778c.13269,1.5716.239,3.14557.332,4.72052.02734.46363.04937.92749.0733,1.39136q.09045,1.75314.14795,3.50806c.01532.46667.03241.9331.04425,1.4.03992,1.57806.06653,3.1568.06647,4.73627q0,1.76257-.03473,3.52575c-.0072.38208-.02118.7641-.0307,1.14618-.01984.79377-.04059,1.58753-.07056,2.38129-.01727.45709-.04065.91406-.06122,1.37115-.03247.71991-.06592,1.4397-.10675,2.15949-.02753.485-.05981.96985-.09106,1.45471-.04486.69464-.09174,1.3891-.14441,2.0835q-.05631.74249-.11975,1.48462-.08625,1.0284-.1836,2.05627-.07077.74524-.14709,1.49024-.10648,1.03317-.22589,2.06536c-.05591.48865-.11151.97736-.17133,1.46576-.08673.70825-.1803,1.416-.27521,2.12366-.06225.46436-.12249.92877-.18829,1.39282-.10809.76221-.22491,1.5235-.34253,2.28479-.06305.408-.12219.81641-.18805,1.22418-.15246.94483-.31537,1.88868-.4826,2.83191-.03955.22309-.075.4466-.1153.66956q-.31777,1.75479-.67,3.50555c-.05884.29267-.12366.58454-.184.877-.179.86871-.36048,1.73712-.55213,2.60406-.09417.42609-.19494.8512-.29217,1.27686-.16742.73266-.33563,1.46521-.51209,2.19653-.11328.4693-.23193.93768-.34887,1.40643-.17169.68775-.34491,1.37507-.52466,2.06147-.1272.4859-.25836.97094-.38959,1.45611q-.27228,1.00644-.5553,2.011-.20745.73416-.42144,1.467c-.08783.30115-.17035.60327-.25971.90411.028-.056.05414-.11242.08209-.16839.77588-1.55628,1.52442-3.12122,2.25788-4.69068q.31293-.66961.61981-1.34106.96972-2.11441,1.88995-4.24335c.109-.25268.223-.50384.331-.75677q1.04589-2.45124,2.0202-4.92194c.17285-.436.34045-.87353.51013-1.31042q.77784-2.00254,1.5119-4.01606c.14331-.39318.29071-.7854.43152-1.17919q.88669-2.47962,1.7077-4.97413c.12372-.37622.24067-.754.36219-1.13067q.65826-2.04117,1.27227-4.09155c.1377-.45978.27686-.91919.41126-1.37964.49017-1.6792.96387-3.3617,1.41-5.049.06006-.22712.11438-.45514.17365-.68238q.585-2.24358,1.116-4.49609.17239-.728.33953-1.45667.53129-2.31894,1.0113-4.64532c.03692-.18012.078-.35968.11444-.53986.34515-1.70788.66192-3.41931.96313-5.1325.08289-.4712.1615-.94281.241-1.41431q.35659-2.11459.66919-4.23352c.05347-.3631.11169-.72583.16327-1.08917q.36447-2.569.66241-5.14319c.04853-.41718.09095-.8346.1369-1.25189q.23044-2.09272.41816-4.18775c.03973-.44336.08191-.88659.11877-1.33q.21479-2.58656.368-5.17511c.017-.2945.028-.58912.0437-.88361q.11894-2.2185.189-4.43756c.01514-.47235.03-.9447.042-1.41706.04407-1.74475.07428-3.4895.07434-5.23358-.00006-1.75708-.0296-3.51336-.07422-5.26886-.00787-.30871-.014-.61743-.02319-.92608q-.07544-2.524-.213-5.04438c-.01788-.32989-.03827-.65966-.05774-.98944-.10156-1.72131-.21869-3.44146-.363-5.15918-.01043-.1242-.0235-.24816-.03412-.37237q-.21285-2.4798-.4884-4.95319c-.0318-.28894-.061-.57812-.09405-.86694q-.28537-2.49747-.63343-4.987-.07305-.52616-.14953-1.0517-.36172-2.51111-.78009-5.01367c-.03693-.21863-.07776-.43658-.11548-.65509q-.40851-2.37057-.87268-4.73144c-.05023-.25574-.09735-.51215-.1485-.7677q-.49329-2.46434-1.05017-4.9162-.122-.54108-.24671-1.08149-.56378-2.43924-1.18328-4.86608c-.07142-.27826-.147-.55549-.21955-.83344q-.60552-2.319-1.26343-4.62524c-.05749-.20118-.11175-.40314-.16992-.60419q-.70322-2.43154-1.47143-4.8457-.16737-.53-.33655-1.05939-.76354-2.37268-1.58307-4.729c-.10779-.30921-.2193-.61738-.32861-.92615q-.82489-2.33066-1.70233-4.64472c-.0434-.114-.08442-.22863-.12806-.34253-.61425-1.60339-1.25537-3.19781-1.91027-4.78735-.13453-.32648-.26783-.65332-.40406-.97925q-.96633-2.31151-1.9898-4.60223c-.14118-.31586-.28534-.63056-.42811-.9458-.71551-1.57978-1.44494-3.15424-2.20135-4.71784-.0368-.076-.07544-.15124-.11231-.22729q-1.11171-2.29065-2.28637-4.5553c-.14508-.28094-.28809-.5628-.43451-.8432q-1.177-2.25393-2.4129-4.482c-.16742-.30219-.33692-.6034-.50592-.90485Q56.763,32.39589,55.4883,30.24138q-.26064.19959-.52063.40021-1.20007.92824-2.382,1.88672c-.27069.21936-.54321.43573-.8125.65747q-1.55465,1.28008-3.079,2.60876c-.10467.09168-.20709.187-.31152.279q-1.35645,1.19459-2.68487,2.43213c-.28772.26746-.573.53839-.85877.80878q-1.10843,1.04874-2.19678,2.12689c-.26464.26208-.531.52173-.79382.78632q-1.43829,1.44782-2.843,2.94244c-.05694.06091-.11212.12415-.16894.18512Q37.53054,46.757,36.26,48.20622c-.27106.30805-.53894.62024-.80774.93134q-.99187,1.1478-1.96222,2.32312c-.25958.31433-.52069.62695-.778.94421-.86975,1.07245-1.73053,2.15625-2.57318,3.262-.43671.57305-.85828,1.15277-1.28443,1.73053,1.01374,1.2481,2.00354,2.51062,2.98108,3.78045C32.12362,61.55211,32.40633,61.92918,32.69125,62.30522Z"/><path class="cls-3" d="M58.49081,35.48q1.23468,2.22839,2.4129,4.482c.14636.28046.28949.56226.43451.8432q1.17014,2.26629,2.28637,4.5553c.03687.076.07551.15124.11231.22729.75641,1.5636,1.48584,3.13806,2.20135,4.71784.14283.31524.28693.62994.42811.9458q1.02356,2.29047,1.9898,4.60223c.13623.32593.26947.65277.40406.97925.6549,1.58954,1.296,3.184,1.91027,4.78735.04364.1139.08466.22858.12806.34253q.88137,2.31262,1.70233,4.64472c.10931.30884.22076.61688.32861.92615q.82113,2.35574,1.58307,4.729.17028.52917.33655,1.05939.763,2.41534,1.47143,4.8457c.05811.201.11243.403.16992.60419q.65937,2.30576,1.26343,4.62524c.07257.278.14807.55518.21955.83344q.62265,2.42605,1.18328,4.86608.12489.54054.24671,1.08149.553,2.45251,1.05017,4.9162c.05121.25561.09833.5119.1485.7677q.46344,2.361.87268,4.73144c.03766.21851.07855.43646.11548.65509q.423,2.50178.78009,5.01367.07571.5258.14953,1.0517.34561,2.48969.63343,4.987c.033.28882.06225.578.09405.86694q.27219,2.47358.4884,4.95319c.01069.12421.02369.24817.03412.37237.14435,1.71772.26148,3.43787.363,5.15918.01947.32978.0398.65949.05774.98944q.13668,2.52027.213,5.04438c.00928.30865.01532.61737.02319.92608.04462,1.7555.07416,3.51178.07422,5.26886-.00006,1.74414-.03027,3.48883-.07434,5.23358-.012.47236-.02685.94471-.042,1.41706q-.07133,2.219-.189,4.43756c-.01574.29449-.02667.58911-.0437.88361q-.14986,2.58855-.368,5.17511c-.03686.44342-.079.88665-.11877,1.33q-.1877,2.095-.41816,4.18775c-.046.41729-.08837.83471-.1369,1.25189q-.29946,2.57391-.66241,5.14319c-.05158.36334-.1098.72607-.16327,1.08917q-.31219,2.119-.66919,4.23352c-.07953.4715-.15814.94311-.241,1.41431-.30115,1.71319-.618,3.42456-.96313,5.1325-.03644.18018-.07752.35974-.11444.53986q-.47671,2.32663-1.0113,4.64532-.167.72886-.33953,1.45667-.5332,2.252-1.116,4.49609c-.05927.22724-.11359.45526-.17365.68238-.44616,1.68731-.9198,3.36975-1.41,5.049-.1344.46045-.27356.91986-.41126,1.37964q-.61422,2.05023-1.27227,4.09155c-.12152.37671-.23847.75445-.36219,1.13067q-.82048,2.49464-1.7077,4.97413c-.14081.39379-.28821.786-.43152,1.17919q-.73389,2.01352-1.5119,4.01606c-.16968.43689-.33728.87439-.51013,1.31042q-.9787,2.46945-2.0202,4.92194c-.108.25293-.222.50409-.331.75677q-.91863,2.12925-1.88995,4.24335-.3078.67118-.61981,1.34106c-.7334,1.56952-1.482,3.1344-2.25788,4.69068-.028.056-.05413.11242-.08209.16839l-.02521.05176q-1.2171,4.09158-2.62652,8.143,1.82547-2.36793,3.67407-4.70752,1.04874-2.03329,2.04883-4.08216.16772-.34341.3349-.687.98839-2.04327,1.92987-4.10089c.12915-.28253.26343-.5636.39123-.84656q1.1034-2.44281,2.137-4.90551c.16846-.40009.33105-.80188.49689-1.20276q.82048-1.98359,1.59783-3.97852c.163-.41833.3285-.83606.48865-1.25513q.95381-2.49544,1.84479-5.006c.07477-.21185.14435-.42486.21838-.6369q.77693-2.22372,1.49927-4.45966.22148-.68343.43817-1.36773.71321-2.25348,1.3758-4.517c.05883-.20191.12213-.403.18035-.605q.73545-2.55057,1.39942-5.114c.11084-.42474.21655-.85046.32464-1.27569q.52506-2.066,1.0069-4.13886c.09363-.40289.19055-.80529.28174-1.20855q.581-2.56916,1.09851-5.1471c.0575-.28784.109-.57635.16522-.86432q.42774-2.19.807-4.38568.1213-.70083.239-1.40216.40293-2.4245.75244-4.85406c.01691-.119.03675-.23761.05341-.35651.243-1.73169.45783-3.46564.657-5.20056.05268-.459.101-.91821.15064-1.37732q.22586-2.09.40967-4.182c.03473-.39611.07354-.792.10608-1.18829q.21194-2.58334.36065-5.1687c.02088-.36585.03528-.73181.05432-1.09766q.10968-2.11277.17652-4.22589c.01526-.48132.03082-.96258.04272-1.44385.04309-1.73614.07245-3.47216.07239-5.20758.00006-1.77771-.02979-3.55462-.07483-5.33075-.008-.31378-.01422-.62756-.02356-.94128q-.07644-2.56-.21576-5.11639c-.0177-.326-.0379-.65186-.05713-.97779-.10339-1.75427-.22253-3.50732-.36987-5.25793-.00751-.08985-.017-.17945-.02472-.26929q-.21927-2.56613-.50531-5.12543c-.03076-.27929-.05914-.55865-.09106-.83783q-.29207-2.55669-.64838-5.10546c-.04535-.32587-.09241-.65137-.13928-.977-.24878-1.72913-.514-3.456-.80579-5.17859-.025-.1474-.05273-.29425-.078-.44159q-.43131-2.51367-.92529-5.01667c-.04474-.22747-.08686-.45538-.13239-.68267q-.5105-2.55158-1.08734-5.09021-.1062-.46967-.21472-.93885-.58851-2.54984-1.23688-5.08642c-.04877-.18952-.10065-.37818-.1499-.56757q-.64418-2.47576-1.34864-4.93695c-.04925-.17193-.09588-.34442-.14556-.51623q-.73023-2.52522-1.52826-5.03241-.14366-.45393-.28894-.90717-.799-2.485-1.658-4.95264c-.0788-.22552-.16077-.45-.2403-.67523q-.86187-2.4408-1.78253-4.86322c-.04309-.113-.084-.22668-.12732-.33966q-.9493-2.47742-1.96777-4.93133c-.12134-.29413-.24225-.58838-.365-.882q-1.00325-2.40033-2.06623-4.77893c-.11468-.25629-.23242-.5113-.3482-.76709q-1.093-2.41581-2.244-4.809c-.021-.04334-.04089-.087-.06189-.13038-.779-1.60858-1.58575-3.20581-2.40753-4.79657-.14673-.28411-.2923-.56854-.44037-.852q-1.20108-2.29915-2.46149-4.57226c-.15588-.28113-.31463-.561-.47186-.84143q-1.30445-2.32645-2.66528-4.62647-1.01284.74561-2.01319,1.51276,1.27725,2.15322,2.49659,4.33374Q58.23848,35.0273,58.49081,35.48Z"/><path class="cls-6" d="M67.92727,174.90636A183.94041,183.94041,0,0,0,27.331,59.50414,134.947,134.947,0,0,0,54.31582,243.73979c.15954-.21606.32214-.43078.48211-.6466A183.16652,183.16652,0,0,0,67.92727,174.90636Z"/><path class="cls-3" d="M54.79793,243.09319c1.22791-1.6568,2.4469-3.31757,3.70069-4.96283.52508-.68909,1.05957-1.36658,1.58783-2.05182q1.41174-4.05,2.62652-8.143c.09479-.31866.1919-.63684.28492-.95587q.21377-.733.42144-1.467.284-1.00443.5553-2.011c.13123-.48517.26239-.97021.38959-1.45611.17969-.68634.353-1.37378.52466-2.06147.11694-.46875.23559-.93713.34887-1.40643.17646-.73132.34473-1.46387.51209-2.19653.09723-.42566.198-.85077.29217-1.27686.19159-.867.37317-1.73535.55213-2.60406.0603-.29248.12512-.58435.184-.877q.35193-1.75067.67-3.50555c.04035-.223.07575-.44647.1153-.66956.16723-.94323.33014-1.88708.4826-2.83191.06586-.40777.125-.81616.18805-1.22418.11768-.76129.23438-1.52264.34253-2.28479.0658-.464.126-.92846.18829-1.39282.095-.70764.18848-1.41534.27521-2.12366.05982-.4884.11542-.97711.17133-1.46576q.1181-1.03243.22589-2.06536.07681-.745.14709-1.49024.09769-1.028.1836-2.05627.06216-.74232.11975-1.48462.07891-1.04151.14441-2.0835c.03125-.48486.06353-.96973.09106-1.45471.04083-.71979.07428-1.43958.10675-2.15949.02057-.45709.04395-.91406.06122-1.37115.03-.79376.05072-1.58752.07056-2.38129.00952-.38208.0235-.7641.0307-1.14618q.03323-1.76311.03473-3.52575c.00006-1.57947-.02655-3.15821-.06647-4.73627-.01184-.46686-.02893-.93329-.04425-1.4q-.05758-1.755-.14795-3.50806c-.02393-.46387-.046-.92773-.0733-1.39136-.093-1.575-.19928-3.14886-.332-4.72052l-.00361-.03778c-.13208-1.56024-.28979-3.118-.46087-4.67425-.05078-.46186-.10675-.923-.16095-1.3844q-.20526-1.74674-.44312-3.48914c-.06244-.45734-.12292-.91479-.18878-1.3717-.22522-1.56317-.46374-3.12458-.72845-4.68177l-.00458-.02545c-.26306-1.54638-.55176-3.08844-.85364-4.62805-.08905-.45441-.18323-.90765-.27569-1.36139q-.35276-1.73108-.73822-3.45575c-.09961-.44543-.19709-.89117-.29993-1.33594-.35663-1.54248-.72656-3.08215-1.12244-4.61584l-.00958-.03546c-.39209-1.51795-.80939-3.03-1.23981-4.53858-.12616-.44226-.25726-.88311-.38672-1.32452q-.50006-1.705-1.03289-3.40118c-.136-.43329-.27008-.867-.40937-1.29944-.48669-1.51093-.98675-3.01807-1.51233-4.51752l-.02191-.06042c-.51745-1.47467-1.05945-2.94184-1.61444-4.40467-.16388-.43194-.33252-.86212-.49969-1.293q-.645-1.66269-1.32257-3.31439c-.17218-.41986-.34229-.84027-.51764-1.259-.61554-1.47009-1.24457-2.93549-1.89868-4.39142-.01282-.02844-.02643-.05652-.03919-.0849-.63983-1.42224-1.30347-2.83533-1.98-4.24316-.20184-.42005-.40839-.838-.61353-1.25678q-.78726-1.60711-1.60668-3.20093c-.20887-.40631-.41553-.81347-.62751-1.21844-.74231-1.41834-1.49811-2.83087-2.27856-4.2323-.02344-.04205-.04816-.08356-.07166-.12561q-1.13462-2.03376-2.32757-4.04041c-.24024-.40619-.48511-.81-.72864-1.2146q-.9255-1.538-1.88269-3.06036c-.24725-.39343-.49243-.78784-.74286-1.17969-.86664-1.35589-1.74646-2.70508-2.65063-4.04144-.03821-.05652-.07837-.11212-.1167-.16858q-1.30125-1.91866-2.65833-3.807c-.27966-.39087-.56384-.77893-.8468-1.168q-1.06175-1.45971-2.15472-2.90173c-.28492-.376-.56763-.75311-.85566-1.12732q-1.46611-1.90438-2.98187-3.77942-.7728,1.04792-1.52277,2.10566A183.94041,183.94041,0,0,1,67.92727,174.90636,183.16652,183.16652,0,0,1,54.79793,243.09319Z"/><path class="cls-2" d="M257.55227,91.69548c-.84.32288-1.67682.655-2.51508.983-1.26159.49353-2.52289.98773-3.78058,1.4928-.90326.36273-1.80389.733-2.70507,1.10174q-1.7787.72767-3.553,1.46778-1.405.58878-2.80561,1.18939-1.7155.73251-3.42608,1.47882-1.42439.6222-2.84509,1.25415-1.68321.74909-3.36048,1.51367-1.42941.65022-2.856,1.30793-1.66406.771-3.32128,1.55951c-.94825.44879-1.89728.89563-2.84278,1.35125-1.11328.53632-2.22223,1.08325-3.33166,1.62909-.92908.45716-1.86005.90991-2.78644,1.37366-1.158.57965-2.31049,1.17236-3.46417,1.76233-.86878.44427-1.74048.88159-2.60675,1.33179q-2.91441,1.51446-5.80982,3.07251c-.88684.47741-1.76758.96856-2.65173,1.4522-1.10456.60419-2.21063,1.20478-3.31079,1.81867-.97595.54455-1.94635,1.10138-2.91877,1.65356-1.00091.56836-2.00292,1.13434-3.00012,1.71076-.99676.57617-1.98877,1.16223-2.98175,1.74646-.966.5683-1.93219,1.13635-2.89459,1.71228q-1.50275.89941-2.99786,1.81445-1.41816.8638-2.83167,1.7367-1.506.93273-3.00519,1.87884-1.38968.87588-2.77374,1.76282-1.50393.96332-3.00207,1.938-1.37321.89511-2.73951,1.8034-1.49166.98795-2.9787,1.98462c-.90917.61261-1.814,1.23358-2.71929,1.8534-.98481.67413-1.97077,1.34613-2.951,2.02868-.90113.6275-1.79651,1.26544-2.69373,1.90009-.9765.69067-1.9555,1.37677-2.92737,2.07592-.91229.65632-1.81738,1.32538-2.72552,1.98914q-2.64158,1.93067-5.25922,3.90308c-.94317.71069-1.88959,1.41589-2.82806,2.13476-.93274.71448-1.85755,1.44239-2.78559,2.1648-.895.69677-1.79223,1.38977-2.6828,2.09405-.91943.727-1.83221,1.46515-2.74682,2.20008-.89136.7163-1.78357,1.431-2.67029,2.15484-.907.74024-1.80866,1.48908-2.71075,2.23725q-1.328,1.10137-2.65076,2.21112-1.33822,1.12728-2.66773,2.26843-1.326,1.13479-2.645,2.28021-1.31177,1.14038-2.61633,2.29193-1.33136,1.17562-2.65393,2.36438-1.27377,1.14276-2.54205,2.29395-1.3525,1.23221-2.6944,2.48041c-.8172.75671-1.6355,1.5119-2.44806,2.27557-.92963.87372-1.85235,1.75745-2.77576,2.64026-.76849.73456-1.53973,1.46509-2.30389,2.206-1.036,1.00452-2.063,2.02185-3.091,3.038-.64044.633-1.28571,1.25909-1.923,1.8966q-2.45234,2.45307-4.874,4.94971c-.49109.50659-.9751,1.02307-1.46423,1.53229-1.15308,1.20062-2.30548,2.40228-3.44764,3.618-.6347.67553-1.26214,1.36108-1.89343,2.04126-.98614,1.06262-1.97229,2.12518-2.95,3.19915-.67053.73658-1.335,1.48127-2.00152,2.22315q-1.39509,1.55283-2.78132,3.11743-1.01293,1.14844-2.017,2.30835-1.35993,1.563-2.70954,3.13934c-.343.40155-.68347.8064-1.02533,1.20935l-.07129.09913c.35651-.35334.72242-.69312,1.08057-1.04413.69189-.67816,1.38953-1.3476,2.08734-2.01709q1.68585-1.61738,3.3938-3.20185,1.08105-1.00214,2.16943-1.99292,1.74921-1.58615,3.52375-3.133c.69775-.611,1.39215-1.22663,2.095-1.82947,1.34979-1.15759,2.71374-2.29236,4.08233-3.42.54157-.44623,1.07624-.90338,1.62061-1.34491q2.84912-2.31043,5.74908-4.53589c.50629-.38831,1.02149-.76117,1.5301-1.14557,1.45037-1.09613,2.90545-2.184,4.37414-3.248.75317-.54571,1.51416-1.077,2.272-1.61425q1.86658-1.32322,3.7486-2.6175c.82562-.56451,1.65558-1.12054,2.48645-1.67517q1.82922-1.221,3.67474-2.41015,1.2617-.81291,2.52912-1.6142c1.27222-.79981,2.55261-1.58264,3.836-2.35986.80334-.48652,1.60363-.97876,2.41125-1.45642,1.49841-.88617,3.00788-1.7486,4.52063-2.60425.59674-.33753,1.18781-.68714,1.78668-1.02q3.12369-1.73576,6.28632-3.38428c.66864-.34875,1.34454-.68,2.01569-1.02307,1.47973-.75616,2.96154-1.50714,4.453-2.23505.85943-.41943,1.72424-.82458,2.58746-1.23462,1.32282-.62835,2.64783-1.25055,3.97931-1.85681q1.37018-.62393,2.74683-1.22949,1.96518-.86865,3.9422-1.70447c.91589-.38769,1.83172-.77466,2.75128-1.152,1.37982-.56623,2.76575-1.11438,4.15356-1.65741.85248-.3335,1.70246-.67408,2.55793-.99884,1.70361-.64686,3.41528-1.26838,5.13012-1.88038.5412-.19311,1.07849-.39849,1.62079-.58813q3.346-1.17032,6.71918-2.24939c.74164-.23792,1.488-.45831,2.23144-.68982,1.54663-.48169,3.09455-.958,4.64869-1.41174.90185-.26331,1.80676-.51325,2.711-.76715q2.12046-.59547,4.24811-1.16047,1.41642-.37316,2.83655-.72949,2.11395-.53283,4.23572-1.03c.931-.21887,1.86151-.43853,2.79455-.64764,1.50751-.33789,3.01886-.65582,4.5315-.968.83056-.17138,1.65936-.35113,2.49145-.51477q3.0195-.5939,6.05158-1.11621c.33026-.05725.65893-.12378.98938-.17981q3.51141-.59573,7.03772-1.09509c.75653-.10822,1.51519-.19965,2.27264-.30145,1.617-.21741,3.23468-.42817,4.85535-.61658.90338-.105,1.80792-.19788,2.71234-.29389q2.237-.23748,4.47723-.44146,1.40654-.1259,2.81409-.23688,2.24148-.17744,4.4859-.31555c.90851-.05689,1.81665-.11591,2.72577-.16376,1.6189-.08514,3.23889-.14856,4.8595-.205.77533-.027,1.54992-.06347,2.32556-.0838,2.38971-.06274,4.78045-.10077,7.17236-.10071h.00427c.16791,0,.33612.0047.504.005,1.63342.003,3.26691.01636,4.90082.04871l.01324.00012c.00281-.077.00776-.15405.01044-.231.02258-.64886.03345-1.29767.04663-1.94653.00934-.4574.02411-.9148.02881-1.37207.0072-.7038.00153-1.40723-.00226-2.11072-.00219-.40149.00214-.80316-.00354-1.20459-.01269-.89343-.03937-1.78632-.0697-2.679-.0072-.21167-.00891-.4237-.01709-.63531q-.064-1.65336-.16852-3.30408c-.022-.34851-.05334-.69617-.07806-1.04449-.05335-.75257-.10578-1.50519-.17163-2.25666-.039-.44458-.08826-.88824-.13159-1.33239-.06379-.65369-.12494-1.30762-.19825-1.96027-.05413-.48224-.1184-.96326-.17767-1.44488-.07544-.61292-.1485-1.2262-.2323-1.838-.06836-.4989-.14606-.99652-.22-1.49463-.088-.59338-.17413-1.187-.27-1.77923-.08221-.50757-.173-1.01374-.261-1.52039-.10083-.58063-.20031-1.16144-.30865-1.74072-.0957-.51141-.19916-1.02142-.30072-1.53174-.11395-.57281-.22754-1.14575-.34888-1.7171-.109-.51312-.225-1.02484-.34-1.53674-.1269-.565-.254-1.13-.38819-1.69336-.12262-.515-.2514-1.02851-.38007-1.54212-.13995-.55847-.28076-1.1167-.42785-1.67352-.13544-.51282-.27618-1.02435-.41766-1.53571q-.23062-.83358-.47034-1.665-.22119-.76135-.4527-1.51984-.25259-.83286-.515-1.663-.23841-.75137-.48621-1.49993-.27484-.83213-.56042-1.66108-.25581-.74222-.52008-1.48181-.29691-.82992-.60553-1.65619c-.10132-.27191-.205-.54315-.30805-.81451-.58233.21429-1.16211.43646-1.74365.65314C260.42556,90.60661,258.98666,91.14427,257.55227,91.69548Z"/><path class="cls-7" d="M75.57967,220.89854l-.15155.17878.08026-.07965Z"/><path class="cls-3" d="M86.92983,204.32664q-6.88422,7.43217-13.49194,15.232-.15234.18-.30493.35968-4.76047,5.63232-9.37244,11.4527-1.85037,2.33733-3.67407,4.70752c-.52826.68524-1.06275,1.36273-1.58783,2.05182-1.25379,1.64526-2.47278,3.306-3.70069,4.96283-.16.21582-.32257.43054-.48211.6466l.04254.03327c.52686-.40436,1.06244-.79346,1.5929-1.19165a273.50067,273.50067,0,0,1,19.263-21.2519q.09722-.1149.19464-.22949l.01922-.0227.15155-.17878c.34186-.403.68232-.8078,1.02533-1.20935q1.3483-1.57818,2.70954-3.13934,1.00653-1.15668,2.017-2.30835,1.38337-1.56839,2.78132-3.11743c.6665-.74188,1.331-1.48657,2.00152-2.22315.97772-1.074,1.96381-2.13653,2.95-3.19915.63129-.68018,1.25873-1.36573,1.89343-2.04126,1.14222-1.2157,2.29444-2.41736,3.44764-3.618.48913-.50922.97314-1.0257,1.46423-1.53229q2.4211-2.4972,4.874-4.94971c.63733-.63751,1.2826-1.26361,1.923-1.8966,1.028-1.01606,2.055-2.03345,3.091-3.038.76416-.7409,1.5354-1.47143,2.30389-2.206.92341-.88281,1.8462-1.7666,2.77576-2.64026.81256-.76367,1.63086-1.51886,2.44806-2.27557q1.34427-1.24467,2.6944-2.48041,1.26654-1.15384,2.54205-2.29395,1.32359-1.18743,2.65393-2.36438,1.30435-1.15182,2.61633-2.29193,1.31863-1.14624,2.645-2.28021,1.33091-1.13892,2.66773-2.26843,1.32091-1.11275,2.65076-2.21112c.90209-.74817,1.80377-1.497,2.71075-2.23725.88672-.72381,1.77893-1.4386,2.67029-2.15484.91461-.73493,1.82739-1.47309,2.74682-2.20008.89057-.70422,1.78778-1.39728,2.6828-2.09405.928-.72241,1.85285-1.45032,2.78559-2.1648.93847-.71881,1.88482-1.42407,2.82806-2.13476q2.61768-1.97252,5.25922-3.90308c.90814-.6637,1.81323-1.33282,2.72552-1.98914.97187-.69915,1.95087-1.38525,2.92737-2.07592.89728-.63465,1.7926-1.27259,2.69373-1.90009.98022-.68255,1.96618-1.35455,2.951-2.02868.90539-.61982,1.81012-1.24073,2.71929-1.8534q1.485-1.00066,2.9787-1.98462,1.36762-.90582,2.73951-1.8034,1.49743-.976,3.00207-1.938,1.38427-.88669,2.77374-1.76282,1.49964-.94519,3.00519-1.87884,1.41266-.87489,2.83167-1.7367,1.49679-.91168,2.99786-1.81445c.9624-.57593,1.92859-1.14392,2.89459-1.71228.993-.58423,1.985-1.17029,2.98175-1.74646.9972-.57642,1.99915-1.14234,3.00012-1.71076.97242-.55218,1.94282-1.109,2.91877-1.65356,1.10009-.61389,2.2063-1.21442,3.31079-1.81867.88415-.48364,1.76489-.97479,2.65173-1.4522q2.89509-1.5586,5.80982-3.07251c.86627-.4502,1.738-.88752,2.60675-1.33179,1.15362-.59,2.30615-1.18262,3.46417-1.76233.92639-.46375,1.85736-.9165,2.78644-1.37366,1.10943-.54584,2.21838-1.09271,3.33166-1.62909.9455-.45562,1.89453-.90246,2.84278-1.35125q1.65866-.78489,3.32128-1.55951,1.42548-.66038,2.856-1.30793,1.6778-.76327,3.36048-1.51367,1.42062-.63226,2.84509-1.25415,1.7103-.74716,3.42608-1.47882,1.40141-.59848,2.80561-1.18939,1.77328-.74313,3.553-1.46778c.90118-.36871,1.80181-.739,2.70507-1.10174,1.25769-.50507,2.51892-.99927,3.78058-1.4928.83826-.32794,1.67511-.66009,2.51508-.983,1.43445-.55127,2.87329-1.08881,4.31256-1.62524.58154-.21668,1.16132-.43885,1.74365-.65314q-.44376-1.16813-.90845-2.329A452.05726,452.05726,0,0,0,86.92983,204.32664Z"/><path class="cls-4" d="M259.564,145.05345c-.81629.02222-1.63135.06684-2.44727.0965-1.6383.05945-3.27667.11816-4.91308.20733-.97467.05311-1.9477.12836-2.92164.192-1.47546.09637-2.95105.19086-4.42443.31134-1.04047.08508-2.079.18994-3.11823.287-1.40478.13122-2.80951.26227-4.21191.4154-1.0727.11713-2.14337.2511-3.21454.38105-1.36548.16558-2.73065.33349-4.09345.51983-1.09027.14911-2.17852.31195-3.2669.47431-1.34052.2-2.6803.405-4.01776.62512-1.097.18048-2.19239.37146-3.28724.56549q-1.98879.35238-3.97271.73273-1.64493.31686-3.28595.65429-1.974.40558-3.94184.842-1.63659.36173-3.26941.74054c-1.31219.30713-2.62121.62861-3.929.95539-1.08.26983-2.16.53991-3.23688.82312-1.31366.34546-2.623.70862-3.93176,1.074-1.06073.29615-2.12232.58893-3.17969.89807-1.32916.38861-2.65271.79822-3.97638,1.20746-1.02759.31769-2.057.62842-3.08118.9585-1.36389.43957-2.7207.90368-4.07824,1.36517-.975.33148-1.95313.65235-2.92469.99512-1.46087.51538-2.91278,1.0592-4.36566,1.6001-.85693.319-1.71838.6239-2.57238.95172-1.91169.73388-3.81263,1.49981-5.70917,2.27807-.38733.15894-.77881.30585-1.16547.46662q-3.39871,1.41312-6.7619,2.92352c-.79492.35632-1.581.73541-2.37286,1.09973-1.45557.66956-2.912,1.33673-4.357,2.03308-.92413.44538-1.83911.91291-2.75873,1.36914-1.30108.64551-2.60351,1.28791-3.89544,1.9552-.96631.49915-1.92389,1.01813-2.88489,1.52942-1.23248.6557-2.46546,1.31031-3.689,1.986-.98065.54162-1.95355,1.10022-2.9284,1.65466-1.191.67737-2.38135,1.3562-3.5633,2.05273-.981.57807-1.9552,1.17-2.92974,1.76117-1.16169.70471-2.32129,1.41358-3.4737,2.137q-1.46163.91744-2.91107,1.85882-1.70727,1.10267-3.40131,2.23078-1.44369.96386-2.87622,1.94836-1.6799,1.15329-3.34424,2.33514-1.41558,1.004-2.82135,2.02521-1.662,1.2117-3.30609,2.455c-.92077.69317-1.84106,1.387-2.75427,2.0932-1.09888.84973-2.18787,1.71588-3.27557,2.58441-.89209.7124-1.78595,1.42206-2.67035,2.14709-1.10053.90216-2.18884,1.824-3.27735,2.74573-.85156.72107-1.707,1.436-2.551,2.169-1.12079.97345-2.22669,1.96991-3.33392,2.96435-.79218.71143-1.59064,1.41321-2.37574,2.13538-1.18866,1.09338-2.35925,2.21368-3.53137,3.33166-.68353.652-1.3761,1.29084-2.054,1.95118-1.49286,1.45422-2.96442,2.93884-4.429,4.43341-.34094.348-.69049.68383-1.02991,1.034-.89813.92652-1.77349,1.88422-2.66058,2.826a209.44572,209.44572,0,0,1,191.501-40.6073c.25152-.6101.50457-1.21978.74658-1.83239.13769-.34851.26874-.69867.40338-1.048.24347-.63153.48529-1.26355.71869-1.89758.14331-.3894.28162-.77991.4212-1.17017q.322-.90051.63245-1.80371.20562-.602.40448-1.20562.29809-.90043.58276-1.80359c.126-.3996.25147-.79926.3736-1.19965.18866-.61835.37067-1.23791.55011-1.85809.11041-.38178.22265-.76319.32965-1.14557.18848-.67383.36816-1.34925.54584-2.025.08648-.329.17688-.65728.26086-.98675q.349-1.36935.66779-2.74353c.02124-.09131.045-.18219.066-.2735q.35064-1.52224.66382-3.04974c.05859-.28455.1109-.57.16766-.85468.14514-.72852.28766-1.45734.42059-2.18738.06781-.37256.13-.74572.19458-1.11859.11188-.64538.22156-1.291.32392-1.93732.06384-.40325.12377-.80688.184-1.21044q.13878-.931.26525-1.86316.08342-.61817.161-1.23688.11671-.93154.21954-1.86395c.04535-.40735.09106-.81464.13263-1.22223.06573-.64411.124-1.28858.18048-1.93311.03326-.38031.06921-.76044.0993-1.14093.05738-.72589.105-1.45209.15058-2.17834.01873-.29908.04217-.598.0589-.8971.00268-.04852.0039-.09711.00659-.14563q-2.65532-.05219-5.30994-.05249Q263.24634,144.94978,259.564,145.05345Z"/><path class="cls-3" d="M267.44045,142.45488c-.16937-.00031-.33893-.005-.5083-.005-2.39191-.00006-4.78271.038-7.17236.10071-.77564.02033-1.55023.05683-2.32556.0838-1.62055.05634-3.24067.11982-4.8595.205-.90912.04785-1.81726.10687-2.72577.16376q-2.24433.14054-4.4859.31555-1.40781.11142-2.81409.23688-2.24065.20068-4.47723.44146c-.90442.096-1.809.18885-2.71234.29389-1.62061.18841-3.23841.39923-4.85535.61658-.75745.1018-1.51611.19323-2.27264.30145q-3.52542.504-7.03772,1.09509c-.33045.056-.65912.12256-.98938.17981q-3.03141.52569-6.05158,1.11621c-.83209.16364-1.66089.34339-2.49145.51477-1.51258.31214-3.024.63019-4.5315.968-.933.20911-1.86358.42877-2.79455.64764q-2.12147.49887-4.23572,1.03-1.42008.35788-2.83655.72949-2.12878.561-4.24811,1.16047c-.90423.2539-1.80914.50384-2.711.76715-1.55408.45373-3.10212.93011-4.64869,1.41174-.74347.23151-1.4898.4519-2.23144.68982q-3.37208,1.08187-6.71918,2.24939c-.5423.18964-1.07959.395-1.62079.58813-1.71478.61194-3.42651,1.23359-5.13012,1.88038-.85547.32476-1.70545.66534-2.55793.99884-1.38781.543-2.77374,1.09118-4.15356,1.65741-.91956.37731-1.83539.76428-2.75128,1.152q-1.9768.83661-3.9422,1.70447-1.376.60819-2.74683,1.22949c-1.33136.6062-2.65662,1.22846-3.97931,1.85681-.86322.41-1.728.81519-2.58746,1.23462-1.4914.72791-2.97333,1.47889-4.453,2.23505-.67115.343-1.347.67432-2.01569,1.02307q-3.16187,1.64942-6.28632,3.38428c-.59887.33282-1.18994.68243-1.78668,1.02-1.51269.85571-3.02228,1.71808-4.52063,2.60425-.80762.47766-1.60791.9699-2.41125,1.45642-1.28333.77722-2.56385,1.56012-3.836,2.35986q-1.26937.798-2.52912,1.6142-1.84569,1.18908-3.67474,2.41015c-.83087.55463-1.66083,1.11066-2.48645,1.67517-1.25677.85926-2.50421,1.73535-3.7486,2.6175-.75787.53723-1.51886,1.06854-2.272,1.61425-1.46863,1.06409-2.92383,2.15186-4.37414,3.248-.50861.3844-1.02381.75726-1.5301,1.14557q-2.9003,2.22446-5.74908,4.53589c-.54437.44153-1.079.89868-1.62061,1.34491-1.36846,1.12762-2.73254,2.26239-4.08233,3.42-.70288.60284-1.39728,1.21851-2.095,1.82947q-1.77164,1.55136-3.52375,3.133-1.09.98859-2.16943,1.99292-1.70856,1.58369-3.3938,3.20185c-.69781.66949-1.39545,1.33893-2.08734,2.01709-.426.41748-.8432.84729-1.26685,1.26806-.03607.03577-.07183.07209-.10784.10791a273.50067,273.50067,0,0,0-19.263,21.2519c.727-.54566,1.45422-1.0907,2.18792-1.62464q6.13449-6.05649,12.66968-11.51465c.88709-.94183,1.76245-1.89953,2.66058-2.826.33942-.35016.689-.686,1.02991-1.034,1.46454-1.49457,2.9361-2.97919,4.429-4.43341.67785-.66034,1.37036-1.2992,2.054-1.95118,1.17212-1.118,2.34271-2.23828,3.53137-3.33166.7851-.72223,1.58356-1.42395,2.37574-2.13538,1.10723-.99444,2.21313-1.9909,3.33392-2.96435.844-.733,1.69946-1.44788,2.551-2.169,1.08851-.92169,2.17682-1.84357,3.27735-2.74573.88452-.72509,1.7782-1.43463,2.67035-2.14709,1.0877-.86853,2.17669-1.73468,3.27557-2.58441.91327-.70624,1.83344-1.4,2.75427-2.0932q1.64622-1.23945,3.30609-2.455,1.40461-1.02384,2.82135-2.02521,1.6649-1.18084,3.34424-2.33514,1.43309-.984,2.87622-1.94836,1.6929-1.13031,3.40131-2.23078,1.45166-.9375,2.91107-1.85882c1.15241-.72339,2.312-1.43226,3.4737-2.137.97467-.59124,1.94873-1.1831,2.92974-1.76117,1.182-.69653,2.37232-1.37536,3.5633-2.05273.97485-.55451,1.94763-1.113,2.9284-1.65466,1.22357-.67572,2.45655-1.33033,3.689-1.986.96106-.51135,1.91852-1.03027,2.88489-1.52942,1.29193-.66729,2.59436-1.30969,3.89544-1.9552.91968-.45623,1.8346-.92382,2.75873-1.36914,1.445-.69635,2.90143-1.36352,4.357-2.03308.79187-.36432,1.57794-.74335,2.37286-1.09973q3.36374-1.508,6.7619-2.92352c.38666-.16083.77814-.30774,1.16547-.46662,1.89654-.77826,3.79748-1.54419,5.70917-2.27807.854-.32788,1.71545-.63275,2.57238-.95172,1.45288-.5409,2.90479-1.08472,4.36566-1.6001.97162-.34271,1.94965-.66364,2.92469-.99512,1.35754-.46149,2.71435-.9256,4.07824-1.36517,1.02424-.33008,2.05353-.64081,3.08118-.9585,1.32367-.40924,2.64722-.81885,3.97638-1.20746,1.05743-.3092,2.11884-.60192,3.17969-.89807,1.30878-.36535,2.6181-.72851,3.93176-1.074,1.077-.28327,2.15674-.55322,3.23688-.82312,1.3078-.32678,2.61682-.64826,3.929-.95539q1.63239-.38205,3.26941-.74054,1.96821-.435,3.94184-.842,1.64125-.33728,3.28595-.65429,1.98368-.38214,3.97271-.73273c1.09491-.194,2.19007-.385,3.28724-.56549,1.33746-.22009,2.67724-.42517,4.01776-.62512,1.08844-.16242,2.17657-.3252,3.2669-.47431,1.3628-.18634,2.728-.35425,4.09345-.51983,1.07123-.13,2.14178-.26392,3.21454-.38105,1.4024-.15313,2.80713-.28418,4.21191-.4154,1.03931-.09711,2.0777-.202,3.11823-.287,1.47338-.12048,2.949-.215,4.42443-.31134.97394-.06366,1.94684-.13885,2.92164-.192,1.63641-.08917,3.27478-.14788,4.91308-.20733.81592-.02966,1.631-.07428,2.44727-.0965q3.68215-.10034,7.36816-.10376,2.65448.00009,5.30994.05249.06874-1.249.11242-2.49823l-.01324-.00036C270.70736,142.47124,269.07387,142.45787,267.44045,142.45488Z"/><path class="cls-5" d="M205.01907,183.33293A206.653,206.653,0,0,0,71.63851,232.008a186.57149,186.57149,0,0,1,171.59277-10.71179c.53418-.67432,1.07233-1.34381,1.596-2.031.80451-1.05566,1.58606-2.12158,2.35468-3.193.24139-.33649.47564-.676.7135-1.014q.79248-1.126,1.56061-2.26208.38754-.57495.76825-1.15271.74788-1.13425,1.46869-2.2793c.222-.35181.44726-.70245.66564-1.05566q.95343-1.54194,1.86268-3.10047c.046-.079.09484-.157.14074-.2362q.972-1.67808,1.887-3.37653c.18743-.34613.36761-.6947.55169-1.04193q.63529-1.19807,1.2464-2.40417.306-.60618.60468-1.21466.58209-1.18287,1.13806-2.37372c.17645-.37714.35559-.75342.52832-1.13166.34479-.755.6745-1.51434,1.00439-2.27368A206.29039,206.29039,0,0,0,205.01907,183.33293Z"/><path class="cls-3" d="M70.80886,229.44212q-6.527,5.46149-12.66968,11.51465,6.581-4.78949,13.49933-8.94873A206.93256,206.93256,0,0,1,261.32259,191.1555l.00342.00092q.503-1.15777.98383-2.3216a209.44572,209.44572,0,0,0-191.501,40.6073Z"/><path class="cls-6" d="M167.87765,207.84648a184.02617,184.02617,0,0,0-111.46411,37.505A134.94849,134.94849,0,0,0,241.6061,223.31383,183.07121,183.07121,0,0,0,167.87765,207.84648Z"/><path class="cls-3" d="M167.87765,205.34648A186.85569,186.85569,0,0,0,71.63851,232.008q-6.91178,4.15742-13.49933,8.94873c-.7337.53394-1.46094,1.079-2.18792,1.62464-.53046.39819-1.066.78729-1.5929,1.19165.44208.34552.87811.69592,1.32562,1.03692.24158.18408.48712.35926.72956.54151A184.02909,184.02909,0,0,1,241.6061,223.31383q.82242-.99885,1.63068-2.0152l-.0055-.00238A185.55866,185.55866,0,0,0,167.87765,205.34648Z"/></g><g id="Typo"><path class="cls-3" d="M137.583,2.5A134.965,134.965,0,1,1,30.13888,55.66692,134.34989,134.34989,0,0,1,137.583,2.5m.006-2.5V2.5L137.58646,0a138.75535,138.75535,0,0,0-60.1094,13.7655A137.55318,137.55318,0,0,0,1.261,155.86388a137.47477,137.47477,0,0,0,136.1224,119.06836,138.734,138.734,0,0,0,60.106-13.76477,137.55528,137.55528,0,0,0,76.216-142.09906A137.47489,137.47489,0,0,0,137.589,0Z"/><rect class="cls-8" width="275.11937" height="275.11918"/></g></svg>